<?xml version="1.0" encoding="utf-8"?>
<!-- Generator: Adobe Illustrator 17.0.0, SVG Export Plug-In . SVG Version: 6.00 Build 0)  -->
<!DOCTYPE svg PUBLIC "-//W3C//DTD SVG 1.1//EN" "http://www.w3.org/Graphics/SVG/1.1/DTD/svg11.dtd">
<svg version="1.1" id="Capa_1" xmlns="http://www.w3.org/2000/svg" xmlns:xlink="http://www.w3.org/1999/xlink" x="0px" y="0px"
	 width="357.496px" height="385.294px" viewBox="0 0 357.496 385.294" enable-background="new 0 0 357.496 385.294"
	 xml:space="preserve">
<g>
	<rect x="0" y="0" fill="#FFFFFF" width="171.081" height="184.136"/>
</g>
<g>
	<rect x="185.467" y="0" fill="#FFFFFF" width="172.029" height="184.136"/>
</g>
<g>
	<rect x="0" y="201.147" fill="#FFFFFF" width="171.081" height="184.147"/>
</g>
<g>
	<rect x="185.467" y="201.147" fill="#FFFFFF" width="172.029" height="184.147"/>
</g>
<g>
	<path fill="#424242" d="M118.159,125.909H58.302l-13.77,38.031H32.916L83.031,27.552h10.585l49.741,136.389h-11.616
		L118.159,125.909z M61.861,115.886h52.645L88.652,43.57H88.09L61.861,115.886z"/>
</g>
<g>
	<path fill="#424242" d="M120.418,330.093c0,11.603,3.786,17.403,11.358,17.403c3.759,0,7.222-2.146,10.392-6.438
		c1.934-2.574,4.672-6.919,8.217-13.034l8.021-13.776l4.934,2.906l-7.987,13.722c-2.743,4.733-4.437,7.584-5.083,8.552
		c-2.045,3.228-4.034,5.89-5.97,7.987c-3.497,3.819-7.665,5.729-12.505,5.729c-11.35,0-17.023-7.665-17.023-22.994v-15.975
		c-6.402,15.955-15.706,27.3-27.916,34.037c-5.917,3.287-11.833,4.932-17.75,4.932c-9.951,0-18.853-4.168-26.705-12.506
		c-9.306-9.896-13.903-24.23-13.796-43.002c0.107-17.964,5.136-34.047,15.087-48.246c4.787-6.777,10.299-12.129,16.54-16.056
		c5.97-3.765,12.505-5.729,19.605-5.89c4.732-0.107,9.573,0.725,14.522,2.497c13.177,4.566,21.864,15.176,26.06,31.826V330.093z
		 M114.771,282.388v-19.605c-2.69-10.973-7.665-18.905-14.926-23.801c-5.863-4.034-12.453-5.997-19.767-5.89
		c-12.802,0.216-23.693,7.181-32.675,20.896c-8.606,13.124-12.99,27.673-13.151,43.647c-0.161,21.569,5.89,36.414,18.153,44.535
		c5.378,3.55,10.945,5.325,16.701,5.325c10.166,0,19.632-4.948,28.399-14.846c4.679-5.271,8.633-11.94,11.86-20.008
		c2.205-5.54,3.792-12.479,4.76-20.815C114.555,288.115,114.771,284.969,114.771,282.388z"/>
</g>
<g>
	<g>
		<rect x="176.516" y="0" fill="#211915" width="2" height="389.365"/>
	</g>
	<g>
		<rect x="-2.504" y="191.265" fill="#211915" width="360" height="2"/>
	</g>
</g>
<g>
	<path fill="#424242" d="M301.216,162.869c-0.59-3.051-1.031-5.673-1.326-7.869c-0.295-2.194-0.441-4.443-0.441-6.745
		c-2.998,4.711-7.2,8.605-12.606,11.684c-5.407,3.078-11.616,4.617-18.629,4.617c-8.512,0-15.11-2.261-19.794-6.785
		c-4.685-4.523-7.025-10.666-7.025-18.428c0-7.761,3.398-14.052,10.197-18.87c6.798-4.818,15.631-7.227,26.498-7.227h21.359v-10.76
		c0-6.209-1.967-11.081-5.901-14.614s-9.489-5.299-16.662-5.299c-6.585,0-11.897,1.606-15.938,4.818
		c-4.043,3.212-6.063,7.254-6.063,12.125h-8.914l-0.16-0.482c-0.321-6.531,2.476-12.272,8.391-17.224
		c5.915-4.951,13.637-7.427,23.166-7.427c9.528,0,17.184,2.437,22.966,7.307c5.781,4.872,8.672,11.857,8.672,20.958v42.719
		c0,3.051,0.173,6.022,0.522,8.913c0.348,2.891,0.924,5.755,1.727,8.592H301.216z M269.257,156.043
		c7.387,0,13.783-1.753,19.191-5.26c5.406-3.505,9.073-8.016,11-13.53v-16.622h-21.439c-7.816,0-14.267,1.861-19.352,5.581
		c-5.086,3.722-7.629,8.205-7.629,13.45c0,4.926,1.619,8.887,4.858,11.884C259.126,154.545,263.582,156.043,269.257,156.043z"/>
</g>
<g>
	<path fill="#424242" d="M332.705,307.083l5.85,3.453l-9.47,16.262c-5.421,9.313-9.056,15.084-10.905,17.314
		c-5.104,6.123-10.778,9.184-17.027,9.184c-4.529,0-8.195-1.625-11.002-4.878c-2.615-3.062-3.922-6.888-3.922-11.479
		c-3.189,4.918-7.573,8.873-13.152,11.866c-5.582,2.995-11.336,4.491-17.268,4.491c-13.457,0-23.118-5.492-28.984-16.48
		c-2.615-4.762-3.89-10.002-3.826-15.718c0.128-13.844,6.408-24.354,18.844-31.532c5.803-3.365,11.99-5.049,18.559-5.049
		c10.395,0,18.654,3.715,24.776,11.141c3.507,4.317,6.058,7.588,7.653,9.809l0.096,31.568c0,6.378,2.736,9.566,8.211,9.566
		c4.456,0,8.594-2.555,12.414-7.664c2.227-3.065,5.441-8.238,9.644-15.52L332.705,307.083z M286.062,307.36
		c-0.893-1.211-2.905-3.697-6.032-7.457c-4.849-5.794-11.388-8.69-19.618-8.69c-12.824,0-21.914,5.426-27.273,16.274
		c-2.297,4.567-3.445,9.104-3.445,13.607c-0.064,7.486,2.392,13.609,7.369,18.368c4.976,4.759,11.229,7.138,18.758,7.138
		c11.357,0,19.619-4.477,24.787-13.43C284.244,326.821,286.062,318.218,286.062,307.36z"/>
</g>
</svg>
