<?xml version="1.0" encoding="utf-8"?>
<!-- Generator: Adobe Illustrator 17.0.0, SVG Export Plug-In . SVG Version: 6.00 Build 0)  -->
<!DOCTYPE svg PUBLIC "-//W3C//DTD SVG 1.1//EN" "http://www.w3.org/Graphics/SVG/1.1/DTD/svg11.dtd">
<svg version="1.1" id="Capa_1" xmlns="http://www.w3.org/2000/svg" xmlns:xlink="http://www.w3.org/1999/xlink" x="0px" y="0px"
	 width="357.496px" height="385.294px" viewBox="0 0 357.496 385.294" enable-background="new 0 0 357.496 385.294"
	 xml:space="preserve">
<g>
	<rect x="1.504" y="-10.841" fill="#FFFFFF" width="171.081" height="184.136"/>
</g>
<g>
	<rect x="186.971" y="-10.841" fill="#FFFFFF" width="172.029" height="184.136"/>
</g>
<g>
	<rect x="1.504" y="190.306" fill="#FFFFFF" width="171.081" height="184.147"/>
</g>
<g>
	<rect x="186.971" y="190.306" fill="#FFFFFF" width="172.029" height="184.147"/>
</g>
<g>
	<path fill="#424242" d="M142.239,110.478l0.188,0.562c0.249,13.365-4.122,24.043-13.114,32.037
		c-8.993,7.994-20.796,11.99-35.409,11.99c-15.175,0-27.416-5.48-36.72-16.44c-9.306-10.96-13.958-25.151-13.958-42.575V73.852
		c0-17.36,4.652-31.552,13.958-42.574c9.304-11.021,21.545-16.534,36.72-16.534c14.8,0,26.65,3.904,35.549,11.709
		c8.899,7.807,13.223,18.547,12.974,32.224l-0.188,0.562h-10.492c0-10.991-3.357-19.562-10.07-25.713
		c-6.714-6.15-15.971-9.227-27.774-9.227c-11.929,0-21.498,4.622-28.711,13.864c-7.213,9.243-10.819,21.077-10.819,35.502v22.388
		c0,14.613,3.606,26.526,10.819,35.737c7.213,9.212,16.782,13.817,28.711,13.817c11.803,0,21.06-2.998,27.774-8.993
		c6.712-5.995,10.07-14.707,10.07-26.135H142.239z"/>
</g>
<g>
	<path fill="#424242" d="M136.22,307.491l5.525,3.255l-4.156,7.322c-12.467,21.984-29.242,32.976-50.321,32.976
		c-17.346,0-31.259-6.835-41.738-20.509c-9.999-13.129-14.997-29.813-14.997-50.05c0-18.791,5.059-35.143,15.178-49.056
		c10.419-14.213,22.886-21.321,37.402-21.321c19.212,0,32.553,11.595,40.021,34.782l-6.053,1.987
		c-3.072-9.757-6.927-17.014-11.564-21.772c-5.723-5.781-13.19-8.672-22.405-8.672c-8.673,0-16.774,3.343-24.302,10.028
		c-6.385,5.662-11.534,12.95-15.449,21.863c-4.336,9.757-6.504,20.478-6.504,32.161c0,20.599,4.996,36.62,14.988,48.063
		c9.511,10.782,21.31,16.172,35.395,16.172c12.16,0,22.693-4.189,31.603-12.57c4.935-4.642,9.329-10.399,13.183-17.272
		L136.22,307.491z"/>
</g>
<g>
	<g>
		<rect x="178.02" y="-10.841" fill="#211915" width="2" height="389.365"/>
	</g>
	<g>
		<rect x="-1" y="180.424" fill="#211915" width="360" height="2"/>
	</g>
</g>
<g>
	<path fill="#424242" d="M277.613,148.011c6.71,0,12.647-1.983,17.813-5.952c5.164-3.967,7.746-9.482,7.746-16.543h9.366
		l0.175,0.525c0.232,8.753-3.21,16.077-10.329,21.97c-7.12,5.895-15.376,8.841-24.771,8.841c-12.604,0-22.423-4.434-29.454-13.305
		c-7.033-8.87-10.548-20.22-10.548-34.049v-3.677c0-13.771,3.501-25.091,10.504-33.961c7.002-8.87,16.806-13.305,29.41-13.305
		c10.153,0,18.614,3.063,25.384,9.19c6.769,6.127,10.036,14.18,9.804,24.159l-0.175,0.525h-9.366c0-7.585-2.48-13.64-7.44-18.163
		c-4.96-4.521-11.028-6.783-18.206-6.783c-9.921,0-17.302,3.647-22.146,10.941c-4.844,7.295-7.265,16.427-7.265,27.397v3.677
		c0,11.146,2.421,20.351,7.265,27.616S267.634,148.011,277.613,148.011z"/>
</g>
<g>
	<path fill="#424242" d="M316.361,305.733l3.647-6.3l6.671,3.931l-3.6,6.226c-16.437,28.437-39.673,42.689-69.709,42.764
		c-14.255,0-24.981-5.862-32.182-17.588c-3.49-5.753-5.198-12.235-5.127-19.445c0.219-16.021,6.835-28.038,19.854-36.05
		c6.327-3.932,13.49-5.899,21.491-5.899c11.927,0,20.217,5.236,24.872,15.709l-6.981,3.164c-3.42-7.49-9.382-11.236-17.891-11.236
		c-14.037,0-24,6.119-29.891,18.357c-2.547,5.318-3.818,10.674-3.818,16.065c0,13.113,5.886,22.074,17.66,26.883
		c3.777,1.603,7.774,2.403,11.991,2.403c8.866,0.073,17.151-1.424,24.856-4.49c3.995-1.605,7.883-3.611,11.664-6.021
		C300.698,327.271,309.529,317.779,316.361,305.733z"/>
</g>
</svg>
