<?xml version="1.0" encoding="utf-8"?>
<!-- Generator: Adobe Illustrator 17.0.0, SVG Export Plug-In . SVG Version: 6.00 Build 0)  -->
<!DOCTYPE svg PUBLIC "-//W3C//DTD SVG 1.1//EN" "http://www.w3.org/Graphics/SVG/1.1/DTD/svg11.dtd">
<svg version="1.1" id="Capa_1" xmlns="http://www.w3.org/2000/svg" xmlns:xlink="http://www.w3.org/1999/xlink" x="0px" y="0px"
	 width="357.496px" height="385.294px" viewBox="0 0 357.496 385.294" enable-background="new 0 0 357.496 385.294"
	 xml:space="preserve">
<g>
	<rect x="5.504" y="2.159" fill="#FFFFFF" width="171.081" height="184.136"/>
</g>
<g>
	<rect x="190.971" y="2.159" fill="#FFFFFF" width="172.029" height="184.136"/>
</g>
<g>
	<rect x="5.504" y="203.306" fill="#FFFFFF" width="171.081" height="184.147"/>
</g>
<g>
	<rect x="190.971" y="203.306" fill="#FFFFFF" width="172.029" height="184.147"/>
</g>
<g>
	<path fill="#424242" d="M42.284,166.1V29.711h41.591c16.674,0,30.459,5.559,41.357,16.674
		c10.897,11.116,16.346,25.386,16.346,42.809v17.517c0,17.423-5.449,31.678-16.346,42.762
		c-10.898,11.085-24.683,16.627-41.357,16.627H42.284z M53.525,39.266v117.373h30.35c13.489,0,24.604-4.714,33.348-14.145
		c8.742-9.429,13.114-21.357,13.114-35.783V88.913c0-14.238-4.388-26.072-13.161-35.502c-8.775-9.429-19.875-14.145-33.301-14.145
		H53.525z"/>
</g>
<g>
	<path fill="#424242" d="M159.389,320.183l5.007,3.005c-4.841,8.514-15.997,16.776-33.469,24.788
		c-18.084,8.347-35.639,12.521-52.665,12.521c-9.46,0-17.944-3.144-25.456-9.432c-4.841,6.288-10.183,9.432-16.025,9.432
		c-3.896,0-7.428-1.336-10.6-4.006c-3.172-2.672-4.757-5.927-4.757-9.767c0-4.228,1.561-7.566,4.686-10.016
		c2.844-2.17,6.47-3.255,10.877-3.255c3.347,0,8.116,2.755,14.308,8.263c2.565-5.619,3.82-11.044,3.766-16.274v-13.188
		c-6.452-4.062-11.5-9.39-15.146-15.983s-5.47-13.674-5.47-21.241c0-8.013,1.962-15.44,5.885-22.285
		c3.923-6.844,9.319-12.311,16.191-16.4c6.871-4.09,14.23-6.135,22.076-6.135c10.183,0,19.335,3.034,27.459,9.098
		c7.623,5.676,13.633,13.354,18.028,23.036c4.507,10.071,6.761,21.145,6.761,33.219c0,15.469-3.701,29.045-11.101,40.729
		c-3.506,5.564-7.707,10.295-12.603,14.188c5.229-1.446,10.487-3.255,15.774-5.425C142.278,337.042,154.436,328.752,159.389,320.183
		z M48.382,347.142c-5.898-5.229-9.71-7.846-11.435-7.846c-6.455,0-9.682,2.477-9.682,7.428c0,2.282,1.002,4.174,3.005,5.676
		c2.003,1.503,4.173,2.254,6.51,2.254C40.675,354.653,44.543,352.149,48.382,347.142z M55.727,345.814
		c1.558,1.279,3.895,3.004,7.011,5.171c4.174,2.446,9.376,3.669,15.608,3.669c12.296,0,22.979-5.004,32.05-15.014
		c9.736-10.786,14.605-25.492,14.605-44.12c0-18.237-4.729-32.861-14.188-43.87c-9.014-10.398-19.753-15.598-32.217-15.598
		c-15.637,0-26.904,6.956-33.803,20.866c-3.005,6.121-4.507,12.158-4.507,18.111c0,12.742,4.924,22.842,14.773,30.297V264.43h5.842
		v60.955C60.901,332.278,59.176,339.087,55.727,345.814z"/>
</g>
<g>
	<g>
		<rect x="182.02" y="2.159" fill="#211915" width="2" height="389.365"/>
	</g>
	<g>
		<rect x="3" y="193.424" fill="#211915" width="360" height="2"/>
	</g>
</g>
<g>
	<path fill="#424242" d="M243.472,119.309c0-13.864,2.931-24.959,8.793-33.283c5.861-8.324,14.038-12.486,24.531-12.486
		c5.941,0,11.146,1.258,15.617,3.774c4.469,2.517,8.177,6.076,11.121,10.68v-51.23h9.637v125.265h-7.869l-1.365-12.607
		c-2.945,4.604-6.693,8.138-11.242,10.6c-4.551,2.461-9.904,3.693-16.06,3.693c-10.386,0-18.509-3.867-24.37-11.603
		c-5.862-7.735-8.793-18.107-8.793-31.115V119.309z M253.108,120.996c0,10.493,2.101,18.844,6.304,25.053
		c4.201,6.211,10.531,9.315,18.99,9.315c6.209,0,11.375-1.378,15.498-4.136c4.121-2.756,7.333-6.57,9.635-11.442V98.592
		c-2.195-4.924-5.299-8.939-9.314-12.044c-4.015-3.104-9.234-4.658-15.658-4.658c-8.459,0-14.814,3.467-19.07,10.399
		c-4.256,6.933-6.384,15.939-6.384,27.02V120.996z"/>
</g>
<g>
	<path fill="#424242" d="M299.418,341.124c0,6.354,2.554,9.529,7.663,9.529c4.109,0,7.926-2.355,11.449-7.068
		c2.055-2.828,5.02-7.6,8.895-14.314l8.773-15.066l5.396,3.178l-8.735,15.007c-5,8.589-8.354,13.912-10.059,15.971
		c-4.707,5.647-9.941,8.47-15.705,8.47c-4.178,0-7.56-1.5-10.146-4.5c-2.413-2.822-3.618-6.352-3.618-10.588
		c-2.942,4.536-6.985,8.184-12.132,10.945c-5.148,2.764-10.456,4.143-15.926,4.143c-12.412,0-21.324-5.066-26.735-15.201
		c-2.411-4.392-3.587-9.225-3.529-14.497c0.118-12.769,5.911-22.464,17.382-29.084c5.352-3.104,11.059-4.657,17.117-4.657
		c10.353,0,18.265,3.766,23.734,11.294v-72.352h6.177V341.124z M293.242,314.577c-0.766-0.996-2.621-3.277-5.568-6.848
		c-4.537-5.441-10.635-8.164-18.294-8.164c-6.896,0-13.259,2.518-19.092,7.551c-6.188,5.383-9.31,12.2-9.368,20.451
		c-0.059,6.612,2.328,12.143,7.16,16.59c4.654,4.332,10.34,6.496,17.058,6.496c10.37,0,18.06-4.184,23.067-12.553
		C291.563,332.483,293.242,324.642,293.242,314.577z"/>
</g>
</svg>
