<?xml version="1.0" encoding="utf-8"?>
<!-- Generator: Adobe Illustrator 17.0.0, SVG Export Plug-In . SVG Version: 6.00 Build 0)  -->
<!DOCTYPE svg PUBLIC "-//W3C//DTD SVG 1.1//EN" "http://www.w3.org/Graphics/SVG/1.1/DTD/svg11.dtd">
<svg version="1.1" id="Capa_1" xmlns="http://www.w3.org/2000/svg" xmlns:xlink="http://www.w3.org/1999/xlink" x="0px" y="0px"
	 width="357.496px" height="385.294px" viewBox="0 0 357.496 385.294" enable-background="new 0 0 357.496 385.294"
	 xml:space="preserve">
<g>
	<rect x="1.504" y="0" fill="#FFFFFF" width="171.081" height="184.136"/>
</g>
<g>
	<rect x="186.971" y="0" fill="#FFFFFF" width="172.029" height="184.136"/>
</g>
<g>
	<rect x="1.504" y="201.147" fill="#FFFFFF" width="171.081" height="184.147"/>
</g>
<g>
	<rect x="186.971" y="201.147" fill="#FFFFFF" width="172.029" height="184.147"/>
</g>
<g>
	<path fill="#424242" d="M145.236,145.581c-2.998,4.934-8.541,9.555-16.627,13.864c-8.088,4.309-18.283,6.463-30.584,6.463
		c-15.676,0-28.509-5.401-38.5-16.206c-9.992-10.803-14.988-24.791-14.988-41.966V82.726c0-16.861,4.839-30.599,14.52-41.216
		c9.679-10.616,22.201-15.925,37.563-15.925c14.8,0,26.557,3.904,35.268,11.709c8.712,7.807,12.942,17.736,12.693,29.788
		l-0.281,0.562h-10.304c0-9.429-3.248-17.204-9.742-23.325c-6.496-6.12-15.707-9.18-27.634-9.18
		c-12.24,0-22.107,4.435-29.601,13.302c-7.494,8.868-11.241,20.233-11.241,34.097v25.198c0,14.238,3.902,25.917,11.709,35.034
		c7.806,9.119,17.985,13.677,30.538,13.677c9.555,0,17.36-1.436,23.418-4.309c6.057-2.872,10.272-6.213,12.646-10.023v-34.94h-36.72
		V97.62h47.867V145.581z"/>
</g>
<g>
	<path fill="#424242" d="M118.232,267.571v44.24c6.259-5.248,11.198-9.279,14.817-12.098c7.482-5.782,12.349-10.98,14.599-15.598
		l4.475,2.621c-2.431,5.05-7.702,10.706-15.816,16.97c-5.247,4.079-11.272,9.152-18.074,15.222v37.287
		c0,10.244-2.818,17.381-8.455,21.411c-2.526,1.747-5.247,2.622-8.162,2.622c-4.714,0-8.236-2.816-10.568-8.448
		c-1.069-2.573-1.604-5.413-1.604-8.521c0-6.361,2.221-14.104,6.664-23.232c4.733-9.564,10.406-17.405,17.022-23.522v-30.368
		c-3.782,8.989-8.996,16.496-15.64,22.521c-7.712,7.046-15.932,10.592-24.661,10.642c-8.971,0.047-17.022-3.739-24.151-11.363
		c-8.342-8.885-12.463-21.85-12.366-38.895c0.097-16.218,4.624-30.736,13.582-43.556c4.308-6.117,9.271-10.949,14.887-14.494
		c5.374-3.398,11.257-5.171,17.648-5.317c3.97-0.097,8.133,0.606,12.491,2.108c11.281,3.781,19.051,12.554,23.313,26.32
		l-4.938,1.309c-2.613-8.963-6.824-15.38-12.632-19.257c-5.616-3.731-11.618-5.523-18.007-5.377
		c-5.906,0.098-11.28,1.773-16.12,5.025c-10.311,6.846-17.643,17.796-21.999,32.847c-2.034,6.992-3.074,13.79-3.122,20.393
		c-0.146,19.568,5.304,33.018,16.352,40.349c4.845,3.204,9.859,4.807,15.045,4.807c9.107,0,17.635-4.493,25.581-13.483
		c4.118-4.664,7.68-10.713,10.684-18.147c1.646-4.13,2.906-9.134,3.778-15.015H118.232z M113.13,323.91
		c-7.774,8.345-13.289,17.83-16.544,28.456c-1.361,4.512-2.041,8.151-2.041,10.918c0,2.474,0.559,4.924,1.677,7.351
		c1.359,3.008,3.157,4.512,5.394,4.512c4.129,0,7.215-2.28,9.256-6.841c1.505-3.396,2.259-7.423,2.259-12.081V323.91z"/>
</g>
<g>
	<g>
		<rect x="178.02" y="0" fill="#211915" width="2" height="389.365"/>
	</g>
	<g>
		<rect x="-1" y="191.265" fill="#211915" width="360" height="2"/>
	</g>
</g>
<g>
	<path fill="#424242" d="M244.263,90.15c0-13.864,2.931-24.959,8.793-33.283c5.861-8.324,14.038-12.486,24.531-12.486
		c6.154,0,11.508,1.325,16.059,3.975c4.55,2.65,8.297,6.411,11.242,11.282l1.365-13.65h7.789v87.364
		c0,11.081-3.052,19.619-9.154,25.615c-6.103,5.995-14.748,8.994-25.937,8.994c-4.175,0-8.632-0.509-13.37-1.526
		c-4.736-1.018-8.872-2.409-12.405-4.175l1.847-8.11c3.479,1.713,7.187,3.011,11.121,3.895c3.936,0.883,8.15,1.325,12.647,1.325
		c8.563,0,14.962-2.196,19.19-6.584c4.229-4.39,6.344-10.868,6.344-19.432v-12.286c-2.944,4.336-6.678,7.668-11.201,9.997
		c-4.524,2.329-9.756,3.493-15.698,3.493c-10.386,0-18.509-3.88-24.37-11.643c-5.862-7.761-8.793-18.12-8.793-31.075V90.15z
		 M253.899,91.836c0,10.493,2.114,18.844,6.343,25.053c4.229,6.211,10.572,9.315,19.031,9.315c6.103,0,11.229-1.378,15.377-4.136
		c4.148-2.756,7.374-6.544,9.676-11.362V69.272c-2.195-4.871-5.313-8.845-9.354-11.924c-4.042-3.078-9.222-4.617-15.538-4.617
		c-8.459,0-14.828,3.48-19.11,10.439c-4.284,6.959-6.424,15.953-6.424,26.98V91.836z"/>
</g>
<g>
	<path fill="#424242" d="M332.656,256.092l5.873,3.441c-3.189,6.627-10.109,14.052-20.758,22.272
		c-6.889,5.354-14.797,12.013-23.725,19.978v48.941c0,13.446-3.699,22.813-11.097,28.104c-3.316,2.293-6.888,3.44-10.714,3.44
		c-6.187,0-10.81-3.696-13.871-11.086c-1.403-3.377-2.104-7.103-2.104-11.181c0-8.346,2.947-18.509,8.842-30.485
		c6.148-12.551,13.563-22.841,22.247-30.867v-12.807c-3.114,5.038-7.438,9.072-12.971,12.101c-5.532,3.03-11.254,4.544-17.167,4.544
		c-13.416,0-23.048-5.508-28.896-16.526c-2.607-4.775-3.877-10.029-3.814-15.762c0.129-13.883,6.409-24.424,18.845-31.62
		c5.803-3.375,11.989-5.063,18.559-5.063c10.394,0,18.653,3.714,24.776,11.141c3.375,4.317,5.83,7.588,7.365,9.809v37.978
		c8.215-6.888,14.699-12.181,19.449-15.88C323.316,268.975,329.703,262.151,332.656,256.092z M287.353,256.378
		c-0.863-1.213-2.804-3.703-5.823-7.471c-4.849-5.797-11.386-8.694-19.616-8.694c-12.823,0-21.914,5.443-27.271,16.329
		c-2.297,4.584-3.445,9.136-3.445,13.655c-0.063,7.513,2.383,13.657,7.342,18.432c4.957,4.775,11.188,7.162,18.688,7.162
		c11.313,0,19.545-4.496,24.692-13.488C285.542,275.925,287.353,267.283,287.353,256.378z M287.35,308.323
		c-10.204,10.953-17.442,23.402-21.715,37.35c-1.786,5.922-2.679,10.699-2.679,14.329c0,3.247,0.732,6.463,2.201,9.648
		c1.784,3.947,4.145,5.922,7.078,5.922c5.42,0,9.471-2.993,12.148-8.979c1.977-4.459,2.966-9.744,2.966-15.857V308.323z"/>
</g>
</svg>
