<?xml version="1.0" encoding="utf-8"?>
<!-- Generator: Adobe Illustrator 17.0.0, SVG Export Plug-In . SVG Version: 6.00 Build 0)  -->
<!DOCTYPE svg PUBLIC "-//W3C//DTD SVG 1.1//EN" "http://www.w3.org/Graphics/SVG/1.1/DTD/svg11.dtd">
<svg version="1.1" id="Capa_1" xmlns="http://www.w3.org/2000/svg" xmlns:xlink="http://www.w3.org/1999/xlink" x="0px" y="0px"
	 width="357.496px" height="385.294px" viewBox="0 0 357.496 385.294" enable-background="new 0 0 357.496 385.294"
	 xml:space="preserve">
<g>
	<rect x="0.504" y="0" fill="#FFFFFF" width="171.081" height="184.136"/>
</g>
<g>
	<rect x="185.971" y="0" fill="#FFFFFF" width="172.029" height="184.136"/>
</g>
<g>
	<rect x="0.504" y="201.147" fill="#FFFFFF" width="171.081" height="184.147"/>
</g>
<g>
	<rect x="185.971" y="201.147" fill="#FFFFFF" width="172.029" height="184.147"/>
</g>
<g>
	<path fill="#424242" d="M143.234,163.94h-11.241v-62.761H54.525v62.761H43.284V27.552h11.241v64.073h77.468V27.552h11.241V163.94z"
		/>
</g>
<g>
	<path fill="#424242" d="M114.784,368.911c-6.663,0-11.676-3.121-15.037-9.364c-2.642-4.982-3.962-11.104-3.962-18.368v-47.992
		c-3.481,2.762-7.203,5.523-11.165,8.283c-2.146,1.502-6.379,4.203-12.695,8.104v30.747c0,9.65-4.002,17.621-12.003,23.914
		c-3.911,3.118-8.482,4.676-13.716,4.676c-4.933,0-8.813-1.858-11.641-5.578c-2.587-3.36-3.88-7.559-3.88-12.598
		c0-17.097,11.645-32.032,34.936-44.81v-67.845c-6.522,4.803-14.24,7.293-23.154,7.474c-12.744,0.301-23.185-4.111-31.32-13.236
		l4.682-4.232c6.844,7.685,15.697,11.406,26.562,11.165c4.201-0.119,8.464-0.99,12.786-2.611c4.802-1.859,8.374-4.261,10.715-7.203
		h6.213l-0.18,72.659c3.098-1.878,6.137-3.816,9.113-5.817c5.516-3.783,10.431-7.536,14.747-11.261v-34.321
		c0-8.407,2.761-14.804,8.284-19.188c2.641-2.102,5.763-3.152,9.364-3.152c10.324,0,15.487,5.399,15.487,16.196
		c0,8.759-4.263,18.357-12.786,28.795c-3.902,4.68-8.585,9.508-14.047,14.486v53.269c0,5.399,0.81,9.988,2.428,13.768
		c2.158,5.159,5.573,7.738,10.249,7.738c4.375,0,8.33-2.395,11.867-7.184c2.158-2.873,5.214-7.723,9.17-14.548l8.952-15.374
		l5.507,3.243l-8.914,15.313c-4.083,7.023-6.694,11.345-7.834,12.966c-3.543,4.983-7.145,8.374-10.805,10.175
		C120.426,368.34,117.785,368.911,114.784,368.911z M65.621,313.266c-19.089,11.085-28.633,23.578-28.633,37.479
		c0,7.909,3.062,11.864,9.185,11.864c5.582,0,10.294-2.396,14.136-7.191c3.542-4.493,5.313-9.586,5.313-15.278V313.266z
		 M102.088,279.23c13.687-13.385,20.53-24.941,20.53-34.666c0-3.781-0.616-6.377-1.847-7.788c-1.23-1.41-3.677-2.116-7.338-2.116
		c-3.723,0-6.634,1.832-8.734,5.492c-1.741,3.062-2.611,6.573-2.611,10.535V279.23z"/>
</g>
<g>
	<g>
		<rect x="177.02" y="0" fill="#211915" width="2" height="389.365"/>
	</g>
	<g>
		<rect x="-2" y="191.265" fill="#211915" width="360" height="2"/>
	</g>
</g>
<g>
	<path fill="#424242" d="M247.351,89.761c2.943-5.191,6.813-9.22,11.604-12.084c4.791-2.863,10.398-4.296,16.822-4.296
		c9.154,0,16.18,2.838,21.078,8.511c4.898,5.675,7.348,14.481,7.348,26.418v53.559h-9.636v-53.719c0-9.421-1.86-16.18-5.581-20.275
		s-8.846-6.143-15.377-6.143c-6.744,0-12.299,1.646-16.662,4.938c-4.363,3.292-7.562,7.696-9.596,13.209v61.99h-9.635V36.604h9.635
		V89.761z"/>
</g>
<g>
	<path fill="#424242" d="M247.335,312.469c6.593-7.228,14.867-10.842,24.822-10.842c14.963,0,22.444,9.638,22.444,28.912v22.825
		c0,6.848,2.753,10.271,8.26,10.271c4.43,0,8.512-2.54,12.246-7.619c2.278-3.048,5.506-8.19,9.683-15.43l9.456-16.238l5.816,3.425
		l-9.416,16.175c-5.39,9.259-9.004,14.996-10.842,17.215c-5.073,6.086-10.716,9.13-16.929,9.13c-4.503,0-8.147-1.648-10.938-4.945
		c-2.662-3.106-3.994-6.943-3.994-11.508v-23.396c0-8.306-1.393-14.012-4.176-17.119c-3.037-3.36-7.307-5.041-12.81-5.041
		c-8.604,0-15.53,3.994-20.78,11.983c-2.595,3.995-3.891,8.369-3.891,13.124v35.95h-6.657v-43.653l-1.141,2.092l-5.802-3.42
		l6.942-11.878v-66.608c0-8.868,1.99-15.615,5.973-20.239c2.085-2.407,4.675-3.61,7.771-3.61c9.858,0,14.788,8.172,14.788,24.512
		c0,14.313-3.933,30.306-11.793,47.977C253.198,301.544,250.187,307.529,247.335,312.469z M246.288,300.391
		c10.144-19.629,15.217-37.58,15.217-53.854c0-11.903-2.727-17.856-8.179-17.856c-4.692,0-7.038,5.858-7.038,17.571V300.391z"/>
</g>
</svg>
