<?xml version="1.0" encoding="utf-8"?>
<!-- Generator: Adobe Illustrator 17.0.0, SVG Export Plug-In . SVG Version: 6.00 Build 0)  -->
<!DOCTYPE svg PUBLIC "-//W3C//DTD SVG 1.1//EN" "http://www.w3.org/Graphics/SVG/1.1/DTD/svg11.dtd">
<svg version="1.1" id="Capa_1" xmlns="http://www.w3.org/2000/svg" xmlns:xlink="http://www.w3.org/1999/xlink" x="0px" y="0px"
	 width="357.496px" height="385.294px" viewBox="0 0 357.496 385.294" enable-background="new 0 0 357.496 385.294"
	 xml:space="preserve">
<g>
	<rect x="0" y="0" fill="#FFFFFF" width="171.081" height="184.136"/>
</g>
<g>
	<rect x="185.467" y="0" fill="#FFFFFF" width="172.029" height="184.136"/>
</g>
<g>
	<rect x="0" y="201.147" fill="#FFFFFF" width="171.081" height="184.147"/>
</g>
<g>
	<rect x="185.467" y="201.147" fill="#FFFFFF" width="172.029" height="184.147"/>
</g>
<g>
	<path fill="#424242" d="M90.924,163.94H79.684V27.552h11.241V163.94z"/>
</g>
<g>
	<path fill="#424242" d="M92.991,352.579c12.768-3.914,23.82-10.058,33.156-18.43c5.299-4.758,9.577-10.028,12.829-15.811
		l5.511,3.253c-8.433,14.576-22.165,25.898-41.196,33.969c-10.119,4.277-21.02,6.414-32.704,6.414
		c-8.794,0-16.307-3.146-22.541-9.44c-6.233-6.293-9.351-13.777-9.351-22.45c0-3.915,0.692-7.589,2.078-11.022l5.962,1.897
		c-1.145,3.071-1.716,6.113-1.716,9.125c0,10.118,4.396,17.558,13.19,22.314c3.915,2.168,8.041,3.252,12.377,3.252
		c7.467,0,13.732-2.8,18.792-8.401c4.396-4.879,6.595-10.601,6.595-17.165v-99.468c-6.565,4.819-14.335,7.317-23.308,7.498
		c-12.829,0.303-23.34-4.124-31.53-13.28l4.698-4.246c6.866,7.71,15.75,11.444,26.651,11.203c4.215-0.12,8.492-0.994,12.829-2.62
		c4.817-1.866,8.402-4.275,10.75-7.228h6.234v108.141C102.297,338.878,99.194,346.377,92.991,352.579z"/>
</g>
<g>
	<g>
		<rect x="176.516" y="0" fill="#211915" width="2" height="389.365"/>
	</g>
	<g>
		<rect x="-2.504" y="191.265" fill="#211915" width="360" height="2"/>
	</g>
</g>
<g>
	<path fill="#424242" d="M271.175,44.012h-10.416V29.307h10.416V44.012z M271.175,165.855h-10.416V71.147h10.416V165.855z"/>
</g>
<g>
	<path fill="#424242" d="M244.267,314.212l-6.654-3.927c4.871-8.145,7.891-16.399,9.055-24.764h8.291v58.036
		c0,7.854,3.121,11.781,9.364,11.781c5.081,0,9.8-2.912,14.156-8.738c2.54-3.497,6.206-9.396,10.998-17.699l10.846-18.627
		l6.672,3.929l-10.801,18.555c-6.182,10.619-10.327,17.2-12.436,19.745c-5.819,6.981-12.292,10.473-19.418,10.473
		c-5.165,0-9.347-1.891-12.546-5.673c-2.982-3.563-4.473-7.963-4.473-13.199v-35.128
		C245.721,311.886,244.704,313.631,244.267,314.212z M251.14,251.595c4.509,0,6.764,2.255,6.764,6.763
		c0,4.511-2.255,6.764-6.764,6.764c-1.745,0-3.311-0.69-4.691-2.072c-1.382-1.381-2.072-2.945-2.072-4.691
		C244.376,253.85,246.629,251.595,251.14,251.595z"/>
</g>
</svg>
