<?xml version="1.0" encoding="utf-8"?>
<!-- Generator: Adobe Illustrator 17.0.0, SVG Export Plug-In . SVG Version: 6.00 Build 0)  -->
<!DOCTYPE svg PUBLIC "-//W3C//DTD SVG 1.1//EN" "http://www.w3.org/Graphics/SVG/1.1/DTD/svg11.dtd">
<svg version="1.1" id="Capa_1" xmlns="http://www.w3.org/2000/svg" xmlns:xlink="http://www.w3.org/1999/xlink" x="0px" y="0px"
	 width="357.496px" height="385.294px" viewBox="0 0 357.496 385.294" enable-background="new 0 0 357.496 385.294"
	 xml:space="preserve">
<g>
	<rect x="0.504" y="-3.072" fill="#FFFFFF" width="171.081" height="184.136"/>
</g>
<g>
	<rect x="185.971" y="-3.072" fill="#FFFFFF" width="172.029" height="184.136"/>
</g>
<g>
	<rect x="0.504" y="198.075" fill="#FFFFFF" width="171.081" height="184.147"/>
</g>
<g>
	<rect x="185.971" y="198.075" fill="#FFFFFF" width="172.029" height="184.147"/>
</g>
<g>
	<path fill="#424242" d="M92.855,144.569h0.562L144.189,24.48h13.676v136.389h-11.241V46.306l-0.563-0.093L97.165,160.869h-8.056
		L39.087,43.402l-0.562,0.094v117.373H27.284V24.48h14.988L92.855,144.569z"/>
</g>
<g>
	<path fill="#424242" d="M39.167,254.941v6.526c2.31-4.895,5.661-9.063,10.055-12.509c4.8-3.762,10.189-5.643,16.168-5.643
		c6.204,0,11.368,2.946,15.489,8.838c2.082,2.991,3.555,6.662,4.416,11.014c1.856-5.529,5.377-10.22,10.563-14.073
		c5.187-3.852,10.654-5.778,16.406-5.778c7.608,0,13.428,4.121,17.459,12.364c2.129,4.304,3.193,9.421,3.193,15.354v58.767
		c0,9.783,3.189,14.675,9.57,14.675c3.168,0,6.086-1.809,8.756-5.424c1.63-2.169,3.938-5.831,6.924-10.983l6.76-11.608l4.157,2.454
		l-6.73,11.557c-2.312,3.989-3.739,6.391-4.283,7.206c-1.723,2.72-3.377,4.963-4.963,6.73c-2.991,3.219-6.526,4.827-10.604,4.827
		c-9.563,0-14.345-6.459-14.345-19.375v-58.737c0-9.155-2.584-15.841-7.75-20.056c-2.403-1.993-5.122-2.991-8.158-2.991
		c-10.561,0-18.243,5.982-23.046,17.947c-2.131,5.349-3.195,10.787-3.195,16.316v66.283h-4.759v-77.568
		c0-5.711-1.199-10.718-3.598-15.024c-2.896-5.303-6.991-7.954-12.285-7.954c-10.544,0-18.213,5.982-23.009,17.947
		c-2.127,5.349-3.19,10.787-3.19,16.316v66.283h-4.759v-93.681c0-1.903-0.68-3.523-2.038-4.86c-1.359-1.337-2.967-2.006-4.824-2.006
		c-3.533,0-5.754,1.701-6.659,5.101l-3.685,14.068l-4.616-1.155l3.739-14.274c0.634-2.447,2.039-4.487,4.215-6.118
		c1.993-1.586,4.327-2.38,7.002-2.38c3.264,0,6.017,1.134,8.26,3.399C38.046,248.982,39.167,251.724,39.167,254.941z
		 M39.167,282.339c0-12.6,4.124-22.366,12.373-29.301c3.987-3.308,8.61-4.963,13.868-4.963c-10.561,0-18.242,5.982-23.046,17.947
		C40.231,271.371,39.167,276.81,39.167,282.339z"/>
</g>
<g>
	<g>
		<rect x="177.02" y="-3.072" fill="#211915" width="2" height="389.366"/>
	</g>
	<g>
		<rect x="-2" y="188.193" fill="#211915" width="360" height="2"/>
	</g>
</g>
<g>
	<path fill="#424242" d="M223.437,71.915l0.883,14.293c2.783-5.031,6.49-8.939,11.121-11.724c4.63-2.783,10.131-4.175,16.502-4.175
		c6.637,0,12.178,1.593,16.621,4.777c4.443,3.186,7.629,8.044,9.556,14.574c2.622-6.049,6.356-10.786,11.202-14.213
		c4.844-3.425,10.691-5.139,17.545-5.139c9.26,0,16.42,3.079,21.479,9.234c5.059,6.157,7.588,15.686,7.588,28.586v50.668h-9.636
		v-50.829c0-10.706-1.9-18.268-5.701-22.684c-3.801-4.417-9.047-6.625-15.738-6.625c-7.335,0-13.008,2.236-17.023,6.705
		c-4.015,4.47-6.559,10.238-7.628,17.304c0,0.59,0.013,1.178,0.04,1.767c0.026,0.59,0.04,1.339,0.04,2.249v52.113h-9.716v-50.829
		c0-10.492-1.915-18-5.742-22.524c-3.827-4.523-9.087-6.785-15.777-6.785c-6.746,0-12.113,1.7-16.1,5.099
		c-3.989,3.4-6.786,7.99-8.393,13.771v61.268h-9.635V71.915H223.437z"/>
</g>
<g>
	<path fill="#424242" d="M199.788,311.116l-5.221-3.135l9.353-16.323c1.823-3.176,4.882-4.765,9.176-4.765
		c3.059,0,5.617,1.03,7.678,3.089c2.058,2.06,3.088,4.618,3.088,7.676c5.293-7.176,12.322-10.765,21.088-10.765
		c8.764,0,14.382,4.383,16.852,13.147c0.295-0.354,0.795-1.029,1.5-2.03c5.353-7.411,12.441-11.117,21.265-11.117
		c12.294,0,18.44,8.942,18.44,26.823v21.176c0,6.354,2.584,9.529,7.752,9.529c4.109,0,7.926-2.355,11.449-7.068
		c2.055-2.827,5.02-7.599,8.895-14.314l8.773-15.065l5.396,3.178l-8.735,15.006c-5,8.59-8.354,13.912-10.059,15.971
		c-4.707,5.647-9.941,8.471-15.705,8.471c-4.178,0-7.56-1.529-10.147-4.588c-2.53-2.882-3.794-6.441-3.794-10.677v-21.617
		c0-6.234-0.589-10.794-1.765-13.676c-1.823-4.646-5.324-6.971-10.5-6.971c-6.824,0-12.294,2.911-16.411,8.735
		c-1.118,1.471-2.559,3.853-4.324,7.146c-0.295,1.059-0.44,2.117-0.44,3.177v37.587h-6.177v-35.999
		c0-6.234-0.587-10.794-1.76-13.676c-1.818-4.646-5.31-6.971-10.473-6.971c-6.805,0-12.262,2.911-16.367,8.735
		c-1.115,1.471-2.553,3.853-4.313,7.146c-0.294,1.059-0.439,2.117-0.439,3.177v37.587h-6.177v-52.058
		c0-3.058-1.536-4.588-4.607-4.588c-1.949,0-3.248,0.553-3.897,1.657L199.788,311.116z"/>
</g>
</svg>
