<?xml version="1.0" encoding="utf-8"?>
<!-- Generator: Adobe Illustrator 17.0.0, SVG Export Plug-In . SVG Version: 6.00 Build 0)  -->
<!DOCTYPE svg PUBLIC "-//W3C//DTD SVG 1.1//EN" "http://www.w3.org/Graphics/SVG/1.1/DTD/svg11.dtd">
<svg version="1.1" id="Capa_1" xmlns="http://www.w3.org/2000/svg" xmlns:xlink="http://www.w3.org/1999/xlink" x="0px" y="0px"
	 width="357.496px" height="385.294px" viewBox="0 0 357.496 385.294" enable-background="new 0 0 357.496 385.294"
	 xml:space="preserve">
<g>
	<rect x="0" y="0" fill="#FFFFFF" width="171.081" height="184.136"/>
</g>
<g>
	<rect x="185.467" y="0" fill="#FFFFFF" width="172.029" height="184.136"/>
</g>
<g>
	<rect x="0" y="201.147" fill="#FFFFFF" width="171.081" height="184.147"/>
</g>
<g>
	<rect x="185.467" y="201.147" fill="#FFFFFF" width="172.029" height="184.147"/>
</g>
<g>
	<path fill="#424242" d="M139.545,167.243h-10.527L56.472,57.941l-0.526,0.088v109.214H45.419V39.52h10.526l72.546,109.039
		l0.526-0.088V39.52h10.527V167.243z M120.509,7.414c0,5.146-1.609,9.416-4.824,12.807c-3.218,3.393-7.224,5.088-12.019,5.088
		c-4.328,0-8.743-1.607-13.246-4.824c-4.504-3.216-8.333-4.825-11.491-4.825c-2.75,0-5.06,1.024-6.93,3.07
		c-1.873,2.048-2.808,4.649-2.808,7.808l-7.018-1.579c0-5.029,1.579-9.255,4.737-12.676c3.157-3.421,7.163-5.132,12.018-5.132
		c3.801,0,8.1,1.609,12.896,4.825c4.794,3.217,8.741,4.824,11.842,4.824c2.689,0,5-1.053,6.931-3.158
		c1.93-2.105,2.895-4.766,2.895-7.982L120.509,7.414z"/>
</g>
<g>
	<path fill="#424242" d="M20.858,264.223l4.595-17.542c0.776-3.008,2.498-5.514,5.164-7.519c2.443-1.948,5.303-2.924,8.579-2.924
		c3.997,0,7.37,1.393,10.118,4.177c2.749,2.785,4.124,6.154,4.124,10.108v7.101c9.077-14.313,21.022-21.44,35.837-21.386
		c5.848,0,11.082,1.753,15.705,5.259c4.455,3.284,7.796,7.709,10.024,13.273c1.671,4.119,2.506,8.85,2.506,14.191v73.546
		c0,12.021,3.92,18.032,11.76,18.032c3.893,0,7.478-2.222,10.759-6.665c2.002-2.665,4.837-7.164,8.508-13.496l8.305-14.264
		l5.109,3.009l-8.27,14.207c-2.84,4.901-4.595,7.853-5.263,8.855c-2.117,3.341-4.149,6.098-6.098,8.27
		c-3.676,3.955-8.02,5.932-13.032,5.932c-11.751,0-17.626-7.937-17.626-23.808v-73.596c0-6.961-1.948-13.059-5.84-18.294
		c-4.337-5.792-9.843-8.659-16.515-8.604c-6.062,0-11.901,1.754-17.518,5.263c-5.229,3.287-9.566,7.631-13.013,13.031
		c-3.56,5.57-5.338,11.444-5.338,17.626v87.63h-5.848V250.523c0-2.34-0.832-4.33-2.493-5.974c-1.661-1.642-3.627-2.464-5.897-2.464
		c-4.32,0-7.034,2.09-8.141,6.268l-4.528,17.287L20.858,264.223z M102.919,216.318l3.062,4.905l-6.934,4.49
		c-1.895,1.226-3.983,1.838-6.268,1.838c-1.727,0-4.233-0.863-7.52-2.59c-4.625-2.394-7.466-3.592-8.523-3.592
		c-1.06,0-1.951,0.219-2.674,0.655l-6.934,4.427l-3.167-4.915l6.934-4.427c1.673-1.057,3.625-1.587,5.856-1.587
		c2.287,0,6.443,1.587,12.468,4.762c1.728,0.947,2.928,1.42,3.597,1.42c1.171,0,2.175-0.257,3.013-0.772L102.919,216.318z"/>
</g>
<g>
	<g>
		<rect x="176.516" y="0" fill="#211915" width="2" height="389.365"/>
	</g>
	<g>
		<rect x="-2.504" y="191.265" fill="#211915" width="360" height="2"/>
	</g>
</g>
<g>
	<path fill="#424242" d="M250.253,74.986l0.883,15.096c2.838-5.299,6.611-9.407,11.322-12.326c4.71-2.917,10.305-4.376,16.783-4.376
		c9.42,0,16.594,2.878,21.52,8.632c4.924,5.755,7.387,14.735,7.387,26.94v52.916h-9.635v-52.836c0-9.957-1.861-16.996-5.582-21.119
		c-3.721-4.122-9.006-6.183-15.858-6.183s-12.38,1.687-16.581,5.059c-4.203,3.373-7.24,7.896-9.114,13.57v61.508h-9.636V74.986
		H250.253z M301.163,41.421c0,4.711-1.474,8.62-4.417,11.724c-2.944,3.105-6.611,4.657-11,4.657c-3.963,0-8.004-1.472-12.125-4.417
		c-4.123-2.943-7.629-4.416-10.52-4.416c-2.517,0-4.631,0.937-6.344,2.81c-1.714,1.875-2.569,4.256-2.569,7.146l-6.424-1.445
		c0-4.603,1.445-8.471,4.336-11.603c2.892-3.131,6.558-4.697,11.001-4.697c3.479,0,7.414,1.473,11.804,4.417
		c4.389,2.944,8.003,4.416,10.841,4.416c2.461,0,4.576-0.963,6.344-2.891c1.766-1.927,2.648-4.362,2.648-7.307L301.163,41.421z"/>
</g>
<g>
	<path fill="#424242" d="M314.355,320.788v21.177c0,6.353,2.553,9.529,7.662,9.529c4.11,0,7.897-2.356,11.361-7.068
		c2.114-2.827,5.108-7.599,8.984-14.314l8.771-15.065l5.396,3.184l-8.734,15c-4.99,8.59-8.336,13.912-10.037,15.971
		c-4.695,5.646-9.918,8.471-15.67,8.471c-4.109,0-7.455-1.5-10.038-4.5c-2.582-3-3.872-6.588-3.872-10.765V320.7
		c0.058-7.705-1.232-12.999-3.875-15.882c-2.817-3.117-6.778-4.677-11.883-4.677c-8.1,0-14.557,3.707-19.367,11.118
		c-2.408,3.706-3.609,7.765-3.609,12.177v33.352h-6.177V304.73c0-3.058-1.536-4.589-4.606-4.589c-2.008,0-3.338,0.553-3.986,1.658
		l-9.393,16.389l-5.221-3.17l9.354-16.288c1.822-3.177,4.91-4.765,9.264-4.765c3.059,0,5.617,1.029,7.677,3.088
		c2.059,2.061,3.089,4.619,3.089,7.677v0.529c6.293-7.528,14.322-11.294,24.088-11.294
		C307.414,293.966,314.355,302.907,314.355,320.788z M308.297,273.542l3.234,5.182l-7.323,4.742
		c-2.002,1.295-4.208,1.941-6.621,1.941c-1.823,0-4.471-0.912-7.941-2.735c-4.885-2.528-7.887-3.794-9.003-3.794
		c-1.12,0-2.062,0.231-2.825,0.691l-7.323,4.677l-3.345-5.192l7.324-4.676c1.768-1.117,3.828-1.676,6.186-1.676
		c2.416,0,6.805,1.676,13.169,5.029c1.825,1,3.093,1.5,3.8,1.5c1.236,0,2.297-0.272,3.182-0.816L308.297,273.542z"/>
</g>
</svg>
