<?xml version="1.0" encoding="utf-8"?>
<!-- Generator: Adobe Illustrator 17.0.0, SVG Export Plug-In . SVG Version: 6.00 Build 0)  -->
<!DOCTYPE svg PUBLIC "-//W3C//DTD SVG 1.1//EN" "http://www.w3.org/Graphics/SVG/1.1/DTD/svg11.dtd">
<svg version="1.1" id="Capa_1" xmlns="http://www.w3.org/2000/svg" xmlns:xlink="http://www.w3.org/1999/xlink" x="0px" y="0px"
	 width="357.496px" height="385.294px" viewBox="0 0 357.496 385.294" enable-background="new 0 0 357.496 385.294"
	 xml:space="preserve">
<g>
	<rect x="2.504" y="0" fill="#FFFFFF" width="171.081" height="184.136"/>
</g>
<g>
	<rect x="187.971" y="0" fill="#FFFFFF" width="172.029" height="184.136"/>
</g>
<g>
	<rect x="2.504" y="201.147" fill="#FFFFFF" width="171.081" height="184.147"/>
</g>
<g>
	<rect x="187.971" y="201.147" fill="#FFFFFF" width="172.029" height="184.147"/>
</g>
<g>
	<path fill="#424242" d="M60.525,107.268v56.672H49.284V27.552h47.024c14.3,0,25.37,3.653,33.208,10.96
		c7.836,7.306,11.756,16.924,11.756,28.851c0,12.116-3.919,21.795-11.756,29.039c-7.838,7.245-18.908,10.866-33.208,10.866H60.525z
		 M60.525,97.713h35.783c11.241,0,19.671-2.857,25.292-8.571c5.621-5.714,8.431-12.911,8.431-21.592
		c0-8.742-2.81-16.002-8.431-21.779c-5.621-5.775-14.051-8.665-25.292-8.665H60.525V97.713z"/>
</g>
<g>
	<path fill="#424242" d="M73.994,354.928c14.575-1.324,29.12-4.576,43.636-9.757c23.669-8.432,38.364-17.376,44.087-26.832
		l5.511,3.253c-5.843,9.697-19.816,18.822-41.919,27.374c-22.586,8.673-44.238,13.009-64.957,13.009
		c-9.034,0-16.232-6.534-21.592-19.604c-4.698-11.322-7.047-23.549-7.047-36.679c0-15.298,3.794-31.379,11.383-48.243
		c5.299-11.623,12.723-20.628,22.27-27.013c9.545-6.383,20.612-9.576,33.201-9.576c8.251,0,15.84,2.289,22.767,6.866
		c6.564,4.396,11.819,10.375,15.765,17.933c3.944,7.56,5.917,15.464,5.917,23.715c0,13.371-4.713,24.83-14.139,34.376
		c-9.427,9.546-20.855,14.319-34.285,14.319H86.01v-6.324h8.583c12.346,0,22.555-4.427,30.626-13.28
		c7.648-8.371,11.473-18.068,11.473-29.091c0-10.961-3.645-20.733-10.931-29.316c-7.288-8.582-16.352-12.873-27.193-12.873
		c-19.093,0-34.21,8.401-45.352,25.205c-10.118,15.238-15.177,33.006-15.177,53.303c0,17.707,3.643,31.861,10.931,42.461
		c3.433,5,7.228,7.498,11.383,7.498c8.492,0,12.738-7.979,12.738-23.94v-74.262h6.324v74.262
		C79.415,342.25,77.608,349.99,73.994,354.928z"/>
</g>
<g>
	<g>
		<rect x="179.02" y="0" fill="#211915" width="2" height="389.365"/>
	</g>
	<g>
		<rect x="0" y="191.265" fill="#211915" width="360" height="2"/>
	</g>
</g>
<g>
	<path fill="#424242" d="M320.19,91.126c0,14.18-3.21,25.486-9.629,33.918c-6.42,8.433-15.261,12.648-26.521,12.648
		c-6.595,0-12.386-1.256-17.375-3.764s-9.06-6.068-12.211-10.679v49.017h-10.503V41.147h8.053l1.926,14.792
		c3.15-5.251,7.234-9.322,12.254-12.21c5.018-2.888,10.911-4.333,17.682-4.333c11.379,0,20.276,4.538,26.696,13.611
		c6.419,9.075,9.629,21.169,9.629,36.281V91.126z M309.686,89.288c0-12.02-2.394-21.824-7.178-29.41
		c-4.785-7.585-11.788-11.379-21.007-11.379c-6.945,0-12.62,1.663-17.025,4.989c-4.406,3.326-7.746,7.645-10.022,12.955v45.866
		c2.451,5.136,5.923,9.177,10.417,12.123c4.492,2.947,10.095,4.42,16.806,4.42c9.16,0,16.119-3.442,20.876-10.329
		c4.755-6.885,7.134-16.018,7.134-27.397V89.288z"/>
</g>
<g>
	<path fill="#424242" d="M253.401,237.321v9.92c6.053-7.285,13.758-10.929,23.118-10.929c13.227,0,19.84,8.52,19.84,25.557v20.177
		c0,6.053,2.405,9.079,7.217,9.079c3.916,0,7.524-2.245,10.825-6.734c2.014-2.694,4.866-7.24,8.56-13.639l8.357-14.355l5.142,3.028
		l-8.322,14.298c-4.765,8.184-7.959,13.255-9.584,15.217c-4.484,5.38-9.473,8.07-14.964,8.07c-3.98,0-7.203-1.457-9.668-4.372
		c-2.299-2.745-3.447-6.137-3.447-10.172v-20.681c0-7.342-1.261-12.386-3.783-15.132c-2.635-2.971-6.389-4.456-11.265-4.456
		c-7.734,0-13.928,3.531-18.579,10.593c-2.299,3.53-3.446,7.397-3.446,11.602V366.87h-5.885V255.396
		c-1.22,2.242-1.996,3.587-2.328,4.035l-5.07-3.026c3.754-6.276,6.08-12.639,6.978-19.084H253.401z"/>
</g>
</svg>
