<?xml version="1.0" encoding="utf-8"?>
<!-- Generator: Adobe Illustrator 17.0.0, SVG Export Plug-In . SVG Version: 6.00 Build 0)  -->
<!DOCTYPE svg PUBLIC "-//W3C//DTD SVG 1.1//EN" "http://www.w3.org/Graphics/SVG/1.1/DTD/svg11.dtd">
<svg version="1.1" id="Capa_1" xmlns="http://www.w3.org/2000/svg" xmlns:xlink="http://www.w3.org/1999/xlink" x="0px" y="0px"
	 width="357.496px" height="385.294px" viewBox="0 0 357.496 385.294" enable-background="new 0 0 357.496 385.294"
	 xml:space="preserve">
<g>
	<rect x="0" y="-3.072" fill="#FFFFFF" width="171.081" height="184.136"/>
</g>
<g>
	<rect x="185.467" y="-3.072" fill="#FFFFFF" width="172.029" height="184.136"/>
</g>
<g>
	<rect x="0" y="198.075" fill="#FFFFFF" width="171.081" height="184.147"/>
</g>
<g>
	<rect x="185.467" y="198.075" fill="#FFFFFF" width="172.029" height="184.147"/>
</g>
<g>
	<path fill="#424242" d="M123.686,127.708c0-6.993-2.779-12.77-8.337-17.33c-5.559-4.558-14.988-8.836-28.289-12.833
		c-14.552-3.996-25.62-8.977-33.208-14.941c-7.587-5.963-11.381-14.066-11.381-24.309c0-10.428,4.246-19,12.74-25.713
		c8.492-6.712,19.328-10.07,32.505-10.07c13.863,0,25.011,3.794,33.441,11.381s12.52,17.221,12.271,28.898l-0.188,0.562h-10.491
		c0-8.993-3.264-16.455-9.789-22.388c-6.526-5.932-14.941-8.899-25.245-8.899c-10.618,0-18.938,2.515-24.964,7.541
		c-6.027,5.027-9.04,11.194-9.04,18.5c0,6.932,2.731,12.631,8.197,17.095c5.463,4.466,15.096,8.634,28.898,12.505
		c14.363,4.185,25.323,9.337,32.879,15.456c7.556,6.121,11.334,14.239,11.334,24.355c0,10.617-4.418,19.156-13.254,25.62
		c-8.838,6.463-19.969,9.695-33.395,9.695c-13.427,0-25.137-3.419-35.127-10.257c-9.992-6.838-14.833-16.814-14.52-29.929
		l0.188-0.562h10.398c0,10.554,3.965,18.407,11.896,23.559c7.93,5.152,16.985,7.729,27.165,7.729
		c10.429,0,18.922-2.389,25.479-7.167C120.407,141.431,123.686,135.265,123.686,127.708z"/>
</g>
<g>
	<path fill="#424242" d="M118.921,320.68c0-10.219-1.12-19.109-3.358-26.673c-1.723-5.658-4.391-12.066-8.008-19.226l-23.059-45.463
		l-73.721,127.89l-5.256-3.015l75.402-130.452l7.441-0.003l24.499,48.304c6,11.831,9.694,22.248,11.079,31.251
		c0.692,4.848,1.039,10.647,1.039,17.399c0,10.907-4.099,20.083-12.293,27.527c16.158-4.385,29.692-12.089,40.6-23.112
		c3.116-3.117,5.482-6.117,7.099-9.003l5.28,3.116c-5.079,9.061-14.688,17.544-28.826,25.45
		c-15.582,8.772-31.856,13.158-48.823,13.158c-8.138,0-15.235-2.308-21.295-6.926c-5.657-4.328-9.754-9.896-12.293-16.707
		l5.714-2.077c2.134,6.003,5.741,10.777,10.82,14.326c5.078,3.55,10.791,5.324,17.141,5.324c11.483,0,20.313-5.08,26.488-15.242
		C117.478,331.736,118.921,326.453,118.921,320.68z"/>
</g>
<g>
	<g>
		<rect x="176.516" y="-3.072" fill="#211915" width="2" height="389.366"/>
	</g>
	<g>
		<rect x="-2.504" y="188.193" fill="#211915" width="360" height="2"/>
	</g>
</g>
<g>
	<path fill="#424242" d="M296.775,136.554c0-4.067-1.674-7.614-5.019-10.639c-3.347-3.024-9.382-5.5-18.107-7.428
		c-10.278-2.141-17.92-5.071-22.925-8.792c-5.006-3.72-7.508-8.926-7.508-15.618c0-6.637,2.797-12.258,8.391-16.863
		c5.594-4.603,12.994-6.905,22.203-6.905c9.688,0,17.424,2.449,23.205,7.347c5.782,4.898,8.539,10.934,8.271,18.107l-0.16,0.482
		h-8.914c0-4.764-2.047-8.913-6.143-12.446s-9.516-5.299-16.26-5.299c-6.96,0-12.205,1.525-15.738,4.577s-5.301,6.612-5.301,10.68
		c0,3.962,1.513,7.241,4.537,9.836c3.023,2.597,9.061,4.886,18.107,6.866c10.17,2.248,17.866,5.38,23.086,9.395
		c5.219,4.015,7.829,9.422,7.829,16.22c0,7.227-2.931,13.102-8.793,17.625c-5.862,4.524-13.61,6.785-23.246,6.785
		c-10.547,0-18.83-2.515-24.853-7.548c-6.021-5.031-8.873-11.027-8.551-17.987l0.16-0.481h8.832
		c0.375,6.263,2.932,10.813,7.669,13.65c4.737,2.838,10.318,4.256,16.742,4.256c6.958,0,12.446-1.552,16.461-4.657
		C294.767,144.612,296.775,140.891,296.775,136.554z"/>
</g>
<g>
	<path fill="#424242" d="M336.209,311.443l-2.646,4.345c-6.917,11.292-15.737,20.854-26.464,28.687
		c-13.057,9.526-26.746,14.29-41.071,14.29c-5.292,0-10.127-1.482-14.502-4.446c-4.376-2.964-7.552-6.88-9.526-11.749l6.563-3.493
		c3.033,8.187,8.855,12.278,17.466,12.278c7.198,0,12.703-3.175,16.514-9.528c1.763-2.964,2.646-6.247,2.646-9.848
		c0-7.764-2.119-14.115-6.356-19.057c-3.391-3.67-8.336-9.317-14.833-16.94c-1.624-2.047-2.967-3.987-4.025-5.823l-12.287,21.166
		l-6.428-3.687l14.502-24.981h8.362c2.117,3.946,5.574,8.701,10.374,14.267l9.95,11.307c5.433,6.2,8.15,14.126,8.15,23.779
		c0,5.565-1.481,10.497-4.445,14.794c16.44-6.844,29.46-18.453,39.058-34.827l2.527-4.349L336.209,311.443z"/>
</g>
</svg>
