<?xml version="1.0" encoding="utf-8"?>
<!-- Generator: Adobe Illustrator 17.0.0, SVG Export Plug-In . SVG Version: 6.00 Build 0)  -->
<!DOCTYPE svg PUBLIC "-//W3C//DTD SVG 1.1//EN" "http://www.w3.org/Graphics/SVG/1.1/DTD/svg11.dtd">
<svg version="1.1" id="Capa_1" xmlns="http://www.w3.org/2000/svg" xmlns:xlink="http://www.w3.org/1999/xlink" x="0px" y="0px"
	 width="357.496px" height="385.294px" viewBox="0 0 357.496 385.294" enable-background="new 0 0 357.496 385.294"
	 xml:space="preserve">
<g>
	<rect x="0" y="0" fill="#FFFFFF" width="171.081" height="184.136"/>
</g>
<g>
	<rect x="185.467" y="0" fill="#FFFFFF" width="172.029" height="184.136"/>
</g>
<g>
	<rect x="0" y="201.147" fill="#FFFFFF" width="171.081" height="184.147"/>
</g>
<g>
	<rect x="185.467" y="201.147" fill="#FFFFFF" width="172.029" height="184.147"/>
</g>
<g>
	<path fill="#424242" d="M139.517,37.106H93.055V163.94H81.907V37.106H33.853v-9.555h105.664V37.106z"/>
</g>
<g>
	<path fill="#424242" d="M140.565,325.096l5.41,3.192c-8.988,14.899-18.95,25.838-29.888,32.813
		c-7.271,4.554-15.284,6.829-24.033,6.829c-8.573,0-16.556-1.951-23.945-5.854c-7.392-3.901-13.274-9.459-17.648-16.673
		c-4.316-7.035-6.475-14.839-6.475-23.413c0-8.69,1.774-17.648,5.321-26.871H28.821v-6.208h23.324
		c4.021-8.908,9.282-17.079,15.786-24.514c5.439-6.252,11.559-11.769,18.358-16.548c-1.951,0.06-3.725,0.06-5.321,0
		c-15.668-0.416-27.612-5.229-35.829-14.438l4.878-3.742c6.917,7.565,17.294,11.557,31.129,11.973
		c7.33,0.177,14.247-1.242,20.752-4.257l17.56-8.248l2.927,5.587c-22.408,10.17-38.992,21.404-49.753,33.701
		c-6.563,7.509-11.116,14.338-13.657,20.486h21.994v6.208H56.136c-3.962,8.928-5.942,17.885-5.942,26.871
		c0,14.664,6.267,25.927,18.802,33.79c6.326,3.961,14.013,5.941,23.059,5.941C109.792,361.723,125.961,349.515,140.565,325.096z"/>
</g>
<g>
	<g>
		<rect x="176.516" y="0" fill="#211915" width="2" height="389.365"/>
	</g>
	<g>
		<rect x="-2.504" y="191.265" fill="#211915" width="360" height="2"/>
	</g>
</g>
<g>
	<path fill="#424242" d="M261.227,53.744v22.243h19.111v7.869h-19.111v56.61c0,5.675,1.03,9.704,3.092,12.085
		c2.06,2.383,4.804,3.573,8.23,3.573c1.177,0,2.315-0.066,3.413-0.201c1.096-0.133,2.395-0.361,3.895-0.683l1.445,7.146
		c-1.285,0.643-2.879,1.165-4.778,1.566c-1.901,0.401-3.788,0.602-5.661,0.602c-6.103,0-10.854-1.927-14.252-5.781
		c-3.4-3.854-5.1-9.957-5.1-18.308v-56.61h-15.016v-7.869h15.016V53.744H261.227z"/>
</g>
<g>
	<path fill="#424242" d="M305.737,317.083l5.849,3.445l-12.148,20.766c-4.975,8.547-10.301,14.669-15.976,18.367
		c-3.7,2.425-7.718,3.635-12.054,3.635c-4.592,0-8.578-1.626-11.957-4.878c-3.381-3.253-5.07-7.143-5.07-11.671v-30.803
		c-1.403,2.552-2.296,4.082-2.678,4.592l-5.836-3.444c4.463-7.396,7.206-14.636,8.227-21.715l0.287-33.194h-22.959v-6.696h22.959
		v-40.464h6.696v40.464h23.054v6.696h-23.054v84.086c0,2.616,1.019,4.991,3.056,7.127c2.037,2.138,4.328,3.204,6.875,3.204
		c7.767,0,15.279-6.229,22.537-18.687L305.737,317.083z"/>
</g>
</svg>
