<?xml version="1.0" encoding="utf-8"?>
<!-- Generator: Adobe Illustrator 17.0.0, SVG Export Plug-In . SVG Version: 6.00 Build 0)  -->
<!DOCTYPE svg PUBLIC "-//W3C//DTD SVG 1.1//EN" "http://www.w3.org/Graphics/SVG/1.1/DTD/svg11.dtd">
<svg version="1.1" id="Capa_1" xmlns="http://www.w3.org/2000/svg" xmlns:xlink="http://www.w3.org/1999/xlink" x="0px" y="0px"
	 width="357.496px" height="385.294px" viewBox="0 0 357.496 385.294" enable-background="new 0 0 357.496 385.294"
	 xml:space="preserve">
<g>
	<rect x="2.504" y="0" fill="#FFFFFF" width="171.081" height="184.136"/>
</g>
<g>
	<rect x="187.971" y="0" fill="#FFFFFF" width="172.029" height="184.136"/>
</g>
<g>
	<rect x="2.504" y="201.147" fill="#FFFFFF" width="171.081" height="184.147"/>
</g>
<g>
	<rect x="187.971" y="201.147" fill="#FFFFFF" width="172.029" height="184.147"/>
</g>
<g>
	<path fill="#424242" d="M50.28,123.638l3.93,20.52h0.523l4.453-20.52L85.73,33.003h10.565l26.632,90.635l4.278,20.606h0.523
		l4.191-20.606l22.44-90.635h11.352l-32.569,127.133h-9.954L94.462,62.604l-3.144-13.709h-0.524l-2.969,13.709L58.75,160.136h-9.954
		L16.227,33.003h11.351L50.28,123.638z"/>
</g>
<g>
	<path fill="#424242" d="M37.18,256.113l-0.574,17.508c-0.048,0.527-0.909,15.69-2.583,45.492
		c-1.101,19.135,3.707,28.701,14.423,28.701c7.558,0,14.661-5.813,21.311-17.437c6.361-11.193,9.543-22.146,9.543-32.862v-55.824
		h5.023v79.789c0,17.557,4.998,26.334,14.996,26.334c7.558,0,14.661-5.813,21.311-17.437c6.361-11.193,9.544-22.146,9.544-32.862
		c0-19.805-1.292-34.561-3.875-44.272c-1.196-4.592-2.727-8.442-4.593-11.552l5.238-0.79c3.875,5.502,9.806,8.252,17.795,8.252
		c7.366,0,13.321-2.75,17.867-8.252l3.73,3.41c-5.55,6.576-12.748,9.864-21.598,9.864c-4.879,0-9.567-1.22-14.063-3.659
		c2.486,8.372,3.922,18.968,4.305,31.787c0.096,3.636,0.168,8.707,0.216,15.212c0.047,7.989-1.938,16.767-5.956,26.333
		c-4.114,9.855-9.137,17.389-15.067,22.603c16.119-2.87,30.111-8.683,41.976-17.437c5.213-3.826,8.777-7.414,10.691-10.763
		l4.377,2.583c-4.259,7.511-13.395,14.614-27.41,21.311c-14.878,7.129-29.706,10.691-44.487,10.691
		c-13.346,0-20.02-10.379-20.02-31.141c-3.779,11.385-9.734,20.188-17.866,26.405c-4.114,3.157-8.443,4.735-12.987,4.735
		c-8.036,0-13.609-3.922-16.719-11.768c-2.296-5.74-3.205-13.154-2.727-22.243c0.144-2.773,0.431-8.012,0.861-15.714l1.722-33.079
		c0.144-3.014,0.334-7.725,0.574-14.135c0.287-6.554-2.778-9.83-9.195-9.83c-3.736,0-6.083,1.792-7.04,5.377l-3.862,14.856
		l-4.873-1.221l3.875-15.497c0.621-2.535,2.104-4.688,4.449-6.458c2.104-1.674,4.567-2.512,7.391-2.512
		c4.495,0,8.036,1.448,10.619,4.342C36.104,247.851,37.324,251.569,37.18,256.113z"/>
</g>
<g>
	<g>
		<rect x="179.02" y="0" fill="#211915" width="2" height="389.365"/>
	</g>
	<g>
		<rect x="0" y="191.265" fill="#211915" width="360" height="2"/>
	</g>
</g>
<g>
	<path fill="#424242" d="M242.956,131.684l3.372,15.899h0.482l4.015-15.899l18.469-58.698h8.271l18.469,58.698l4.015,16.381h0.481
		l3.774-16.381L319.8,72.986h10.279l-25.295,86.882h-8.189l-19.674-59.42l-3.453-14.052h-0.48l-3.453,14.052l-19.271,59.42h-8.271
		l-25.213-86.882h10.277L242.956,131.684z"/>
</g>
<g>
	<path fill="#424242" d="M281.742,348.494c9.176,0,14.912-5.528,17.205-16.588c1-4.882,1.5-10.353,1.5-16.411
		c0-1.883-0.176-3.706-0.529-5.471c-6.412-7.059-9.617-12.471-9.617-16.235c0-2.234,1.324-3.322,3.971-3.265
		c2.764,0.06,5.264,2.178,7.5,6.354c1.705,3.059,2.912,6.353,3.617,9.882c6.176,6.06,13.293,8.765,21.353,8.117
		c3.764-0.353,6.117-1.293,7.059-2.823l5.382,3.176c-2.471,4.002-7.146,6-14.029,6c-6.471,0-12.646-1.881-18.528-5.646
		c0,26.059-8.294,39.088-24.882,39.088c-10.001,0-17.088-4.883-21.264-14.647c-3.942,9.765-10.824,14.647-20.647,14.647
		c-7.823,0-13.94-3.172-18.353-9.515c-3.883-5.579-5.734-12.421-5.559-20.526c0.176-3.641,0.382-9.133,0.617-16.475l0.089-6.52
		c0.058-2.818-1.161-4.229-3.657-4.229c-2.023,0-3.688,1.1-4.997,3.297l-8.185,14.483l-5.22-3.169l8.382-14.436
		c2.47-4.234,5.823-6.353,10.058-6.353c6.646,0,9.912,3.671,9.795,11.013c-0.061,2.056-0.207,5.814-0.441,11.275
		c-0.177,4.699-0.266,8.43-0.266,11.189c0,6.402,1.324,11.746,3.971,16.033c3.177,5.17,7.766,7.753,13.765,7.753
		c8.94,0,14.559-5.528,16.853-16.588c1-4.882,1.5-10.353,1.5-16.411v-23.471h6.177v32.646c0,6.472,1.235,11.823,3.706,16.059
		C271.124,345.906,275.683,348.494,281.742,348.494z"/>
</g>
</svg>
