<?xml version="1.0" encoding="utf-8"?>
<!-- Generator: Adobe Illustrator 17.0.0, SVG Export Plug-In . SVG Version: 6.00 Build 0)  -->
<!DOCTYPE svg PUBLIC "-//W3C//DTD SVG 1.1//EN" "http://www.w3.org/Graphics/SVG/1.1/DTD/svg11.dtd">
<svg version="1.1" id="Capa_1" xmlns="http://www.w3.org/2000/svg" xmlns:xlink="http://www.w3.org/1999/xlink" x="0px" y="0px"
	 width="357.496px" height="385.294px" viewBox="0 0 357.496 385.294" enable-background="new 0 0 357.496 385.294"
	 xml:space="preserve">
<g>
	<rect x="1.252" y="0" fill="#FFFFFF" width="171.081" height="184.136"/>
</g>
<g>
	<rect x="186.719" y="0" fill="#FFFFFF" width="172.029" height="184.136"/>
</g>
<g>
	<rect x="1.252" y="201.147" fill="#FFFFFF" width="171.081" height="184.147"/>
</g>
<g>
	<rect x="186.719" y="201.147" fill="#FFFFFF" width="172.029" height="184.147"/>
</g>
<g>
	<path fill="#424242" d="M89.436,85.817l38.499-58.265h13.583L96.18,94.81l46.837,69.131h-13.396l-39.999-60.139L49.718,163.94
		H36.135L82.972,94.81L37.541,27.552h13.583L89.436,85.817z"/>
</g>
<g>
	<path fill="#424242" d="M77.709,295.277c4.828,14.099,7.298,21.285,7.41,21.563c3.053,8.159,6.299,15.014,9.741,20.563
		c6.66,10.822,15.458,16.233,26.393,16.233c16.651,0,31.832-11.464,45.543-34.396l5.079,2.998
		c-8.436,13.991-17.813,24.264-28.136,30.814c-6.825,4.276-14.316,6.413-22.474,6.413c-12.653,0-22.53-5.271-29.633-15.813
		c-3.773-5.491-7.271-12.428-10.488-20.807c-0.611-1.441-3.192-8.794-7.741-22.054l-46.318,59.203l-4.536-3.527l48.629-62.301
		c-5.663-16.654-10.632-28.841-14.906-36.559c-8.16-14.768-18.625-22.151-31.394-22.151c-6.329,0-11.436,1.333-15.321,3.998
		l-3.415-4.747c4.889-3.386,11.14-5.08,18.751-5.08c15.889,0,28.39,9.028,37.502,27.082c4.223,8.39,8.584,19.084,13.084,32.084
		l46.596-59.831l4.617,3.692L77.709,295.277z"/>
</g>
<g>
	<g>
		<rect x="177.768" y="0" fill="#211915" width="2" height="389.365"/>
	</g>
	<g>
		<rect x="-1.252" y="191.265" fill="#211915" width="360" height="2"/>
	</g>
</g>
<g>
	<path fill="#424242" d="M268.765,110.478l23.527-35.492h11.402l-29.47,42.638l30.674,44.244h-11.241l-24.732-37.018l-24.731,37.018
		h-11.402l30.754-44.244l-29.469-42.638h11.321L268.765,110.478z"/>
</g>
<g>
	<path fill="#424242" d="M331.359,311.046l5.395,3.178l-11.559,19.418c-3.88,6.529-7.377,11.176-10.491,13.941
		c-4.586,4.059-9.904,6.088-15.958,6.088c-5.525,0-10.522-1.836-14.989-5.506s-9.815-10.495-16.046-20.479l-25.878,26.003
		l-4.43-4.43l26.956-26.954c-5.181-8.397-8.596-13.624-10.244-15.679c-5.3-6.813-10.157-10.219-14.571-10.219
		c-5.771,0-10.628,2.605-14.571,7.814c-1.943,2.517-4.063,5.883-6.359,10.097l-5.298-3.165c3.532-6.622,6.916-11.457,10.155-14.506
		c4.591-4.336,9.948-6.475,16.072-6.417c5.65,0,10.772,2.585,15.364,7.752c3.649,4.111,8.3,10.72,13.952,19.822l27.572-27.574
		l4.474,4.386l-28.613,28.739c3.645,5.815,6.26,9.81,7.847,11.981c3.644,4.875,6.993,8.192,10.05,9.954
		c2.527,1.47,5.378,2.203,8.552,2.203c5.407,0,10.286-2.588,14.636-7.765c2.233-2.589,4.408-5.678,6.524-9.266L331.359,311.046z"/>
</g>
</svg>
