<?xml version="1.0" encoding="utf-8"?>
<!-- Generator: Adobe Illustrator 17.0.0, SVG Export Plug-In . SVG Version: 6.00 Build 0)  -->
<!DOCTYPE svg PUBLIC "-//W3C//DTD SVG 1.1//EN" "http://www.w3.org/Graphics/SVG/1.1/DTD/svg11.dtd">
<svg version="1.1" id="Capa_1" xmlns="http://www.w3.org/2000/svg" xmlns:xlink="http://www.w3.org/1999/xlink" x="0px" y="0px"
	 width="357.496px" height="385.294px" viewBox="0 0 357.496 385.294" enable-background="new 0 0 357.496 385.294"
	 xml:space="preserve">
<g>
	<rect x="1.252" y="2.242" fill="#FFFFFF" width="171.081" height="184.136"/>
</g>
<g>
	<rect x="186.719" y="2.242" fill="#FFFFFF" width="172.029" height="184.136"/>
</g>
<g>
	<rect x="1.252" y="203.389" fill="#FFFFFF" width="171.081" height="184.147"/>
</g>
<g>
	<rect x="186.719" y="203.389" fill="#FFFFFF" width="172.029" height="184.147"/>
</g>
<g>
	<path fill="#424242" d="M89.154,105.575l42.247-75.782h13.021l-49.741,86.554v49.834H83.534v-50.303L34.168,29.793h13.021
		L89.154,105.575z"/>
</g>
<g>
	<path fill="#424242" d="M115.713,303.904c-3.655,6.36-8.188,11.51-13.598,15.449c-6.076,4.462-12.437,6.692-19.081,6.692
		c-10.537,0-17.941-5.149-22.214-15.449c-1.851-4.415-2.776-8.853-2.776-13.314v-70.057c0-1.994-0.705-3.69-2.113-5.091
		c-1.408-1.399-3.076-2.101-5.001-2.101c-3.664,0-5.965,1.781-6.903,5.342l-3.859,14.733l-4.835-1.21l3.916-14.949
		c0.664-2.563,2.136-4.699,4.414-6.408c2.089-1.66,4.532-2.491,7.334-2.491c3.417,0,6.301,1.187,8.65,3.56
		c2.349,2.374,3.523,5.245,3.523,8.615v70.057c0,8.925,3.204,15.734,9.612,20.434c3.036,2.231,6.454,3.347,10.252,3.347
		c5.554,0,10.964-1.946,16.232-5.839c4.746-3.464,8.639-7.831,11.677-13.1c3.179-5.601,4.77-11.153,4.77-16.66v-69.772h4.984
		v103.021c6.075-5.126,10.868-9.065,14.382-11.818c7.262-5.648,11.984-10.727,14.168-15.236l4.343,2.561
		c-2.374,4.933-7.523,10.458-15.449,16.577c-5.127,3.984-11.013,8.94-17.657,14.868v36.425c0,10.008-2.753,16.979-8.259,20.917
		c-2.469,1.706-5.126,2.561-7.974,2.561c-4.604,0-8.046-2.751-10.324-8.252c-1.044-2.515-1.565-5.288-1.565-8.322
		c0-6.213,2.193-13.776,6.581-22.692c4.575-9.342,10.094-17.001,16.558-22.976L115.713,303.904z M115.501,330.531
		c-7.595,8.152-12.982,17.418-16.162,27.798c-1.329,4.407-1.993,7.963-1.993,10.665c0,2.416,0.545,4.811,1.638,7.181
		c1.328,2.938,3.085,4.407,5.269,4.407c4.033,0,7.048-2.228,9.042-6.682c1.471-3.318,2.207-7.252,2.207-11.803V330.531z"/>
</g>
<g>
	<g>
		<rect x="177.768" y="2.242" fill="#211915" width="2" height="389.365"/>
	</g>
	<g>
		<rect x="-1.252" y="193.507" fill="#211915" width="360" height="2"/>
	</g>
</g>
<g>
	<path fill="#424242" d="M270.645,140.583l3.052,10.358h0.481l26.258-73.713h10.76l-37.74,100.774
		c-2.248,5.888-5.167,10.893-8.752,15.016c-3.587,4.122-8.833,6.183-15.738,6.183c-1.124,0-2.489-0.121-4.095-0.361
		c-1.606-0.241-2.784-0.496-3.533-0.763l1.124-8.03c0.643,0.106,1.673,0.227,3.092,0.361c1.417,0.133,2.449,0.201,3.091,0.201
		c4.175,0,7.521-1.486,10.037-4.457c2.516-2.971,4.657-6.785,6.424-11.443l4.577-11.723l-33.564-85.758h10.68L270.645,140.583z"/>
</g>
<g>
	<path fill="#424242" d="M298.755,249.332v53.558c7.577-6.353,13.558-11.234,17.939-14.646c9.058-7,14.949-13.293,17.673-18.882
		l5.417,3.173c-2.942,6.113-9.324,12.961-19.146,20.544c-6.354,4.938-13.648,11.08-21.882,18.427v45.142
		c0,12.402-3.441,21.042-10.324,25.921c-3,2.115-6.264,3.174-9.794,3.174c-5.706,0-9.97-3.409-12.793-10.226
		c-1.295-3.116-1.941-6.553-1.941-10.313c0-7.698,2.719-17.072,8.156-28.119c5.67-11.578,12.51-21.068,20.52-28.472v-14.545
		c-6.62,11.941-14.618,17.911-23.993,17.911c-7.792,0-13.183-2.97-16.17-8.911c-2.872-5.705-4.307-12.676-4.307-20.911v-22.941
		c0-3.176-1.566-4.765-4.695-4.765c-2.007,0-3.336,0.553-3.986,1.657l-9.392,16.39l-5.221-3.17l9.353-16.288
		c1.823-3.177,4.911-4.765,9.265-4.765c3.117,0,5.705,1.045,7.765,3.132c2.058,2.089,3.088,4.691,3.088,7.809v23.029
		c0,11.294,2.225,18.44,6.675,21.44c2.166,1.412,4.712,2.118,7.641,2.118c8.197,0,15.019-6.117,20.464-18.353
		c2.341-5.235,3.513-10.176,3.513-14.823v-23.294H298.755z M292.579,317.536c-9.412,10.104-16.089,21.586-20.029,34.45
		c-1.647,5.462-2.471,9.868-2.471,13.217c0,2.994,0.676,5.962,2.029,8.899c1.646,3.641,3.823,5.462,6.529,5.462
		c4.999,0,8.735-2.761,11.206-8.281c1.822-4.112,2.735-8.987,2.735-14.626V317.536z"/>
</g>
</svg>
