<?xml version="1.0" encoding="utf-8"?>
<!-- Generator: Adobe Illustrator 17.0.0, SVG Export Plug-In . SVG Version: 6.00 Build 0)  -->
<!DOCTYPE svg PUBLIC "-//W3C//DTD SVG 1.1//EN" "http://www.w3.org/Graphics/SVG/1.1/DTD/svg11.dtd">
<svg version="1.1" id="Capa_1" xmlns="http://www.w3.org/2000/svg" xmlns:xlink="http://www.w3.org/1999/xlink" x="0px" y="0px"
	 width="357.496px" height="385.294px" viewBox="0 0 357.496 385.294" enable-background="new 0 0 357.496 385.294"
	 xml:space="preserve">
<g>
	<rect x="0" y="0" fill="#FFFFFF" width="171.081" height="184.136"/>
</g>
<g>
	<rect x="185.467" y="0" fill="#FFFFFF" width="172.029" height="184.136"/>
</g>
<g>
	<rect x="0" y="201.147" fill="#FFFFFF" width="171.081" height="184.147"/>
</g>
<g>
	<rect x="185.467" y="201.147" fill="#FFFFFF" width="172.029" height="184.147"/>
</g>
<g>
	<path fill="#424242" d="M42.78,163.94V27.552h39.811c14.176,0,25.229,2.983,33.161,8.946c7.93,5.964,11.896,14.941,11.896,26.931
		c0,6.808-1.92,12.772-5.761,17.892c-3.841,5.121-9.009,8.744-15.503,10.866c8.618,1.063,15.658,4.81,21.123,11.241
		c5.464,6.433,8.197,13.958,8.197,22.575c0,12.178-3.951,21.545-11.85,28.102c-7.9,6.557-18.47,9.836-31.708,9.836H42.78z
		 M54.021,88.721h32.786c9.429-0.188,16.721-2.45,21.873-6.792c5.152-4.34,7.728-10.632,7.728-18.875
		c0-8.618-2.873-15.096-8.618-19.438c-5.746-4.34-14.145-6.51-25.198-6.51h-28.57V88.721z M54.021,98.182v56.298h38.125
		c10.054,0,17.953-2.482,23.7-7.447c5.745-4.964,8.618-11.911,8.618-20.842c0-8.18-2.826-14.815-8.477-19.906
		c-5.653-5.089-13.224-7.79-22.716-8.103h-1.499H54.021z"/>
</g>
<g>
	<path fill="#424242" d="M117.091,347.031c9.912-2.895,19.143-7.295,27.692-13.198c8.548-5.902,14.464-11.807,17.751-17.71
		l5.096,3.007c-4.901,8.744-14.173,16.931-27.817,24.56c-15.037,8.466-30.741,12.698-47.114,12.698
		c-10.415,0-19.38-3.926-26.898-11.779l4.26-4.01c6.182,6.629,13.728,9.941,22.638,9.941c12.196,0,21.135-5.317,26.815-15.956
		c2.561-4.732,3.843-9.661,3.843-14.785c0-11.416-4.874-20.049-14.619-25.896c-4.678-2.84-10.024-4.26-16.039-4.26H81.087v-5.096
		h4.427c7.239,0,13.337-2.632,18.294-7.895c4.956-5.263,7.435-11.541,7.435-18.837c0-9.912-4.26-17.431-12.781-22.555
		c-4.01-2.34-8.326-3.509-12.948-3.509c-19.547,0-34.195,8.771-43.94,26.313c-7.964,14.368-11.945,29.795-11.945,46.279
		c0,16.819,3.479,30.018,10.442,39.596c3.174,4.4,6.543,6.6,10.108,6.6c8.241,0,12.363-7.573,12.363-22.722v-67.581h5.847v67.581
		c0,19.046-6.07,28.569-18.21,28.569c-6.127,0-11.444-3.452-15.956-10.358c-3.23-4.956-5.736-11.165-7.518-18.629
		c-1.95-8.131-2.924-15.815-2.924-23.056c0-14.256,3.508-29.126,10.525-44.608c4.845-10.747,11.681-19.073,20.508-24.978
		c8.826-5.902,19.059-8.854,30.699-8.854c12.084,0,21.189,5.318,27.316,15.955c2.84,4.958,4.26,10.275,4.26,15.956
		c0,11.473-4.874,20.411-14.619,26.814c7.963,2.229,14.41,6.586,19.338,13.073c4.929,6.488,7.393,13.854,7.393,22.096
		C129.204,330.604,125.166,339.68,117.091,347.031z"/>
</g>
<g>
	<g>
		<rect x="176.516" y="0" fill="#211915" width="2" height="389.365"/>
	</g>
	<g>
		<rect x="-2.504" y="191.265" fill="#211915" width="360" height="2"/>
	</g>
</g>
<g>
	<path fill="#424242" d="M311.761,120.836c0,13.008-2.944,23.38-8.832,31.115c-5.89,7.736-14,11.603-24.33,11.603
		c-6.318,0-11.792-1.272-16.422-3.814c-4.631-2.542-8.391-6.169-11.281-10.88l-1.605,13.008h-7.549V36.604h9.636v51.712
		c2.891-4.764,6.585-8.444,11.081-11.041c4.497-2.596,9.822-3.894,15.979-3.894c10.438,0,18.602,4.163,24.491,12.486
		c5.888,8.324,8.832,19.419,8.832,33.283V120.836z M302.045,119.15c0-11.081-2.142-20.087-6.424-27.02
		c-4.283-6.932-10.627-10.399-19.03-10.399c-6.639,0-11.992,1.62-16.06,4.858c-4.069,3.239-7.12,7.427-9.154,12.566v39.748
		c2.141,5.033,5.313,9.007,9.516,11.924c4.202,2.918,9.487,4.376,15.858,4.376c8.404,0,14.721-3.104,18.951-9.315
		c4.228-6.209,6.343-14.56,6.343-25.053V119.15z"/>
</g>
<g>
	<path fill="#424242" d="M315.15,317.877c3.705-0.353,6.028-1.293,6.97-2.823l5.382,3.176c-2.471,4.002-7.146,6-14.029,6
		c-6.471,0-12.646-1.881-18.528-5.646c0,26.059-8.177,39.088-24.528,39.088c-9.177,0-16.03-4.529-20.559-13.588
		c-2.236-4.529-3.354-10.088-3.354-16.677v-11.117l-1.059,1.94l-5.383-3.174l6.441-11.02v-61.795c0-8.228,1.846-14.486,5.541-18.777
		c1.934-2.232,4.337-3.35,7.211-3.35c9.146,0,13.719,7.584,13.719,22.749c0,13.813-3.913,29.215-11.735,46.202
		c-3.118,6.762-5.972,12.257-8.56,16.489v21.956c0,6.408,1.324,11.787,3.971,16.137c3.177,5.231,7.766,7.847,13.766,7.847
		c8.939,0,14.558-5.528,16.852-16.588c1-4.882,1.5-10.353,1.5-16.411c0-1.883-0.176-3.706-0.529-5.471
		c-6.412-7.059-9.617-12.471-9.617-16.235c0-2.234,1.323-3.322,3.971-3.265c2.764,0.06,5.264,2.178,7.5,6.354
		c1.705,3.059,2.911,6.353,3.617,9.882C299.884,315.819,307.032,318.524,315.15,317.877z M252.679,292.819
		c9.411-18.211,14.118-34.865,14.118-49.963c0-11.043-2.53-16.566-7.589-16.566c-4.354,0-6.529,5.436-6.529,16.302V292.819z"/>
</g>
</svg>
