<?xml version="1.0" encoding="utf-8"?>
<!-- Generator: Adobe Illustrator 17.0.0, SVG Export Plug-In . SVG Version: 6.00 Build 0)  -->
<!DOCTYPE svg PUBLIC "-//W3C//DTD SVG 1.1//EN" "http://www.w3.org/Graphics/SVG/1.1/DTD/svg11.dtd">
<svg version="1.1" id="Capa_1" xmlns="http://www.w3.org/2000/svg" xmlns:xlink="http://www.w3.org/1999/xlink" x="0px" y="0px"
	 width="357.496px" height="385.294px" viewBox="0 0 357.496 385.294" enable-background="new 0 0 357.496 385.294"
	 xml:space="preserve">
<g>
	<rect x="1.252" y="0" fill="#FFFFFF" width="171.081" height="184.136"/>
</g>
<g>
	<rect x="186.719" y="0" fill="#FFFFFF" width="172.029" height="184.136"/>
</g>
<g>
	<rect x="1.252" y="201.147" fill="#FFFFFF" width="171.081" height="184.147"/>
</g>
<g>
	<rect x="186.719" y="201.147" fill="#FFFFFF" width="172.029" height="184.147"/>
</g>
<g>
	<path fill="#424242" d="M86.374,124.157l0.131,0.394c0.174,9.361-2.888,16.842-9.187,22.441s-14.566,8.398-24.803,8.398
		c-10.63,0-19.204-3.839-25.722-11.516c-6.519-7.677-9.777-17.618-9.777-29.823V98.501c0-12.16,3.259-22.102,9.777-29.822
		c6.518-7.721,15.092-11.582,25.722-11.582c10.367,0,18.668,2.734,24.901,8.202c6.233,5.469,9.262,12.992,9.088,22.572l-0.131,0.394
		h-7.35c0-7.698-2.352-13.702-7.054-18.012c-4.703-4.308-11.188-6.463-19.455-6.463c-8.356,0-15.06,3.237-20.111,9.711
		c-5.053,6.475-7.579,14.764-7.579,24.869v15.682c0,10.236,2.526,18.581,7.579,25.033c5.052,6.453,11.755,9.679,20.111,9.679
		c8.268,0,14.752-2.1,19.455-6.3c4.702-4.199,7.054-10.302,7.054-18.307H86.374z"/>
	<path fill="#424242" d="M164.095,154.013h-7.874V110.05h-54.265v43.963h-7.874V58.475h7.874v44.882h54.265V58.475h7.874V154.013z"
		/>
</g>
<g>
	<path fill="#424242" d="M76.482,326.546l3.772,2.223l-2.838,5.001c-8.515,15.014-19.971,22.521-34.366,22.521
		c-11.847,0-21.349-4.668-28.506-14.006c-6.828-8.967-10.241-20.361-10.241-34.182c0-12.834,3.455-24.001,10.365-33.503
		c7.115-9.707,15.63-14.562,25.543-14.562c13.121,0,22.232,7.919,27.333,23.755l-4.134,1.357c-2.098-6.664-4.73-11.62-7.897-14.87
		c-3.908-3.948-9.008-5.923-15.302-5.923c-5.923,0-11.455,2.283-16.597,6.849c-4.36,3.867-7.877,8.845-10.551,14.932
		c-2.962,6.663-4.442,13.985-4.442,21.965c0,14.067,3.412,25.01,10.236,32.824c6.496,7.363,14.554,11.044,24.173,11.044
		c8.305,0,15.498-2.861,21.583-8.585c3.37-3.17,6.372-7.103,9.004-11.796L76.482,326.546z"/>
	<path fill="#424242" d="M149.629,356.29c-4.566,0-8.001-2.139-10.305-6.417c-1.81-3.414-2.714-7.609-2.714-12.587V304.4
		c-2.387,1.893-4.937,3.785-7.651,5.677c-1.471,1.028-4.371,2.879-8.699,5.553v21.069c0,6.612-2.742,12.074-8.225,16.387
		c-2.68,2.137-5.813,3.204-9.398,3.204c-3.38,0-6.039-1.273-7.977-3.823c-1.773-2.302-2.659-5.179-2.659-8.632
		c0-11.715,7.979-21.949,23.939-30.705v-46.489c-4.469,3.291-9.758,4.997-15.866,5.121c-8.732,0.206-15.887-2.817-21.462-9.07
		l3.208-2.899c4.689,5.266,10.757,7.815,18.202,7.65c2.878-0.082,5.8-0.679,8.761-1.789c3.291-1.274,5.738-2.92,7.343-4.937h4.257
		l-0.123,49.789c2.123-1.287,4.205-2.615,6.245-3.986c3.779-2.593,7.147-5.165,10.105-7.717v-23.518
		c0-5.762,1.891-10.144,5.676-13.147c1.81-1.44,3.949-2.161,6.417-2.161c7.074,0,10.612,3.7,10.612,11.099
		c0,6.002-2.921,12.579-8.762,19.731c-2.674,3.206-5.883,6.515-9.625,9.927v36.501c0,3.7,0.555,6.845,1.663,9.434
		c1.479,3.535,3.819,5.303,7.023,5.303c2.998,0,5.708-1.641,8.132-4.923c1.479-1.968,3.572-5.291,6.283-9.968l6.135-10.535
		l3.773,2.222l-6.108,10.494c-2.798,4.813-4.587,7.774-5.368,8.885c-2.428,3.414-4.896,5.738-7.404,6.972
		C153.495,355.898,151.685,356.29,149.629,356.29z M115.941,318.159c-13.08,7.596-19.62,16.157-19.62,25.682
		c0,5.42,2.098,8.13,6.293,8.13c3.825,0,7.055-1.642,9.688-4.928c2.426-3.079,3.64-6.568,3.64-10.469V318.159z M140.929,294.837
		c9.379-9.172,14.067-17.091,14.067-23.754c0-2.592-0.422-4.37-1.265-5.337c-0.844-0.967-2.52-1.45-5.028-1.45
		c-2.551,0-4.546,1.255-5.985,3.764c-1.193,2.098-1.789,4.504-1.789,7.219V294.837z"/>
</g>
<g>
	<g>
		<rect x="177.768" y="0" fill="#211915" width="2" height="389.365"/>
	</g>
	<g>
		<rect x="-1.252" y="191.265" fill="#211915" width="360" height="2"/>
	</g>
</g>
<g>
	<path fill="#424242" d="M234.793,155.445c6.155,0,11.603-1.819,16.34-5.46c4.738-3.64,7.106-8.698,7.106-15.176h8.592l0.161,0.482
		c0.213,8.03-2.944,14.749-9.476,20.155c-6.531,5.408-14.105,8.11-22.724,8.11c-11.563,0-20.57-4.067-27.021-12.205
		c-6.452-8.136-9.676-18.549-9.676-31.236v-3.373c0-12.633,3.212-23.018,9.636-31.156c6.424-8.136,15.417-12.205,26.979-12.205
		c9.314,0,17.076,2.81,23.287,8.431c6.209,5.621,9.206,13.008,8.993,22.162l-0.161,0.482h-8.592c0-6.958-2.275-12.513-6.825-16.662
		c-4.551-4.147-10.117-6.223-16.702-6.223c-9.101,0-15.872,3.346-20.315,10.037c-4.443,6.692-6.664,15.07-6.664,25.133v3.373
		c0,10.225,2.221,18.669,6.664,25.334C218.839,152.112,225.638,155.445,234.793,155.445z"/>
	<path fill="#424242" d="M281.805,89.761c2.943-5.191,6.812-9.22,11.604-12.084c4.79-2.863,10.398-4.296,16.822-4.296
		c9.154,0,16.18,2.838,21.078,8.511c4.898,5.675,7.348,14.481,7.348,26.418v53.559h-9.636v-53.719c0-9.421-1.86-16.18-5.581-20.275
		s-8.847-6.143-15.377-6.143c-6.745,0-12.3,1.646-16.662,4.938c-4.363,3.292-7.562,7.696-9.596,13.209v61.99h-9.636V36.604h9.636
		V89.761z"/>
</g>
<g>
	<path fill="#424242" d="M261.097,319.772l2.627-4.537l4.807,2.831l-2.594,4.483c-11.84,20.483-28.576,30.751-50.211,30.804
		c-10.269,0-17.995-4.223-23.181-12.669c-2.515-4.144-3.745-8.813-3.693-14.007c0.157-11.54,4.924-20.195,14.302-25.967
		c4.558-2.832,9.717-4.249,15.479-4.249c8.592,0,14.564,3.771,17.916,11.315l-5.029,2.278c-2.463-5.395-6.758-8.093-12.887-8.093
		c-10.11,0-17.287,4.407-21.53,13.223c-1.835,3.831-2.75,7.688-2.75,11.572c0,9.445,4.239,15.9,12.721,19.363
		c2.721,1.154,5.6,1.731,8.637,1.731c6.387,0.053,12.354-1.025,17.904-3.234c2.877-1.156,5.678-2.602,8.402-4.338
		C249.816,335.285,256.177,328.448,261.097,319.772z"/>
	<path fill="#424242" d="M279.718,305.419c5.447-5.972,12.285-8.958,20.51-8.958c12.361,0,18.545,7.964,18.545,23.888v18.859
		c0,5.657,2.273,8.486,6.824,8.486c3.658,0,7.031-2.099,10.117-6.295c1.883-2.519,4.549-6.768,8-12.748l7.813-13.417l4.807,2.83
		l-7.779,13.364c-4.453,7.649-7.439,12.39-8.959,14.223c-4.191,5.029-8.854,7.544-13.986,7.544c-3.721,0-6.732-1.362-9.037-4.087
		c-2.199-2.565-3.301-5.735-3.301-9.508v-19.33c0-6.862-1.15-11.577-3.449-14.145c-2.51-2.776-6.037-4.164-10.584-4.164
		c-7.109,0-12.832,3.3-17.17,9.9c-2.143,3.301-3.215,6.915-3.215,10.844v29.703h-5.5v-36.067l-0.943,1.729l-4.793-2.826l5.736-9.814
		v-55.033c0-7.327,1.645-12.901,4.936-16.723c1.723-1.989,3.861-2.983,6.42-2.983c8.146,0,12.219,6.752,12.219,20.252
		c0,11.826-3.248,25.04-9.744,39.641C284.564,296.393,282.076,301.338,279.718,305.419z M278.853,295.439
		c8.383-16.218,12.574-31.05,12.574-44.495c0-9.835-2.254-14.754-6.758-14.754c-3.879,0-5.816,4.841-5.816,14.518V295.439z"/>
</g>
</svg>
