<?xml version="1.0" encoding="utf-8"?>
<!-- Generator: Adobe Illustrator 17.0.0, SVG Export Plug-In . SVG Version: 6.00 Build 0)  -->
<!DOCTYPE svg PUBLIC "-//W3C//DTD SVG 1.1//EN" "http://www.w3.org/Graphics/SVG/1.1/DTD/svg11.dtd">
<svg version="1.1" id="Capa_1" xmlns="http://www.w3.org/2000/svg" xmlns:xlink="http://www.w3.org/1999/xlink" x="0px" y="0px"
	 width="357.496px" height="385.294px" viewBox="0 0 357.496 385.294" enable-background="new 0 0 357.496 385.294"
	 xml:space="preserve">
<g>
	<rect x="2.504" y="-2.841" fill="#FFFFFF" width="171.081" height="184.136"/>
</g>
<g>
	<rect x="187.971" y="-2.841" fill="#FFFFFF" width="172.029" height="184.136"/>
</g>
<g>
	<rect x="2.504" y="198.306" fill="#FFFFFF" width="171.081" height="184.147"/>
</g>
<g>
	<rect x="187.971" y="198.306" fill="#FFFFFF" width="172.029" height="184.147"/>
</g>
<g>
	<path fill="#424242" d="M121.694,95.06H60.525v56.579h70.724v9.461H49.284V24.711h81.496v9.555H60.525v51.239h61.169V95.06z"/>
</g>
<g>
	<path fill="#424242" d="M143.232,316.236l5.589,3.299c-5.62,10.019-13.561,18.784-23.822,26.297
		c-13.072,9.529-28.404,14.354-45.997,14.478c-7.086,0.06-13.714-1.953-19.883-6.043c-5.863-3.907-10.568-9.096-14.11-15.567
		c-3.727-6.714-5.589-13.889-5.589-21.52c0-13.063,4.733-23.867,14.202-32.414c4.52-4.028,9.65-6.958,15.393-8.79
		c-9.346-6.472-14.019-15.23-14.019-26.279c0-12.27,5.314-21.519,15.943-27.746c4.947-2.869,10.322-4.303,16.126-4.303
		c11.179,0,19.943,4.537,26.297,13.609c2.992,4.263,4.824,8.951,5.497,14.064l-6.321,0.914c-1.1-9.003-5.743-15.482-13.928-19.437
		c-3.788-1.824-7.637-2.737-11.545-2.737c-10.202,0-17.684,4.391-22.448,13.17c-2.139,3.964-3.207,8.11-3.207,12.439
		c0,7.072,2.488,12.986,7.468,17.743c4.978,4.756,11.041,7.134,18.188,7.134h4.215v6.414H79.002c-5.681,0-11.118,1.681-16.309,5.039
		c-4.888,3.177-8.858,7.3-11.912,12.369c-3.298,5.498-4.947,11.76-4.947,18.784c0,10.507,3.573,19.364,10.72,26.571
		c6.78,6.903,14.263,10.294,22.448,10.171c13.683-0.184,25.931-3.42,36.742-9.713C127.533,337.281,136.695,327.965,143.232,316.236z
		"/>
</g>
<g>
	<g>
		<rect x="179.02" y="-2.841" fill="#211915" width="2" height="389.365"/>
	</g>
	<g>
		<rect x="0" y="188.424" fill="#211915" width="360" height="2"/>
	</g>
</g>
<g>
	<path fill="#424242" d="M280.249,160.714c-11.241,0-20.369-3.975-27.382-11.924c-7.014-7.95-10.519-18.16-10.519-30.634v-4.417
		c0-12.526,3.546-22.857,10.64-30.995c7.092-8.136,15.885-12.205,26.377-12.205c10.546,0,18.696,3.386,24.451,10.158
		c5.754,6.772,8.633,15.886,8.633,27.341v7.468h-60.465v2.65c0,9.904,2.502,18.121,7.508,24.651
		c5.005,6.532,11.924,9.796,20.757,9.796c5.3,0,10.171-0.87,14.614-2.61c4.443-1.739,8.137-4.081,11.081-7.026l4.095,6.584
		c-3.051,3.212-7.053,5.875-12.004,7.99C293.083,159.656,287.154,160.714,280.249,160.714z M279.365,78.73
		c-7.387,0-13.463,2.649-18.227,7.949c-4.766,5.3-7.549,12.019-8.352,20.155l0.241,0.482h49.784v-2.007
		c0-7.709-2.021-14.065-6.063-19.071C292.708,81.233,286.914,78.73,279.365,78.73z"/>
</g>
<g>
	<path fill="#424242" d="M266.656,308.228c1.998-3.336,3-6.496,3-9.482c0-3.451-0.971-5.18-2.912-5.18
		c-4.822,0-8.471,3.642-10.941,10.922c-1.235,3.818-1.853,8.516-1.853,14.094c0,7.105,1.704,13.066,5.112,17.881
		c3.877,5.461,9.253,8.191,16.129,8.191c9.928,0,18.359-6.01,25.293-18.03l10.715-18.419l5.396,3.178l-10.675,18.361
		c-8.177,14.059-18.411,21.086-30.706,21.086c-10.883,0-18.823-5.11-23.824-15.332c-2.41-4.814-3.617-10.453-3.617-16.916
		c0-13.215,3.147-22.438,9.441-27.668c2.823-2.349,6-3.523,9.529-3.523c3.176,0,5.588,1.377,7.234,4.132
		c1.412,2.345,2.029,5.157,1.854,8.438c-0.236,3.752-1.5,7.561-3.794,11.43L266.656,308.228z"/>
</g>
</svg>
