<?xml version="1.0" encoding="utf-8"?>
<!-- Generator: Adobe Illustrator 17.0.0, SVG Export Plug-In . SVG Version: 6.00 Build 0)  -->
<!DOCTYPE svg PUBLIC "-//W3C//DTD SVG 1.1//EN" "http://www.w3.org/Graphics/SVG/1.1/DTD/svg11.dtd">
<svg version="1.1" id="Capa_1" xmlns="http://www.w3.org/2000/svg" xmlns:xlink="http://www.w3.org/1999/xlink" x="0px" y="0px"
	 width="357.496px" height="385.294px" viewBox="0 0 357.496 385.294" enable-background="new 0 0 357.496 385.294"
	 xml:space="preserve">
<g>
	<rect x="-0.496" y="-2.841" fill="#FFFFFF" width="171.081" height="184.136"/>
</g>
<g>
	<rect x="184.971" y="-2.841" fill="#FFFFFF" width="172.029" height="184.136"/>
</g>
<g>
	<rect x="-0.496" y="198.306" fill="#FFFFFF" width="171.081" height="184.147"/>
</g>
<g>
	<rect x="184.971" y="198.306" fill="#FFFFFF" width="172.029" height="184.147"/>
</g>
<g>
	<path fill="#424242" d="M120.192,97.214H57.525V161.1H46.284V24.711h83.463v9.555H57.525v53.3h62.667V97.214z"/>
</g>
<g>
	<path fill="#424242" d="M68.858,353.346c14.599-1.526,28.221-5.223,40.865-11.087c15.82-7.33,26.663-16.003,32.527-26.022
		l5.59,3.299c-4.644,8.063-12.462,15.425-23.457,22.082c-8.979,5.498-18.906,9.896-29.778,13.194
		c-12.522,3.788-25.381,5.681-38.574,5.681c-13.012,0-22.235-10.505-27.672-31.52c-2.322-8.796-3.481-17.286-3.481-25.472
		c0-27.365,6.902-49.081,20.708-65.146c11.971-13.928,23.883-20.891,35.733-20.891c4.765,0,11.087,2.474,18.967,7.421
		c7.452,4.582,13.896,6.872,19.333,6.872c7.207,0,12.675-2.198,16.401-6.597c1.404-1.71,3.45-4.49,6.139-8.338l5.224,3.757
		c-1.467,2.261-3.972,5.528-7.514,9.804c-1.466,1.345-2.78,2.414-3.94,3.207c-4.397,3.055-9.835,4.581-16.31,4.581
		c-5.131,0-10.201-1.221-15.21-3.665c-2.688-1.343-5.438-2.87-8.246-4.581c-6.476-4.031-11.423-6.048-14.844-6.048
		c-8.612,0-17.042,4.032-25.288,12.095c-6.659,6.537-12.095,14.417-16.31,23.64c-5.621,12.095-8.43,26.725-8.43,43.89
		c0,12.461,2.32,23.945,6.964,34.451c4.764,10.752,10.688,16.126,17.775,16.126c7.635,0,11.453-7.817,11.453-23.456v-35.185H50.899
		v-6.414h16.585v-34.177h6.414v34.177h23.64v6.414h-23.64v35.185C73.898,340.824,72.217,348.397,68.858,353.346z"/>
</g>
<g>
	<g>
		<rect x="176.02" y="-2.841" fill="#211915" width="2" height="389.365"/>
	</g>
	<g>
		<rect x="-3" y="188.424" fill="#211915" width="360" height="2"/>
	</g>
</g>
<g>
	<path fill="#424242" d="M261.831,159.028V80.015h-14.374v-7.869h14.374V59.458c0-8.725,2.194-15.47,6.585-20.235
		c4.389-4.764,10.519-7.146,18.388-7.146c1.713,0,3.479,0.134,5.3,0.401c1.819,0.269,3.693,0.643,5.621,1.124l-1.285,7.95
		c-1.285-0.321-2.598-0.575-3.935-0.763c-1.339-0.187-2.919-0.281-4.737-0.281c-5.247,0-9.274,1.66-12.085,4.979
		c-2.811,3.32-4.216,7.977-4.216,13.972v12.688h19.674v7.869h-19.674v79.013H261.831z"/>
</g>
<g>
	<path fill="#424242" d="M302.075,280.471l3.913,2.306l-5.253,9.16c-1.793,3.288-4.675,8.113-8.646,14.476
		c-3.16,4.44-6.598,7.686-10.313,9.735c1.11,5.935,1.666,12.276,1.666,19.023c0,20.154-4.015,30.232-12.042,30.232
		c-4.058,0-6.833-2.84-8.327-8.519c-0.641-2.434-0.961-4.954-0.961-7.558V318.71c-4.996-1.837-7.494-5.082-7.494-9.736
		c0-4.611,2.498-7.878,7.494-9.8v-17.807l-0.757,1.409l-3.854-2.304l4.611-7.999v-44.859c0-5.973,1.346-10.516,4.035-13.631
		c1.409-1.621,3.16-2.432,5.253-2.432c6.661,0,9.992,5.504,9.992,16.513c0,10.028-2.853,21.207-8.557,33.538
		c-2.273,4.908-4.354,8.897-6.239,11.969v24.706c6.8,0,11.462,4.463,13.986,13.387c3.164-1.836,6.308-5.209,9.431-10.12
		c0.77-1.238,3.036-5.166,6.8-11.785L302.075,280.471z M262.112,304.106c-2.007,1.28-3.01,2.904-3.01,4.867
		c0,2.05,1.003,3.672,3.01,4.868V304.106z M266.596,264.33c6.874-13.22,10.312-25.31,10.312-36.27
		c0-8.016-1.847-12.025-5.542-12.025c-3.181,0-4.77,3.945-4.77,11.833V264.33z M266.596,302.761v12.426
		c3.438,0,6.789-0.47,10.056-1.409C274.674,306.434,271.323,302.761,266.596,302.761z M266.596,319.671v29.399
		c0,2.348,0.3,4.654,0.901,6.918c0.857,3.287,2.146,4.932,3.863,4.932c5.063,0,7.597-8.583,7.597-25.749
		c0-6.789-0.451-12.49-1.352-17.102C273.657,319.136,269.987,319.671,266.596,319.671z"/>
</g>
</svg>
