<?xml version="1.0" encoding="utf-8"?>
<!-- Generator: Adobe Illustrator 17.0.0, SVG Export Plug-In . SVG Version: 6.00 Build 0)  -->
<!DOCTYPE svg PUBLIC "-//W3C//DTD SVG 1.1//EN" "http://www.w3.org/Graphics/SVG/1.1/DTD/svg11.dtd">
<svg version="1.1" id="Capa_1" xmlns="http://www.w3.org/2000/svg" xmlns:xlink="http://www.w3.org/1999/xlink" x="0px" y="0px"
	 width="357.496px" height="385.294px" viewBox="0 0 357.496 385.294" enable-background="new 0 0 357.496 385.294"
	 xml:space="preserve">
<g>
	<rect x="1.252" y="0" fill="#FFFFFF" width="171.081" height="184.136"/>
</g>
<g>
	<rect x="186.719" y="0" fill="#FFFFFF" width="172.029" height="184.136"/>
</g>
<g>
	<rect x="1.252" y="201.147" fill="#FFFFFF" width="171.081" height="184.147"/>
</g>
<g>
	<rect x="186.719" y="201.147" fill="#FFFFFF" width="172.029" height="184.147"/>
</g>
<g>
	<path fill="#424242" d="M107.421,27.552h11.24v96.858c0,12.678-3.7,22.763-11.101,30.256c-7.399,7.494-16.971,11.241-28.711,11.241
		c-12.49,0-22.388-3.31-29.694-9.93c-7.307-6.619-10.805-16.299-10.491-29.039l0.188-0.562h10.491
		c0,10.243,2.514,17.814,7.541,22.716c5.026,4.903,12.349,7.354,21.966,7.354c8.306,0,15.144-2.888,20.515-8.665
		c5.37-5.775,8.057-13.566,8.057-23.372V27.552z"/>
</g>
<g>
	<path fill="#424242" d="M107.66,214.188l0.2,96.668c5.7-4.811,10.198-8.507,13.494-11.09c6.814-5.3,11.246-10.064,13.295-14.297
		l4.075,2.402c-2.228,4.629-7.06,9.814-14.497,15.555c-4.81,3.739-10.333,8.39-16.567,13.952v34.179
		c0,9.391-2.584,15.932-7.75,19.626c-2.316,1.601-4.81,2.403-7.482,2.403c-4.32,0-7.549-2.583-9.687-7.747
		c-0.98-2.358-1.47-4.964-1.47-7.812c0-5.832,2.071-12.933,6.213-21.302c4.23-8.592,9.396-15.782,15.499-21.569v-89.145
		c-2.939,4.008-6.658,7.973-11.156,11.892c-3.475,3.029-9.465,7.616-17.971,13.762c-5.39,3.92-9.02,6.614-10.89,8.083
		c-4.009,3.207-7.327,6.303-9.954,9.287c-4.588,5.211-6.837,10.912-6.747,17.102c0.089,9.531,3.362,17.08,9.82,22.647
		c2.939,2.583,5.989,3.874,9.152,3.874v4.677c-4.409,0-8.529-1.67-12.359-5.011c-3.296-2.85-5.945-6.523-7.949-11.022
		c-2.183-4.854-3.297-9.888-3.341-15.099c-0.089-7.883,3.14-15.275,9.687-22.179c3.385-3.563,9.998-8.952,19.842-16.167
		c8.372-6.146,13.316-9.842,14.831-11.09c5.433-4.409,9.708-8.795,12.826-13.16c2.36-3.296,3.764-6.436,4.209-9.42H107.66z
		 M102.983,321.946c-7.126,7.648-12.182,16.343-15.165,26.083c-1.247,4.136-1.87,7.472-1.87,10.007c0,2.268,0.511,4.514,1.536,6.738
		c1.246,2.757,2.895,4.136,4.943,4.136c3.785,0,6.614-2.091,8.484-6.271c1.38-3.113,2.071-6.805,2.071-11.074V321.946z"/>
</g>
<g>
	<g>
		<rect x="177.768" y="0" fill="#211915" width="2" height="389.365"/>
	</g>
	<g>
		<rect x="-1.252" y="191.265" fill="#211915" width="360" height="2"/>
	</g>
</g>
<g>
	<path fill="#424242" d="M284.316,52.986v94.029c0,8.939-2.142,15.832-6.424,20.677c-4.283,4.844-10.226,7.267-17.826,7.267
		c-1.605,0-3.118-0.134-4.537-0.401c-1.417-0.269-2.903-0.643-4.456-1.125l1.044-8.11c0.856,0.267,2.035,0.534,3.533,0.803
		c1.499,0.268,2.811,0.402,3.935,0.402c4.764,0,8.483-1.646,11.161-4.938c2.676-3.292,4.015-8.15,4.015-14.574V52.986H284.316z
		 M283.835,27.772h-9.556V14.604h9.556V27.772z"/>
</g>
<g>
	<path fill="#424242" d="M279.168,241.024v53.558c7.577-6.353,13.558-11.234,17.938-14.646c9.059-7,14.949-13.293,17.673-18.882
		l5.417,3.173c-2.941,6.113-9.323,12.961-19.146,20.544c-6.353,4.938-13.647,11.08-21.882,18.427v45.142
		c0,12.402-3.412,21.042-10.235,25.921c-3.059,2.115-6.353,3.174-9.882,3.174c-5.705,0-9.971-3.409-12.794-10.227
		c-1.293-3.116-1.941-6.556-1.941-10.316c0-7.701,2.689-17.076,8.068-28.125c5.729-11.58,12.6-21.072,20.607-28.479l0.265-40.293
		c-1.294,2.354-2.117,3.766-2.47,4.235l-5.383-3.176c3.866-6.588,6.262-13.265,7.186-20.029H279.168z M272.991,309.229
		c-9.41,10.104-16.087,21.586-20.028,34.45c-1.646,5.462-2.471,9.868-2.471,13.217c0,2.994,0.677,5.962,2.029,8.899
		c1.647,3.641,3.824,5.462,6.529,5.462c5,0,8.735-2.761,11.205-8.281c1.823-4.112,2.735-8.987,2.735-14.626V309.229z
		 M276.344,213.584c3.646,0,5.47,1.824,5.47,5.47c0,3.648-1.823,5.47-5.47,5.47c-1.412,0-2.678-0.558-3.794-1.676
		c-1.118-1.117-1.677-2.382-1.677-3.794C270.874,215.408,272.696,213.584,276.344,213.584z"/>
</g>
</svg>
