<?xml version="1.0" encoding="utf-8"?>
<!-- Generator: Adobe Illustrator 17.0.0, SVG Export Plug-In . SVG Version: 6.00 Build 0)  -->
<!DOCTYPE svg PUBLIC "-//W3C//DTD SVG 1.1//EN" "http://www.w3.org/Graphics/SVG/1.1/DTD/svg11.dtd">
<svg version="1.1" id="Capa_1" xmlns="http://www.w3.org/2000/svg" xmlns:xlink="http://www.w3.org/1999/xlink" x="0px" y="0px"
	 width="357.496px" height="385.294px" viewBox="0 0 357.496 385.294" enable-background="new 0 0 357.496 385.294"
	 xml:space="preserve">
<g>
	<rect x="0" y="1.159" fill="#FFFFFF" width="171.081" height="184.136"/>
</g>
<g>
	<rect x="185.467" y="1.159" fill="#FFFFFF" width="172.029" height="184.136"/>
</g>
<g>
	<rect x="0" y="202.306" fill="#FFFFFF" width="171.081" height="184.147"/>
</g>
<g>
	<rect x="185.467" y="202.306" fill="#FFFFFF" width="172.029" height="184.147"/>
</g>
<g>
	<path fill="#424242" d="M62.728,100.371H48.021V165.1H36.78V28.711h11.241V90.91h14.613l53.581-62.199h12.74l0.188,0.468
		L72.563,94.751l62.199,69.88l-0.187,0.468h-13.489L62.728,100.371z"/>
</g>
<g>
	<path fill="#424242" d="M127.479,351.858c4.47,0,8.439-2.378,11.91-7.138c2.057-2.818,5.027-7.577,8.91-14.274l8.784-15.087
		l5.403,3.189l-8.747,15.021c-3.653,6.244-6.008,10.132-7.068,11.662c-3.063,4.537-6.127,7.835-9.189,9.896
		c-2.827,1.944-6.155,2.916-9.983,2.916c-6.539,0-11.458-3.063-14.756-9.193c-2.593-4.891-3.888-10.901-3.888-18.033v-19.623
		c0-6.599-1.742-12.802-5.227-18.605c-3.484-5.805-8.12-10.387-13.908-13.746l-2.243,3.396c-4.302,6.304-9.574,10.221-15.819,11.752
		v32.6c0,11.959-5.185,20.94-15.551,26.947c-4.771,2.828-9.927,4.241-15.463,4.241c-8.601,0-15.947-3.077-22.044-9.232
		s-9.146-13.475-9.146-21.957c0-3.828,0.677-7.422,2.032-10.779l5.832,1.855c-1.12,3.004-1.679,5.979-1.679,8.924
		c0,9.896,4.299,17.171,12.899,21.824c3.828,2.12,7.864,3.181,12.104,3.181c7.304,0,13.431-2.742,18.379-8.226
		c4.299-4.776,6.449-10.378,6.449-16.806v-32.46c-3.594-0.529-6.657-1.976-9.188-4.335c-2.77-2.594-4.153-5.631-4.153-9.109
		c0-3.773,1.295-6.957,3.888-9.553c2.475-2.416,5.625-3.861,9.454-4.333v-37.198c-6.421,4.714-14.02,7.157-22.796,7.334
		c-12.546,0.295-22.826-4.034-30.836-12.988l4.595-4.153c6.715,7.541,15.403,11.192,26.064,10.956
		c4.123-0.117,8.306-0.972,12.547-2.562c4.712-1.825,8.217-4.183,10.515-7.069h6.097v45.681c5.478,0.354,10.837,1.709,16.08,4.064
		l35.52-51.335l5.164,3.562l-35.128,50.771c9.017,5.531,15.381,13.033,19.095,22.507c1.767,4.708,2.651,9.651,2.651,14.828v19.595
		c0,5.296,0.794,9.798,2.382,13.505C119.54,349.33,122.891,351.858,127.479,351.858z M65.472,287.978v-15.021
		c-4.771,0.835-7.156,3.398-7.156,7.689C58.316,284.401,60.702,286.846,65.472,287.978z M71.658,287.536
		c4.064-1.591,7.744-4.712,11.044-9.366l1.502-2.12c-3.888-1.648-8.07-2.68-12.546-3.093V287.536z"/>
</g>
<g>
	<g>
		<rect x="176.516" y="1.159" fill="#211915" width="2" height="389.365"/>
	</g>
	<g>
		<rect x="-2.504" y="192.424" fill="#211915" width="360" height="2"/>
	</g>
</g>
<g>
	<path fill="#424242" d="M258.044,123.711h-10.117v42.317h-9.635V40.763h9.635v74.677h9.154l33.324-36.294h11.241l0.161,0.401
		l-35.652,39.426l38.543,46.653l-0.241,0.401h-11.001L258.044,123.711z"/>
</g>
<g>
	<path fill="#424242" d="M294.15,355.829c-6.295,0-10.207-3.939-11.736-11.822c-0.529-2.882-1.294-5.882-2.293-9
		c-0.648-2.118-1.236-3.618-1.766-4.5c-1.177-1.883-2.705-3.471-4.588-4.765c-3.647,3.941-8.088,5.911-13.322,5.911
		c-4.941,0-7.412-2.117-7.412-6.353c0-2.765,1.117-4.94,3.353-6.529c1.941-1.47,4.353-2.206,7.235-2.206
		c2.823,0,5.559,0.441,8.205,1.324c0.941-2,1.412-4.147,1.412-6.441c0-3.823-1.354-7.028-4.059-9.617
		c-2.471-2.353-5.501-3.529-9.088-3.529c-11.354,0-18.941,5.559-22.764,16.676c-1.707,4.941-2.56,10.146-2.56,15.617v24.353h-6.177
		v-40.499l-1.074,1.941l-5.455-3.174l6.529-11.02v-61.795c0-8.229,1.841-14.487,5.521-18.777c1.928-2.234,4.324-3.351,7.188-3.351
		c9.115,0,13.674,7.581,13.674,22.741c0,9.46-2.029,20.244-6.088,32.348c-3.766,11.048-8.471,21.154-14.118,30.321v2.559
		c5.647-9.411,14.087-14.117,25.323-14.117c5.411,0,9.984,1.868,13.721,5.603c3.734,3.736,5.603,8.31,5.603,13.721
		c0,3.235-0.736,6.324-2.206,9.264c3.935,2.648,6.637,6.061,8.106,10.236c0.528,1.471,1.056,3.353,1.585,5.646l1.41,5.646
		c1.293,4.941,3.23,7.412,5.816,7.412c4.17,0,7.988-2.355,11.455-7.068c2.114-2.828,5.11-7.6,8.986-14.314l8.773-15.066l5.396,3.178
		l-8.735,15.007c-3.647,6.295-5.971,10.177-6.971,11.647c-3.118,4.588-6.103,7.867-8.955,9.838
		C301.222,354.845,297.914,355.829,294.15,355.829z M234.768,290.978c9.353-18.21,14.029-34.864,14.029-49.962
		c0-11.043-2.515-16.565-7.542-16.565c-4.326,0-6.487,5.434-6.487,16.301V290.978z M267.503,323.095
		c-1.119-0.234-2.413-0.353-3.883-0.353c-2.824,0-4.295,0.677-4.412,2.029c0,0.472,0.411,0.706,1.236,0.706
		C263.032,325.478,265.385,324.683,267.503,323.095z"/>
</g>
</svg>
