<?xml version="1.0" encoding="utf-8"?>
<!-- Generator: Adobe Illustrator 17.0.0, SVG Export Plug-In . SVG Version: 6.00 Build 0)  -->
<!DOCTYPE svg PUBLIC "-//W3C//DTD SVG 1.1//EN" "http://www.w3.org/Graphics/SVG/1.1/DTD/svg11.dtd">
<svg version="1.1" id="Capa_1" xmlns="http://www.w3.org/2000/svg" xmlns:xlink="http://www.w3.org/1999/xlink" x="0px" y="0px"
	 width="357.496px" height="385.294px" viewBox="0 0 357.496 385.294" enable-background="new 0 0 357.496 385.294"
	 xml:space="preserve">
<g>
	<rect x="0" y="-2.841" fill="#FFFFFF" width="171.081" height="184.136"/>
</g>
<g>
	<rect x="185.467" y="-2.841" fill="#FFFFFF" width="172.029" height="184.136"/>
</g>
<g>
	<rect x="0" y="198.306" fill="#FFFFFF" width="171.081" height="184.147"/>
</g>
<g>
	<rect x="185.467" y="198.306" fill="#FFFFFF" width="172.029" height="184.147"/>
</g>
<g>
	<path fill="#424242" d="M58.021,151.639h70.442v9.461H46.78V24.711h11.241V151.639z"/>
</g>
<g>
	<path fill="#424242" d="M154.747,319.528l-9.254,15.584c-5.864,9.835-13.501,17.042-22.906,21.623
		c-5.132,2.506-10.752,3.757-16.859,3.757c-11.362,0-21.624-3.816-30.787-11.453c-5.742,7.637-12.369,11.453-19.883,11.453
		c-4.704,0-8.796-1.435-12.277-4.307c-3.788-3.054-5.681-6.871-5.681-11.453c0-5.374,1.832-9.62,5.497-12.735
		c3.42-2.81,7.849-4.216,13.286-4.216c5.131,0,11.116,3.666,17.958,10.996c2.933-5.127,4.642-12.025,5.132-20.692
		c0.183-3.967,0.213-8.819,0.092-14.558l-0.275-13.917c-0.136-3.967-0.44-8.667-0.916-14.101l-1.558-20.6
		c-0.673-8.728-1.008-13.702-1.008-14.924c0-8.544,3.725-14.983,11.178-19.318c3.421-2.013,7.116-3.021,11.087-3.021
		c8.552,0,14.966,3.71,19.242,11.132c2.016,3.468,3.023,7.179,3.023,11.133h-6.414c0-6.134-2.657-10.719-7.972-13.756
		c-2.382-1.397-5.009-2.096-7.88-2.096c-4.397,0-8.141,1.542-11.224,4.624c-3.086,3.083-4.628,6.853-4.628,11.308
		c0-6.286,0.855,5.189,2.566,34.427l0.916,15.108c0.243,6.41,0.366,12.116,0.366,17.121c0,7.448-0.245,13.339-0.732,17.673
		c-0.856,7.203-2.994,13.612-6.414,19.228c4.397,4.09,8.535,6.867,12.415,8.332c3.879,1.466,8.842,2.197,14.89,2.197
		c14.108,0,25.53-7.421,34.267-22.267l9.151-15.583L154.747,319.528z M70.359,344.55c-6.108-6.902-10.935-10.354-14.477-10.354
		c-8.247,0-12.37,3.514-12.37,10.537c0,2.872,1.252,5.193,3.757,6.964c2.199,1.589,4.795,2.382,7.788,2.382
		C60.31,354.078,65.412,350.903,70.359,344.55z"/>
</g>
<g>
	<g>
		<rect x="176.516" y="-2.841" fill="#211915" width="2" height="389.365"/>
	</g>
	<g>
		<rect x="-2.504" y="188.424" fill="#211915" width="360" height="2"/>
	</g>
</g>
<g>
	<path fill="#424242" d="M275.501,159.028h-9.555V33.763h9.555V159.028z"/>
</g>
<g>
	<path fill="#424242" d="M262.679,308.714v36.417c0,6.349,2.525,9.522,7.575,9.522c4.109,0,7.896-2.355,11.361-7.068
		c2.113-2.828,5.108-7.6,8.983-14.314l8.771-15.066l5.396,3.178l-8.734,15.007c-5.001,8.589-8.354,13.912-10.059,15.971
		c-4.707,5.647-9.941,8.47-15.706,8.47c-4.177,0-7.56-1.528-10.147-4.588c-2.412-2.881-3.617-6.441-3.617-10.676v-26.117
		l-1.059,1.941l-5.383-3.174l6.441-11.02v-61.795c0-8.229,1.846-14.487,5.541-18.777c1.934-2.234,4.337-3.351,7.211-3.351
		c9.146,0,13.719,7.584,13.719,22.749c0,13.814-3.913,29.215-11.735,46.203C268.121,298.986,265.267,304.481,262.679,308.714z
		 M262.679,295.978c9.411-18.21,14.118-34.864,14.118-49.962c0-11.043-2.53-16.565-7.589-16.565c-4.354,0-6.529,5.434-6.529,16.301
		V295.978z"/>
</g>
</svg>
