<?xml version="1.0" encoding="utf-8"?>
<!-- Generator: Adobe Illustrator 17.0.0, SVG Export Plug-In . SVG Version: 6.00 Build 0)  -->
<!DOCTYPE svg PUBLIC "-//W3C//DTD SVG 1.1//EN" "http://www.w3.org/Graphics/SVG/1.1/DTD/svg11.dtd">
<svg version="1.1" id="Capa_1" xmlns="http://www.w3.org/2000/svg" xmlns:xlink="http://www.w3.org/1999/xlink" x="0px" y="0px"
	 width="357.496px" height="385.294px" viewBox="0 0 357.496 385.294" enable-background="new 0 0 357.496 385.294"
	 xml:space="preserve">
<g>
	<rect x="3.504" y="0.159" fill="#FFFFFF" width="171.081" height="184.136"/>
</g>
<g>
	<rect x="188.971" y="0.159" fill="#FFFFFF" width="172.029" height="184.136"/>
</g>
<g>
	<rect x="3.504" y="201.306" fill="#FFFFFF" width="171.081" height="184.147"/>
</g>
<g>
	<rect x="188.971" y="201.306" fill="#FFFFFF" width="172.029" height="184.147"/>
</g>
<g>
	<path fill="#424242" d="M150.796,164.1h-11.241L62.087,47.382l-0.562,0.094V164.1H50.284V27.711h11.241l77.468,116.436l0.562-0.094
		V27.711h11.241V164.1z"/>
</g>
<g>
	<path fill="#424242" d="M29.285,254.631l4.437-16.942c0.75-2.905,2.413-5.325,4.987-7.262c2.36-1.882,5.122-2.823,8.286-2.823
		c3.86,0,7.117,1.345,9.772,4.033c2.655,2.69,3.982,5.944,3.982,9.763v6.857c8.767-13.822,20.304-20.707,34.612-20.653
		c5.647,0,10.703,1.692,15.167,5.078c4.303,3.172,7.53,7.445,9.682,12.819c1.614,3.979,2.42,8.548,2.42,13.707v71.031
		c0,11.61,3.786,17.415,11.358,17.415c3.759,0,7.222-2.146,10.391-6.437c1.934-2.574,4.672-6.92,8.217-13.035l8.021-13.775
		l4.934,2.905l-7.987,13.722c-2.743,4.734-4.438,7.584-5.083,8.553c-2.045,3.227-4.007,5.89-5.89,7.987
		c-3.55,3.819-7.745,5.728-12.586,5.728c-11.35,0-17.023-7.664-17.023-22.993V259.23c0-6.723-1.881-12.612-5.64-17.669
		c-4.189-5.594-9.506-8.363-15.951-8.31c-5.854,0-11.494,1.694-16.918,5.082c-5.05,3.175-9.239,7.37-12.568,12.587
		c-3.438,5.379-5.156,11.053-5.156,17.023v84.633h-5.647V241.399c0-2.259-0.803-4.182-2.408-5.769
		c-1.605-1.586-3.503-2.38-5.696-2.38c-4.172,0-6.793,2.018-7.862,6.053L34.764,256L29.285,254.631z"/>
</g>
<g>
	<g>
		<rect x="180.02" y="0.159" fill="#211915" width="2" height="389.365"/>
	</g>
	<g>
		<rect x="1" y="191.424" fill="#211915" width="360" height="2"/>
	</g>
</g>
<g>
	<path fill="#424242" d="M253.228,76.146l0.883,15.096c2.837-5.299,6.611-9.407,11.322-12.326
		c4.709-2.917,10.305-4.376,16.782-4.376c9.421,0,16.594,2.878,21.52,8.632c4.925,5.755,7.388,14.735,7.388,26.94v52.916h-9.636
		v-52.836c0-9.957-1.86-16.996-5.581-21.119c-3.721-4.122-9.007-6.183-15.859-6.183c-6.852,0-12.379,1.687-16.581,5.059
		c-4.203,3.373-7.24,7.896-9.114,13.57v61.508h-9.635V76.146H253.228z"/>
</g>
<g>
	<path fill="#424242" d="M289.822,313.469v22.959c0,6.888,2.768,10.331,8.308,10.331c4.456,0,8.562-2.554,12.317-7.663
		c2.291-3.065,5.538-8.238,9.74-15.52l9.51-16.334l5.851,3.453l-9.47,16.262c-5.41,9.313-9.037,15.083-10.882,17.314
		c-5.091,6.123-10.753,9.184-16.989,9.184c-4.455,0-8.083-1.626-10.883-4.878c-2.799-3.253-4.198-7.143-4.198-11.671v-23.532
		c0.063-8.354-1.337-14.094-4.2-17.22c-3.055-3.379-7.35-5.069-12.885-5.069c-8.781,0-15.781,4.018-20.997,12.053
		c-2.61,4.018-3.913,8.418-3.913,13.201v36.16h-6.696v-56.44c0-3.314-1.665-4.974-4.993-4.974c-2.178,0-3.619,0.599-4.323,1.796
		l-10.182,17.77l-5.661-3.437l10.14-17.66c1.977-3.443,5.324-5.165,10.045-5.165c3.314,0,6.089,1.116,8.322,3.348
		c2.23,2.233,3.348,5.008,3.348,8.322v0.574c6.823-8.162,15.528-12.244,26.115-12.244
		C282.296,284.389,289.822,294.083,289.822,313.469z"/>
</g>
</svg>
