<?xml version="1.0" encoding="utf-8"?>
<!-- Generator: Adobe Illustrator 17.0.0, SVG Export Plug-In . SVG Version: 6.00 Build 0)  -->
<!DOCTYPE svg PUBLIC "-//W3C//DTD SVG 1.1//EN" "http://www.w3.org/Graphics/SVG/1.1/DTD/svg11.dtd">
<svg version="1.1" id="Capa_1" xmlns="http://www.w3.org/2000/svg" xmlns:xlink="http://www.w3.org/1999/xlink" x="0px" y="0px"
	 width="357.496px" height="385.294px" viewBox="0 0 357.496 385.294" enable-background="new 0 0 357.496 385.294"
	 xml:space="preserve">
<g>
	<rect x="0" y="1.159" fill="#FFFFFF" width="171.081" height="184.136"/>
</g>
<g>
	<rect x="185.467" y="1.159" fill="#FFFFFF" width="172.029" height="184.136"/>
</g>
<g>
	<rect x="0" y="202.306" fill="#FFFFFF" width="171.081" height="184.147"/>
</g>
<g>
	<rect x="185.467" y="202.306" fill="#FFFFFF" width="172.029" height="184.147"/>
</g>
<g>
	<path fill="#424242" d="M142.823,108.052c0,17.611-4.824,31.849-14.473,42.715s-22.591,16.299-38.828,16.299
		c-15.987,0-28.743-5.433-38.266-16.299c-9.524-10.866-14.285-25.104-14.285-42.715V85.852c0-17.547,4.745-31.786,14.238-42.715
		c9.492-10.928,22.231-16.393,38.219-16.393c16.236,0,29.194,5.465,38.875,16.393c9.679,10.929,14.52,25.167,14.52,42.715V108.052z
		 M131.676,85.665c0-14.738-3.732-26.604-11.194-35.596c-7.463-8.993-17.814-13.489-31.053-13.489
		c-12.99,0-23.106,4.496-30.35,13.489c-7.245,8.993-10.866,20.858-10.866,35.596v22.388c0,14.863,3.637,26.791,10.913,35.784
		c7.274,8.992,17.407,13.489,30.397,13.489c13.302,0,23.652-4.48,31.053-13.442c7.4-8.96,11.1-20.904,11.1-35.83V85.665z"/>
</g>
<g>
	<path fill="#424242" d="M65.215,315.193c-1.169-9.133-1.727-17.653-1.67-25.562c0.167-16.762,2.728-30.657,7.685-41.685
		c5.234-11.472,12.029-17.208,20.383-17.208c9.189,0,17.751,6.294,25.688,18.879c7.936,12.587,11.904,26.397,11.904,41.434
		c0,11.25-2.088,21.803-6.265,31.66c-4.511,10.638-10.972,19.13-19.38,25.479c14.813-4.01,28.262-9.94,40.348-17.793
		c6.738-4.398,11.361-8.771,13.867-13.115l5.012,3.007c-4.901,8.577-16.095,16.848-33.582,24.811
		c-18.211,8.299-35.726,12.447-52.544,12.447c-14.424,0-26.802-6.391-37.132-19.172c-10.331-12.781-15.496-28.165-15.496-46.153
		c0-18.044,5.15-33.442,15.454-46.195c10.302-12.753,22.693-19.13,37.174-19.13v5.848c-7.408,0-14.508,2.172-21.302,6.516
		c-3.454,2.172-6.683,4.984-9.69,8.438c-10.525,12.085-15.788,26.927-15.788,44.524c0,15.482,4.427,29.21,13.282,41.183
		c9.022,12.196,20.187,18.295,33.498,18.295c11.973,0,22.582-5.401,31.827-16.206c9.912-11.528,14.869-26.342,14.869-44.441
		c0-13.867-3.592-26.508-10.776-37.925c-6.962-11.027-13.951-16.54-20.968-16.54c-5.458,0-10.387,4.483-14.786,13.449
		c-4.791,9.856-7.268,23.084-7.435,39.68c-0.056,7.797,0.473,15.955,1.587,24.476L65.215,315.193z"/>
</g>
<g>
	<g>
		<rect x="176.516" y="1.159" fill="#211915" width="2" height="389.365"/>
	</g>
	<g>
		<rect x="-2.504" y="192.424" fill="#211915" width="360" height="2"/>
	</g>
</g>
<g>
	<path fill="#424242" d="M236.362,118.302c0-12.794,3.505-23.287,10.519-31.477c7.013-8.19,16.301-12.285,27.863-12.285
		c11.616,0,20.931,4.095,27.944,12.285c7.013,8.19,10.519,18.683,10.519,31.477v2.65c0,12.848-3.492,23.354-10.479,31.517
		c-6.986,8.164-16.26,12.245-27.823,12.245c-11.671,0-21.012-4.081-28.024-12.245c-7.014-8.163-10.519-18.669-10.519-31.517V118.302
		z M245.998,120.952c0,10.065,2.542,18.522,7.629,25.374c5.084,6.853,12.178,10.278,21.278,10.278
		c8.939,0,15.966-3.425,21.078-10.278c5.112-6.852,7.669-15.309,7.669-25.374v-2.65c0-9.903-2.57-18.308-7.709-25.213
		c-5.139-6.906-12.205-10.358-21.199-10.358c-8.992,0-16.033,3.453-21.117,10.358c-5.087,6.905-7.629,15.311-7.629,25.213V120.952z"
		/>
</g>
<g>
	<path fill="#424242" d="M327.678,316.213l5.382,3.177c-3.588,5.117-10.294,7.676-20.117,7.676c-3.705,0-7.852-0.41-12.44-1.235
		c-0.941,9.882-4.323,17.823-10.147,23.823c-6.234,6.412-14.205,9.47-23.91,9.176c-8.354-0.235-15.207-3-20.559-8.293
		c-5.354-5.295-8.117-12.088-8.295-20.383c-0.176-10.881,3.735-19.646,11.736-26.293c6.764-5.646,14.146-8.471,22.146-8.471
		c1.059,0,2.117,0.059,3.176,0.176l-1.059,6.178c-8.294-0.647-15.353,1.852-21.176,7.499c-5.824,5.647-8.707,12.589-8.647,20.823
		c0.058,9.354,3.853,15.971,11.382,19.853c3.411,1.707,7.236,2.618,11.471,2.735c8.352,0.236,15-2.411,19.941-7.941
		c4.469-5.059,7.027-11.852,7.676-20.382c-14.177-4.059-21.295-10.087-21.353-18.088c-0.06-6.411,3.265-9.617,9.971-9.617
		c5.647,0,10.499,4.089,14.559,12.265c1.765,3.647,2.765,7.206,2.999,10.676c4.412,0.883,8.588,1.324,12.529,1.324
		C320.414,320.89,325.326,319.331,327.678,316.213z M293.884,317.801c-0.994-5.352-3.304-9.646-6.928-12.882
		c-1.58-1.412-2.925-2.117-4.036-2.117c-2.632,0-3.918,1.029-3.858,3.088c0.058,3.529,2.953,6.705,8.684,9.529
		C289.441,316.243,291.488,317.037,293.884,317.801z"/>
</g>
</svg>
