<?xml version="1.0" encoding="utf-8"?>
<!-- Generator: Adobe Illustrator 17.0.0, SVG Export Plug-In . SVG Version: 6.00 Build 0)  -->
<!DOCTYPE svg PUBLIC "-//W3C//DTD SVG 1.1//EN" "http://www.w3.org/Graphics/SVG/1.1/DTD/svg11.dtd">
<svg version="1.1" id="Capa_1" xmlns="http://www.w3.org/2000/svg" xmlns:xlink="http://www.w3.org/1999/xlink" x="0px" y="0px"
	 width="357.496px" height="385.294px" viewBox="0 0 357.496 385.294" enable-background="new 0 0 357.496 385.294"
	 xml:space="preserve">
<g>
	<rect x="0.504" y="0" fill="#FFFFFF" width="171.081" height="184.136"/>
</g>
<g>
	<rect x="185.971" y="0" fill="#FFFFFF" width="172.029" height="184.136"/>
</g>
<g>
	<rect x="0.504" y="201.147" fill="#FFFFFF" width="171.081" height="184.147"/>
</g>
<g>
	<rect x="185.971" y="201.147" fill="#FFFFFF" width="172.029" height="184.147"/>
</g>
<g>
	<path fill="#424242" d="M137.328,106.893c0,8.306-1.14,15.957-3.419,22.95c-2.28,6.995-5.542,13.083-9.789,18.266l21.732,21.264
		l-7.775,7.494l-22.013-21.076c-4.372,3.311-9.259,5.824-14.66,7.541c-5.402,1.717-11.194,2.576-17.376,2.576
		c-15.987,0-28.743-5.433-38.266-16.299c-9.524-10.866-14.285-25.104-14.285-42.715V84.692c0-17.547,4.745-31.786,14.238-42.715
		c9.492-10.928,22.231-16.393,38.219-16.393c16.236,0,29.194,5.465,38.875,16.393c9.679,10.929,14.52,25.167,14.52,42.715V106.893z
		 M126.18,84.505c0-14.738-3.732-26.604-11.194-35.596c-7.463-8.993-17.814-13.489-31.053-13.489
		c-12.99,0-23.106,4.496-30.35,13.489c-7.245,8.993-10.866,20.858-10.866,35.596v22.388c0,14.863,3.637,26.791,10.913,35.784
		c7.274,8.992,17.407,13.489,30.397,13.489c13.302,0,23.652-4.48,31.053-13.442c7.4-8.96,11.1-20.904,11.1-35.83V84.505z"/>
</g>
<g>
	<path fill="#424242" d="M56.152,290.397c0.166-16.748,2.726-30.631,7.678-41.648c5.229-11.462,12.02-17.193,20.365-17.193
		c9.182,0,17.736,6.288,25.665,18.862c7.929,12.576,11.894,26.375,11.894,41.398c0,13.744-2.866,25.902-8.597,36.474
		c-2.449,4.563-5.203,8.735-8.263,12.519c4.277,4.619,6.556,7.067,6.835,7.346c3.166,2.894,6.028,4.34,8.585,4.34
		c5.279,0,9.836-2.813,13.671-8.441c2.277-3.232,4.75-7.16,7.418-11.785l8.298-14.252l5.104,3.006l-8.263,14.195
		c-4.508,7.679-7.93,12.826-10.267,15.441c-4.674,5.12-9.988,7.679-15.941,7.679c-4.063,0-7.985-1.808-11.769-5.426
		c-1.948-1.78-4.535-4.424-7.762-7.929c-9.293,8.903-19.81,13.354-31.549,13.354c-14.412,0-26.779-6.39-37.1-19.167
		c-10.322-12.778-15.482-28.16-15.482-46.144c0-18.038,5.146-33.434,15.44-46.184c10.294-12.751,22.674-19.127,37.142-19.127v5.847
		c-14.913,0.334-26.653,7.127-35.222,20.378c-7.679,11.861-11.518,24.891-11.518,39.089c0,15.479,4.423,29.203,13.271,41.175
		c9.014,12.193,20.169,18.29,33.469,18.29c10.016,0,19.224-3.965,27.626-11.896c-3.172-3.686-5.342-6.004-6.51-6.953
		c-2.728-2.345-5.537-3.519-8.43-3.519c-6.566,0-10.545,4.34-11.936,13.021l-5.676,2.17
		C58.711,329.848,55.985,311.542,56.152,290.397z M61.994,290.48c-0.167,15.747,1.446,30.187,4.841,43.317
		c3.339-6.343,8.374-9.515,15.107-9.515c4.061,0,7.679,1.225,10.85,3.673c1.613,1.225,4.341,4.034,8.18,8.43
		c6.343-7.512,10.711-16.554,13.104-27.126c1.224-5.396,1.836-11.211,1.836-17.443c0-13.855-3.589-26.485-10.767-37.893
		c-6.956-11.018-13.938-16.525-20.949-16.525c-5.453,0-10.378,4.479-14.772,13.438C64.637,260.74,62.161,273.955,61.994,290.48z"/>
</g>
<g>
	<g>
		<rect x="177.02" y="0" fill="#211915" width="2" height="389.365"/>
	</g>
	<g>
		<rect x="-2" y="191.265" fill="#211915" width="360" height="2"/>
	</g>
</g>
<g>
	<path fill="#424242" d="M238.472,97.15c0-13.864,2.931-24.959,8.793-33.283c5.861-8.324,14.038-12.486,24.531-12.486
		c5.994,0,11.228,1.258,15.697,3.774c4.47,2.517,8.15,6.103,11.041,10.76l1.526-12.928h7.708v120.286h-9.635v-44.726
		c-2.945,4.176-6.639,7.388-11.082,9.636c-4.443,2.248-9.583,3.372-15.417,3.372c-10.386,0-18.509-3.867-24.37-11.603
		c-5.862-7.735-8.793-18.107-8.793-31.115V97.15z M248.108,98.836c0,10.493,2.101,18.884,6.304,25.173
		c4.201,6.291,10.531,9.435,18.99,9.435c5.941,0,10.961-1.325,15.056-3.975c4.095-2.65,7.319-6.304,9.677-10.961V75.55
		c-2.196-4.764-5.287-8.618-9.275-11.563c-3.988-2.943-9.087-4.416-15.297-4.416c-8.459,0-14.814,3.493-19.07,10.479
		s-6.384,16.02-6.384,27.101V98.836z"/>
</g>
<g>
	<path fill="#424242" d="M294.418,284.788c6.877,0,12.519,4.266,16.927,12.794c3.174-3.181,6.494-7.242,9.963-12.188l19.242-33.349
		l5.396,3.186l-19.501,33.615c-4.47,6.353-8.558,11.411-12.263,15.176c2.234,10.176,3.353,17.912,3.353,23.205
		c0,27.706-5.513,41.561-16.538,41.561c-5.572,0-9.385-3.913-11.436-11.735c-0.88-3.353-1.32-6.825-1.32-10.411v-33.706
		c-6.941-2.53-10.411-7.001-10.411-13.411c0-6.411,3.47-10.91,10.411-13.5v-6.529c-6.695,10.235-16.035,15.353-28.016,15.353
		c-12.394,0-21.291-5.08-26.694-15.243c-2.407-4.405-3.581-9.251-3.523-14.538c0.118-12.806,5.911-22.527,17.382-29.165
		c5.352-3.113,11.059-4.67,17.117-4.67c9.588,0,17.205,3.426,22.853,10.276c3.234,3.981,5.588,6.998,7.059,9.047V284.788z
		 M288.21,252.344c-0.83-1.124-2.695-3.431-5.598-6.922c-4.472-5.344-10.504-8.016-18.094-8.016
		c-11.83,0-20.215,5.021-25.156,15.063c-2.119,4.229-3.178,8.426-3.178,12.596c-0.061,6.929,2.207,12.596,6.801,17
		s10.364,6.605,17.313,6.605c10.48,0,18.107-4.144,22.877-12.432C286.531,270.361,288.21,262.397,288.21,252.344z M288.242,292.817
		c-2.822,1.765-4.234,3.999-4.234,6.706c0,2.823,1.412,5.059,4.234,6.705V292.817z M294.418,308.082
		c3.882,0,8.059-1.941,12.529-5.824c-2.883-7.529-7.059-11.293-12.529-11.293V308.082z M311.359,327.229
		c0-6.412-0.793-12.647-2.382-18.705c-4.94,3.822-9.794,5.734-14.559,5.734v32.029c0,3.234,0.411,6.41,1.235,9.529
		c1.176,4.529,2.941,6.794,5.294,6.794C307.888,362.61,311.359,350.816,311.359,327.229z"/>
</g>
</svg>
