<?xml version="1.0" encoding="utf-8"?>
<!-- Generator: Adobe Illustrator 17.0.0, SVG Export Plug-In . SVG Version: 6.00 Build 0)  -->
<!DOCTYPE svg PUBLIC "-//W3C//DTD SVG 1.1//EN" "http://www.w3.org/Graphics/SVG/1.1/DTD/svg11.dtd">
<svg version="1.1" id="Capa_1" xmlns="http://www.w3.org/2000/svg" xmlns:xlink="http://www.w3.org/1999/xlink" x="0px" y="0px"
	 width="357.496px" height="385.294px" viewBox="0 0 357.496 385.294" enable-background="new 0 0 357.496 385.294"
	 xml:space="preserve">
<g>
	<rect x="2.504" y="0.159" fill="#FFFFFF" width="171.081" height="184.136"/>
</g>
<g>
	<rect x="187.971" y="0.159" fill="#FFFFFF" width="172.029" height="184.136"/>
</g>
<g>
	<rect x="2.504" y="201.306" fill="#FFFFFF" width="171.081" height="184.147"/>
</g>
<g>
	<rect x="187.971" y="201.306" fill="#FFFFFF" width="172.029" height="184.147"/>
</g>
<g>
	<path fill="#424242" d="M60.244,102.462V164.1H49.003V27.805h45.432c14.613,0,25.822,3.201,33.629,9.602
		c7.806,6.402,11.709,15.753,11.709,28.055c0,7.245-2.077,13.723-6.229,19.437c-4.154,5.714-10.039,9.883-17.657,12.505
		c8.431,2.124,14.503,5.918,18.219,11.381c3.715,5.465,5.574,12.318,5.574,20.562v12.833c0,4.248,0.499,8.056,1.499,11.428
		c0.999,3.372,2.654,6.121,4.965,8.243v2.248h-11.428c-2.311-2.248-3.934-5.401-4.871-9.461c-0.937-4.059-1.405-8.274-1.405-12.646
		v-12.458c0-8.368-2.702-14.972-8.103-19.812c-5.402-4.839-12.943-7.26-22.622-7.26H60.244z M60.244,92.908h32.879
		c12.302,0,21.294-2.482,26.978-7.447c5.682-4.964,8.524-11.662,8.524-20.093c0-8.993-2.826-15.908-8.478-20.749
		c-5.652-4.839-14.224-7.26-25.713-7.26h-34.19V92.908z"/>
</g>
<g>
	<path fill="#424242" d="M109.36,289.046c4.825,6.044,7.238,13.063,7.238,21.06v25.089c0,5.494,0.823,10.165,2.47,14.01
		c2.196,5.25,5.673,7.874,10.43,7.874c4.636,0,8.752-2.466,12.352-7.401c2.133-2.923,5.214-7.858,9.239-14.804l9.11-15.645
		l5.604,3.3l-9.071,15.584c-3.788,6.475-6.23,10.507-7.33,12.095c-3.177,4.704-6.354,8.124-9.529,10.262
		c-2.932,2.016-6.384,3.023-10.354,3.023c-6.78,0-11.882-3.175-15.302-9.529c-2.688-5.069-4.031-11.3-4.031-18.691v-25.105
		c0-6.475-1.864-12.095-5.59-16.859c-6.597,4.888-12.919,7.33-18.967,7.33c-3.421,0-6.413-0.825-8.979-2.474
		c-2.993-1.955-4.489-4.551-4.489-7.789c0-3.725,1.862-6.688,5.589-8.888c3.115-1.771,6.689-2.657,10.721-2.657
		c6.107,0,11.545,1.925,16.31,5.772c6.535-6.84,9.804-14.873,9.804-24.098c0-12.949-5.589-22.723-16.768-29.32
		c-5.131-2.992-10.903-4.489-17.317-4.489c-21.44,0-37.507,9.628-48.195,28.882C23.566,271.348,19.2,288.28,19.2,306.373
		c0,18.461,3.816,32.948,11.453,43.461c3.481,4.831,7.177,7.244,11.087,7.244c9.039,0,13.561-8.314,13.561-24.945v-74.194h6.414
		v74.19c0,20.909-6.659,31.363-19.975,31.363c-6.721,0-12.553-3.789-17.501-11.368c-3.543-5.44-6.292-12.256-8.246-20.446
		c-2.139-8.924-3.207-17.358-3.207-25.306c0-15.646,3.849-31.967,11.545-48.959C29.646,245.616,37.144,236.48,46.825,230
		s20.905-9.72,33.673-9.72c15.698,0,27.396,6.685,35.093,20.054c3.604,6.287,5.406,13.002,5.406,20.143
		C120.997,272.319,117.117,281.843,109.36,289.046z M99.923,288.725c-3.36-2.32-7.179-3.481-11.453-3.481
		c-2.016,0-4.002,0.366-5.956,1.1c-2.627,0.978-3.939,2.322-3.939,4.031c0,2.565,2.351,3.849,7.055,3.849
		C90.149,294.223,94.913,292.391,99.923,288.725z"/>
</g>
<g>
	<g>
		<rect x="179.02" y="0.159" fill="#211915" width="2" height="389.365"/>
	</g>
	<g>
		<rect x="0" y="191.424" fill="#211915" width="360" height="2"/>
	</g>
</g>
<g>
	<path fill="#424242" d="M286.914,83.416l-6.826-0.482c-6.049,0-11.014,1.7-14.895,5.099c-3.882,3.4-6.652,8.07-8.311,14.012v59.983
		h-9.637V75.146h8.432l1.205,14.454v0.963c2.516-5.353,5.888-9.528,10.117-12.526c4.229-2.998,9.261-4.497,15.096-4.497
		c1.178,0,2.301,0.094,3.373,0.281c1.07,0.188,1.953,0.389,2.649,0.603L286.914,83.416z"/>
</g>
<g>
	<path fill="#424242" d="M251.949,314.39l-5.382-3.177c1.706-3.587,2.559-6.499,2.559-8.735c0-3.47-0.118-5.793-0.353-6.971
		c-3.588-2.41-5.383-5.029-5.383-7.853c0-3,1.5-4.5,4.5-4.5c3.117,0,5.206,2.678,6.265,8.029h27.97c3.234,0,5.956,1.103,8.162,3.31
		c2.206,2.205,3.309,4.927,3.309,8.161v35.47c0,6.354,2.524,9.529,7.574,9.529c4.109,0,7.926-2.355,11.449-7.068
		c2.055-2.828,5.021-7.6,8.896-14.314l8.771-15.066l5.396,3.178l-8.735,15.007c-5.011,8.589-8.371,13.912-10.081,15.971
		c-4.717,5.647-9.965,8.47-15.741,8.47c-4.128,0-7.443-1.44-9.948-4.322c-2.506-2.882-3.758-6.529-3.758-10.941v-35.911
		c0-3.529-1.761-5.294-5.279-5.294h-26.838c0,1.471,0,3.207,0,5.205C255.243,306.095,254.125,310.036,251.949,314.39z"/>
</g>
</svg>
