<?xml version="1.0" encoding="utf-8"?>
<!-- Generator: Adobe Illustrator 17.0.0, SVG Export Plug-In . SVG Version: 6.00 Build 0)  -->
<!DOCTYPE svg PUBLIC "-//W3C//DTD SVG 1.1//EN" "http://www.w3.org/Graphics/SVG/1.1/DTD/svg11.dtd">
<svg version="1.1" id="Capa_1" xmlns="http://www.w3.org/2000/svg" xmlns:xlink="http://www.w3.org/1999/xlink" x="0px" y="0px"
	 width="357.496px" height="385.294px" viewBox="0 0 357.496 385.294" enable-background="new 0 0 357.496 385.294"
	 xml:space="preserve">
<g>
	<rect x="2.504" y="1.159" fill="#FFFFFF" width="171.081" height="184.136"/>
</g>
<g>
	<rect x="187.971" y="1.159" fill="#FFFFFF" width="172.029" height="184.136"/>
</g>
<g>
	<rect x="2.504" y="202.306" fill="#FFFFFF" width="171.081" height="184.147"/>
</g>
<g>
	<rect x="187.971" y="202.306" fill="#FFFFFF" width="172.029" height="184.147"/>
</g>
<g>
	<path fill="#424242" d="M141.112,28.711v90.583c0,14.987-4.59,26.697-13.77,35.127c-9.18,8.431-20.983,12.646-35.409,12.646
		c-14.238,0-25.87-4.23-34.894-12.693c-9.025-8.461-13.536-20.154-13.536-35.081V28.711h11.241v90.583
		c0,11.741,3.48,21.062,10.445,27.961c6.962,6.901,15.877,10.351,26.744,10.351c11.115,0,20.233-3.434,27.353-10.304
		c7.119-6.869,10.679-16.206,10.679-28.008V28.711H141.112z"/>
</g>
<g>
	<path fill="#424242" d="M50.01,241.677c0-2.338-0.828-4.327-2.48-5.969s-3.609-2.463-5.867-2.463c-4.299,0-6.999,2.09-8.1,6.268
		L29.035,256.8l-5.673-1.418l4.595-17.542c0.779-3.008,2.506-5.514,5.179-7.519c2.45-1.948,5.317-2.924,8.604-2.924
		c4.01,0,7.393,1.392,10.149,4.174c2.757,2.783,4.135,6.15,4.135,10.102v82.144c0,10.463,3.759,18.449,11.277,23.959
		c3.563,2.616,7.573,3.924,12.029,3.924c6.516,0,12.864-2.282,19.046-6.845c5.568-4.063,10.135-9.183,13.7-15.36
		c3.73-6.566,5.597-13.079,5.597-19.534v-81.811h5.848v105.518c0,12.021,3.919,18.032,11.76,18.032
		c3.892,0,7.478-2.222,10.759-6.665c2.002-2.665,4.837-7.164,8.507-13.496l8.305-14.264l5.109,3.009l-8.27,14.207
		c-2.84,4.901-4.594,7.853-5.263,8.855c-2.117,3.341-4.149,6.098-6.098,8.27c-3.676,3.955-8.02,5.932-13.032,5.932
		c-11.751,0-17.626-7.937-17.626-23.808v-2.089c-4.289,7.438-9.606,13.461-15.955,18.068c-7.129,5.219-14.592,7.828-22.388,7.828
		c-12.363,0-21.051-6.038-26.063-18.116c-2.172-5.175-3.258-10.379-3.258-15.61V241.677z"/>
</g>
<g>
	<g>
		<rect x="179.02" y="1.159" fill="#211915" width="2" height="389.365"/>
	</g>
	<g>
		<rect x="0" y="192.424" fill="#211915" width="360" height="2"/>
	</g>
</g>
<g>
	<path fill="#424242" d="M301.097,148.896c-2.784,5.086-6.518,8.993-11.201,11.723c-4.686,2.73-10.238,4.095-16.662,4.095
		c-9.154,0-16.328-3.104-21.52-9.314c-5.193-6.209-7.789-15.845-7.789-28.907V76.146h9.635v50.507
		c0,10.599,1.808,18.201,5.421,22.805c3.613,4.604,8.739,6.906,15.377,6.906c7.228,0,12.995-1.619,17.304-4.858
		c4.309-3.238,7.348-7.668,9.114-13.289v-62.07h9.636v86.882H301.9L301.097,148.896z"/>
</g>
<g>
	<path fill="#424242" d="M256.596,296.184v32.47c0,16.001,4.822,24,14.47,24c8.295,0,15.146-6.029,20.559-18.088
		c2.352-5.176,3.529-10.059,3.529-14.646v-23.735h6.177v46.94c0,6.354,2.524,9.529,7.574,9.529c4.11,0,7.926-2.355,11.45-7.068
		c2.054-2.828,5.02-7.6,8.895-14.314l8.772-15.066l5.396,3.178l-8.734,15.007c-5,8.589-8.354,13.912-10.059,15.971
		c-4.707,5.647-9.941,8.47-15.706,8.47c-4.177,0-7.56-1.528-10.147-4.588c-2.412-2.881-3.617-6.441-3.617-10.676v-2.647
		c-6.647,11.942-14.677,17.911-24.088,17.911c-7.823,0-13.234-2.969-16.234-8.911c-2.942-5.765-4.412-12.882-4.412-21.353v-13.412
		c-1.295,2.354-2.117,3.766-2.471,4.236l-5.382-3.177c3.94-6.587,6.382-13.265,7.323-20.029H256.596z"/>
</g>
</svg>
