<?xml version="1.0" encoding="utf-8"?>
<!-- Generator: Adobe Illustrator 17.0.0, SVG Export Plug-In . SVG Version: 6.00 Build 0)  -->
<!DOCTYPE svg PUBLIC "-//W3C//DTD SVG 1.1//EN" "http://www.w3.org/Graphics/SVG/1.1/DTD/svg11.dtd">
<svg version="1.1" id="Capa_1" xmlns="http://www.w3.org/2000/svg" xmlns:xlink="http://www.w3.org/1999/xlink" x="0px" y="0px"
	 width="357.496px" height="385.294px" viewBox="0 0 357.496 385.294" enable-background="new 0 0 357.496 385.294"
	 xml:space="preserve">
<g>
	<rect x="0" y="0" fill="#FFFFFF" width="171.081" height="184.136"/>
</g>
<g>
	<rect x="185.467" y="0" fill="#FFFFFF" width="172.029" height="184.136"/>
</g>
<g>
	<rect x="0" y="201.147" fill="#FFFFFF" width="171.081" height="184.147"/>
</g>
<g>
	<rect x="185.467" y="201.147" fill="#FFFFFF" width="172.029" height="184.147"/>
</g>
<g>
	<path fill="#424242" d="M85.186,140.054l2.716,9.555h0.562l2.717-9.555L132.21,27.552h12.084L93.523,163.94H82.844L32.073,27.552
		h12.178L85.186,140.054z"/>
</g>
<g>
	<path fill="#424242" d="M91.212,353.844c20.296-3.613,37.913-10.932,52.851-21.953c6.564-4.818,11.051-9.335,13.461-13.552
		l5.511,3.253c-5.361,9.456-16.865,18.399-34.511,26.831c-18.732,8.976-37.402,13.462-56.012,13.462
		c-6.746,0-12.287-2.35-16.623-7.047c-3.975-4.337-6.445-9.968-7.408-16.895c-0.783-5.722-1.174-10.9-1.174-15.539
		c0.059-6.744,0.181-12.647,0.361-17.707l0.994-19.875c0.782-18.25,1.174-33.246,1.174-44.991c0-8.251-3.859-12.377-11.578-12.377
		c-4.704,0-7.658,2.258-8.864,6.771l-4.863,18.705l-6.135-1.536l4.878-19.513c0.782-3.191,2.62-5.901,5.511-8.131
		c2.71-2.107,5.841-3.162,9.396-3.162c7.287,0,12.497,2.981,15.629,8.944c1.505,2.771,2.259,6.023,2.259,9.757
		c0.12,11.686-0.241,26.922-1.084,45.714l-0.994,19.694c-0.061,2.229-0.181,8.131-0.361,17.707
		c-0.361,22.104,5.932,33.156,18.882,33.156c9.516,0,18.43-7.318,26.741-21.954c8.07-14.093,12.106-27.885,12.106-41.377
		c0-24.935-1.626-43.514-4.878-55.741c-1.506-5.781-3.433-10.629-5.782-14.545l6.595-0.994c4.878,6.927,12.346,10.39,22.405,10.39
		c9.274,0,16.772-3.463,22.495-10.39l4.698,4.293c-6.987,8.28-16.051,12.421-27.193,12.421c-6.144,0-12.047-1.536-17.708-4.607
		c3.131,10.54,4.938,23.882,5.421,40.021c0.12,4.578,0.21,10.963,0.271,19.152c0.059,10.06-2.439,21.111-7.499,33.156
		C105.004,337.794,98.68,347.28,91.212,353.844z"/>
</g>
<g>
	<g>
		<rect x="176.516" y="0" fill="#211915" width="2" height="389.365"/>
	</g>
	<g>
		<rect x="-2.504" y="191.265" fill="#211915" width="360" height="2"/>
	</g>
</g>
<g>
	<path fill="#424242" d="M268.406,142.134l3.063,11.116h0.525l3.326-11.116l25.734-70.987h10.854l-35.976,94.708h-8.402
		l-36.063-94.708h10.854L268.406,142.134z"/>
</g>
<g>
	<path fill="#424242" d="M273.576,355.339c14.4,0,21.601-13.599,21.601-40.8c0-2.326-0.219-4.581-0.655-6.764
		c-7.928-8.727-11.891-15.417-11.891-20.072c0-2.763,1.637-4.107,4.909-4.036c3.418,0.073,6.508,2.691,9.272,7.854
		c2.108,3.782,3.601,7.854,4.473,12.218c7.637,7.491,16.436,10.838,26.4,10.036c4.653-0.436,7.563-1.599,8.727-3.49l6.655,3.927
		c-3.055,4.946-8.837,7.418-17.346,7.418c-8.001,0-15.638-2.326-22.909-6.981c0,14.982-2.291,26.655-6.872,35.019
		c-4.801,8.873-12.256,13.309-22.364,13.309c-9.673,0-17.236-3.92-22.69-11.763c-4.873-6.972-7.164-15.432-6.873-25.379
		c0.072-2.687,0.219-6.937,0.437-12.745l0.437-15.686c0.071-3.483-1.436-5.228-4.522-5.228c-2.5,0-4.56,1.36-6.177,4.077
		l-10.12,17.906l-6.453-3.917l10.363-17.849c3.055-5.236,7.2-7.854,12.437-7.854c8.436,0,12.472,4.504,12.109,13.507
		c-0.583,14.814-0.873,24.109-0.873,27.885c0,7.916,1.637,14.522,4.909,19.824C260.485,352.146,266.158,355.339,273.576,355.339z"/>
</g>
</svg>
