<?xml version="1.0" encoding="utf-8"?>
<!-- Generator: Adobe Illustrator 17.0.0, SVG Export Plug-In . SVG Version: 6.00 Build 0)  -->
<!DOCTYPE svg PUBLIC "-//W3C//DTD SVG 1.1//EN" "http://www.w3.org/Graphics/SVG/1.1/DTD/svg11.dtd">
<svg version="1.1" id="Capa_1" xmlns="http://www.w3.org/2000/svg" xmlns:xlink="http://www.w3.org/1999/xlink" x="0px" y="0px"
	 width="357.496px" height="385.294px" viewBox="0 0 357.496 385.294" enable-background="new 0 0 357.496 385.294"
	 xml:space="preserve">
<g>
	<rect x="1.252" y="0" fill="#FFFFFF" width="171.081" height="184.136"/>
</g>
<g>
	<rect x="186.719" y="0" fill="#FFFFFF" width="172.029" height="184.136"/>
</g>
<g>
	<rect x="1.252" y="201.147" fill="#FFFFFF" width="171.081" height="184.147"/>
</g>
<g>
	<rect x="186.719" y="201.147" fill="#FFFFFF" width="172.029" height="184.147"/>
</g>
<g>
	<path fill="#424242" d="M52.903,154.48h83.65v9.461H39.507v-8.618l80.372-118.216H42.037v-9.555h91.52v8.149L52.903,154.48z"/>
</g>
<g>
	<path fill="#424242" d="M33.487,353.708l-4.356-3.631l38.633-54.136H49.3v-5.648h22.592l34.851-48.974
		c-5.54,2.1-12.317,3.148-20.331,3.148c-5.218,0-11.859-1.963-19.927-5.89c-7.692-3.765-13.77-5.648-18.233-5.648
		c-2.743,0-5.379,1.273-7.906,3.818c-2.26,2.276-3.82,4.849-4.68,7.72l-5.405-1.541c1.183-4.052,3.412-7.619,6.692-10.7
		c3.547-3.295,7.312-4.944,11.29-4.944c5.214,0,12.096,2.045,20.644,6.132c7.688,3.604,13.521,5.405,17.499,5.405
		c14.085,0,24.461-4.006,31.127-12.021l4.193,3.274l-42.975,60.22H96.66v5.648H74.604l-28.991,40.622
		c2.261-0.565,4.683-0.848,7.266-0.848c5.327,0,12.136,1.977,20.424,5.931c8.288,3.953,14.209,5.93,17.762,5.93
		c16.198,0,30.944-11.106,44.238-33.321l4.924,2.905c-8.176,13.554-17.265,23.505-27.27,29.851
		c-6.563,4.143-13.851,6.213-21.864,6.213c-4.626,0-11.376-2.179-20.25-6.535c-7.209-3.55-13.179-5.325-17.911-5.325
		C45.884,341.363,39.403,345.479,33.487,353.708z"/>
</g>
<g>
	<g>
		<rect x="177.768" y="0" fill="#211915" width="2" height="389.365"/>
	</g>
	<g>
		<rect x="-1.252" y="191.265" fill="#211915" width="360" height="2"/>
	</g>
</g>
<g>
	<path fill="#424242" d="M253.887,154.759h56.45v8.11h-68.334v-7.066l52.354-71.545H243.61v-8.271h62.873v7.146L253.887,154.759z"/>
</g>
<g>
	<path fill="#424242" d="M323.289,265.57l5.376,3.173c-3.232,5.583-10.078,13.544-20.537,23.886
		c-4.231,4.171-8.229,7.99-11.988,11.456l-9.958,9.257c5.17,7.461,7.726,20.271,7.668,38.429c0,12.868-3.966,21.799-11.898,26.794
		c-3.409,2.173-6.963,3.261-10.665,3.261c-4.76,0-8.608-2.294-11.547-6.883c-2.586-4.001-3.878-8.53-3.878-13.589
		c0-16.119,7.433-32.297,22.3-48.534c-3.409-4.06-11.105-6.117-23.093-6.177v-6.17c7.873,0.353,14.425-2.379,19.655-8.196
		c4.993-5.582,7.491-12.31,7.491-20.185c0-8.813-3.257-15.071-9.771-18.773c-3.229-1.88-6.985-2.82-11.269-2.82
		c-9.448,0-16.461,4.035-21.039,12.105l-3.563,6.147l-5.391-3.181l3.525-6.082c5.875-10.105,14.748-15.16,26.618-15.16
		c8.226,0,14.777,2.558,19.655,7.671c4.876,5.115,7.345,11.815,7.403,20.103c0.058,13.697-5.523,23.837-16.746,30.419
		c4.652,1.295,8.125,3.41,10.422,6.35c1.166-1.187,2.768-2.756,4.809-4.712c11.469-10.623,18.793-17.578,21.97-20.865
		C315.886,275.945,320.704,270.037,323.289,265.57z M262.031,361.377c0,5.522,1.587,9.665,4.76,12.428
		c1.41,1.234,2.908,1.852,4.495,1.852c5.465,0,9.695-2.763,12.692-8.285c2.468-4.467,3.701-9.667,3.701-15.601
		c0-15.925-1.938-27.206-5.817-33.846C268.641,332.496,262.031,346.98,262.031,361.377z"/>
</g>
</svg>
