<?xml version="1.0" encoding="utf-8"?>
<!-- Generator: Adobe Illustrator 17.0.0, SVG Export Plug-In . SVG Version: 6.00 Build 0)  -->
<!DOCTYPE svg PUBLIC "-//W3C//DTD SVG 1.1//EN" "http://www.w3.org/Graphics/SVG/1.1/DTD/svg11.dtd">
<svg version="1.1" id="Capa_1" xmlns="http://www.w3.org/2000/svg" xmlns:xlink="http://www.w3.org/1999/xlink" x="0px" y="0px"
	 width="32px" height="32px" viewBox="0 0 32 32" enable-background="new 0 0 32 32" xml:space="preserve">
<g id="ic_x5F_social_x0D_">
</g>
<path fill="#FFFFFF" fill-opacity="0.9" d="M24.327,6.626h-4.375C19.512,5.412,18.361,4.532,17,4.532
	c-1.361,0-2.512,0.879-2.952,2.094H9.673c-1.151,0-2.094,0.942-2.094,2.094v14.655c0,1.151,0.942,2.094,2.094,2.094h14.655
	c1.151,0,2.094-0.942,2.094-2.094V8.719C26.421,7.568,25.479,6.626,24.327,6.626z M17,6.626c0.576,0,1.047,0.471,1.047,1.047
	S17.576,8.719,17,8.719c-0.576,0-1.047-0.471-1.047-1.047S16.424,6.626,17,6.626z M19.094,21.281h-7.327v-2.094h7.327V21.281z
	 M22.234,17.094H11.766V15h10.468V17.094z M22.234,12.906H11.766v-2.094h10.468V12.906z"/>
</svg>
