<?xml version="1.0" encoding="utf-8"?>
<!-- Generator: Adobe Illustrator 17.0.0, SVG Export Plug-In . SVG Version: 6.00 Build 0)  -->
<!DOCTYPE svg PUBLIC "-//W3C//DTD SVG 1.1//EN" "http://www.w3.org/Graphics/SVG/1.1/DTD/svg11.dtd">
<svg version="1.1" id="Capa_1" xmlns="http://www.w3.org/2000/svg" xmlns:xlink="http://www.w3.org/1999/xlink" x="0px" y="0px"
	 width="30.188px" height="35.697px" viewBox="0 0 30.188 35.697" enable-background="new 0 0 30.188 35.697" xml:space="preserve">
<g>
	<g>
		<path fill="#616161" d="M50.323,4.173H38.527l-8.339,8.34v11.794l8.339,8.34h11.796l8.339-8.34V12.513L50.323,4.173z
			 M44.425,26.793c-1.134,0-2.056-0.92-2.056-2.056c0-1.135,0.922-2.056,2.056-2.056s2.056,0.921,2.056,2.056
			C46.481,25.874,45.559,26.793,44.425,26.793z M46.007,19.992h-3.164v-9.491h3.164V19.992z"/>
	</g>
</g>
<g>
	<g>
		<path fill="#616161" d="M27.418,32.647c-8.018,0-16.036,0-24.054,0C3.4,30.716,3.4,30.716,5.52,30.34
			c0.038-0.935,0.004-1.959,1.323-2.156c0.105-0.016,0.203-0.447,0.212-0.689c0.13-3.256,1.415-5.906,3.969-7.977
			c1.176-0.953,1.174-1.29-0.02-2.251C8.47,15.23,7.2,12.614,7.072,9.397C7.061,9.119,6.96,8.622,6.842,8.604
			C5.523,8.4,5.559,7.378,5.52,6.444C3.4,6.068,3.4,6.068,3.364,4.138c8.018,0,16.036,0,24.054,0
			c-0.036,1.919-0.036,1.919-1.826,2.25c-0.439,0.775-0.774,1.403-1.146,2.009c-0.218,0.356-0.693,0.665-0.714,1.015
			c-0.188,3.171-1.389,5.777-3.912,7.788c-1.326,1.057-1.33,1.333-0.019,2.39c2.504,2.019,3.765,4.603,3.907,7.784
			c0.013,0.281,0.105,0.783,0.221,0.801c1.308,0.21,1.307,1.211,1.327,2.159C27.382,30.727,27.382,30.727,27.418,32.647z
			 M22.368,28.281c-0.488-1.718-0.676-3.273-1.366-4.558c-0.661-1.23-1.801-2.222-2.805-3.244c-1.369-1.394-1.399-2.816,0.023-4.155
			c0.405-0.381,0.843-0.728,1.251-1.106c1.927-1.781,2.57-4.045,2.566-6.611c-4.495,0-8.881,0-13.392,0
			c0.138,0.956,0.227,1.8,0.386,2.631c0.408,2.125,1.766,3.604,3.34,4.97c1.597,1.386,1.568,2.919,0.029,4.376
			c-0.404,0.383-0.829,0.744-1.227,1.132c-1.813,1.766-2.427,3.971-2.433,6.558c0.682,0,1.272,0.046,1.847-0.025
			c0.207-0.026,0.533-0.326,0.543-0.514c0.104-2.051,1.361-3.47,2.597-4.912c1.552-1.811,1.749-3.634,0.556-5.714
			c-0.365-0.636-0.901-1.171-1.335-1.77c-0.258-0.356-0.47-0.746-0.818-1.308c2.134,0,3.983-0.002,5.832,0.004
			c0.173,0.001,0.345,0.055,0.778,0.129c-0.404,0.605-0.666,1.11-1.031,1.524c-2.537,2.88-2.585,4.775-0.148,7.701
			c0.982,1.179,1.92,2.395,2.02,3.995c0.047,0.75,0.353,0.965,1.037,0.905C21.05,28.251,21.489,28.281,22.368,28.281z"/>
	</g>
</g>
</svg>
