<?xml version="1.0" encoding="utf-8"?>
<!-- Generator: Adobe Illustrator 17.0.0, SVG Export Plug-In . SVG Version: 6.00 Build 0)  -->
<!DOCTYPE svg PUBLIC "-//W3C//DTD SVG 1.1//EN" "http://www.w3.org/Graphics/SVG/1.1/DTD/svg11.dtd">
<svg version="1.1" id="Capa_1" xmlns="http://www.w3.org/2000/svg" xmlns:xlink="http://www.w3.org/1999/xlink" x="0px" y="0px"
	 width="32px" height="32px" viewBox="0 0 32 32" enable-background="new 0 0 32 32" xml:space="preserve">
<path fill="#737373" d="M25.421,5.442h-5.626C19.23,3.881,17.75,2.75,16,2.75s-3.23,1.13-3.795,2.692H6.579
	c-1.48,0-2.692,1.211-2.692,2.692v18.842c0,1.48,1.211,2.692,2.692,2.692h18.842c1.48,0,2.692-1.211,2.692-2.692V8.133
	C28.112,6.653,26.901,5.442,25.421,5.442z M16,5.442c0.74,0,1.346,0.606,1.346,1.346S16.74,8.133,16,8.133
	c-0.74,0-1.346-0.606-1.346-1.346S15.26,5.442,16,5.442z M18.692,24.283H9.271v-2.692h9.421V24.283z M22.729,18.9H9.271v-2.692
	h13.458V18.9z M22.729,13.517H9.271v-2.692h13.458V13.517z"/>
<g id="ic_x5F_social_x0D_">
</g>
</svg>
