<?xml version="1.0" encoding="utf-8"?>
<!-- Generator: Adobe Illustrator 17.0.0, SVG Export Plug-In . SVG Version: 6.00 Build 0)  -->
<!DOCTYPE svg PUBLIC "-//W3C//DTD SVG 1.1//EN" "http://www.w3.org/Graphics/SVG/1.1/DTD/svg11.dtd">
<svg version="1.1" id="Capa_1" xmlns="http://www.w3.org/2000/svg" xmlns:xlink="http://www.w3.org/1999/xlink" x="0px" y="0px"
	 width="36.889px" height="32px" viewBox="0 0 36.889 32" enable-background="new 0 0 36.889 32" xml:space="preserve">
<g id="ic_x5F_social_x0D_">
	<g>
		<rect x="0" y="-1.019" fill="none" width="36.889" height="36.889"/>
	</g>
	<path fill="#737373" d="M24.593,15.888c2.547,0,4.596-2.065,4.596-4.611c0-2.546-2.049-4.611-4.596-4.611
		c-2.546,0-4.611,2.065-4.611,4.611C19.981,13.823,22.046,15.888,24.593,15.888z M12.296,15.888c2.547,0,4.596-2.065,4.596-4.611
		c0-2.546-2.049-4.611-4.596-4.611c-2.546,0-4.611,2.065-4.611,4.611C7.685,13.823,9.75,15.888,12.296,15.888z M12.296,18.962
		c-3.587,0-10.759,1.795-10.759,5.38v3.843h21.518v-3.843C23.055,20.758,15.883,18.962,12.296,18.962z M24.593,18.962
		c-0.446,0-0.948,0.028-1.484,0.083c1.782,1.286,3.021,3.016,3.021,5.296v3.843h9.222v-3.843
		C35.352,20.758,28.179,18.962,24.593,18.962z"/>
</g>
</svg>
