<?xml version="1.0" encoding="utf-8"?>
<!-- Generator: Adobe Illustrator 17.0.0, SVG Export Plug-In . SVG Version: 6.00 Build 0)  -->
<!DOCTYPE svg PUBLIC "-//W3C//DTD SVG 1.1//EN" "http://www.w3.org/Graphics/SVG/1.1/DTD/svg11.dtd">
<svg version="1.1" id="Capa_1" xmlns="http://www.w3.org/2000/svg" xmlns:xlink="http://www.w3.org/1999/xlink" x="0px" y="0px"
	 width="37.007px" height="35.697px" viewBox="0 0 37.007 35.697" enable-background="new 0 0 37.007 35.697" xml:space="preserve">
<g>
	<g>
		<g>
			<path fill="#616161" d="M2,10.359c0-0.004,0,6.47,0,6.47h4.313l5.392,5.392V4.968l-5.392,5.392H2z M16.557,13.594
				c0-1.904-1.099-3.548-2.696-4.343v8.685C15.458,17.142,16.557,15.498,16.557,13.594z M13.861,4.138v2.225
				c3.117,0.928,5.392,3.813,5.392,7.231s-2.274,6.304-5.392,7.231v2.225c4.32-0.982,7.548-4.839,7.548-9.456
				S18.182,5.119,13.861,4.138z"/>
		</g>
	</g>
	<g>
		<g>
			<path fill="#616161" d="M23.166,29.508h-4.21l-0.874,2.801h-2.721l4.379-12.987h2.667l4.362,12.987h-2.721L23.166,29.508z
				 M19.598,27.465h2.935l-1.436-4.576h-0.053L19.598,27.465z"/>
			<path fill="#616161" d="M31.072,30.311h4.781v1.998h-8.019v-1.534l4.594-6.101h-4.451v-2.016h7.725v1.49L31.072,30.311z"/>
		</g>
	</g>
</g>
</svg>
