<?xml version="1.0" encoding="utf-8"?>
<!-- Generator: Adobe Illustrator 17.0.0, SVG Export Plug-In . SVG Version: 6.00 Build 0)  -->
<!DOCTYPE svg PUBLIC "-//W3C//DTD SVG 1.1//EN" "http://www.w3.org/Graphics/SVG/1.1/DTD/svg11.dtd">
<svg version="1.1" id="Capa_1" xmlns="http://www.w3.org/2000/svg" xmlns:xlink="http://www.w3.org/1999/xlink" x="0px" y="0px"
	 width="198.496px" height="96px" viewBox="0 0 198.496 96" enable-background="new 0 0 198.496 96" xml:space="preserve">
<rect x="325.775" y="-74.971" fill="none" width="24" height="24"/>
<g>
	<g>
		<path fill="#FFFFFF" d="M39.242,75.03h-5.07l-1.053,3.373h-3.276l5.274-15.641h3.212l5.253,15.641h-3.276L39.242,75.03z
			 M34.945,72.57h3.534L36.75,67.06h-0.064L34.945,72.57z"/>
		<path fill="#FFFFFF" d="M54.818,72.914c0,1.719-0.397,3.101-1.192,4.146s-1.905,1.568-3.33,1.568
			c-0.609,0-1.149-0.113-1.622-0.339s-0.877-0.557-1.214-0.993v5.575h-3.126V66.78h2.825l0.183,1.375
			c0.344-0.509,0.757-0.9,1.241-1.177c0.483-0.275,1.047-0.413,1.692-0.413c1.439,0,2.557,0.563,3.352,1.687
			s1.192,2.604,1.192,4.437V72.914z M51.681,72.688c0-1.096-0.183-1.983-0.548-2.664s-0.924-1.021-1.676-1.021
			c-0.473,0-0.875,0.097-1.208,0.29s-0.596,0.469-0.79,0.827v5.092c0.193,0.329,0.457,0.58,0.79,0.752s0.743,0.258,1.23,0.258
			c0.759,0,1.316-0.297,1.67-0.892s0.532-1.4,0.532-2.417V72.688z"/>
		<path fill="#FFFFFF" d="M67.236,72.914c0,1.719-0.397,3.101-1.192,4.146s-1.905,1.568-3.33,1.568
			c-0.609,0-1.149-0.113-1.622-0.339s-0.877-0.557-1.214-0.993v5.575h-3.126V66.78h2.825l0.183,1.375
			c0.344-0.509,0.757-0.9,1.241-1.177c0.483-0.275,1.047-0.413,1.692-0.413c1.439,0,2.557,0.563,3.352,1.687
			s1.192,2.604,1.192,4.437V72.914z M64.099,72.688c0-1.096-0.183-1.983-0.548-2.664s-0.924-1.021-1.676-1.021
			c-0.473,0-0.875,0.097-1.208,0.29s-0.596,0.469-0.79,0.827v5.092c0.193,0.329,0.457,0.58,0.79,0.752s0.743,0.258,1.23,0.258
			c0.759,0,1.316-0.297,1.67-0.892s0.532-1.4,0.532-2.417V72.688z"/>
		<path fill="#FFFFFF" d="M74.97,67.887l-0.913-0.064c-0.81,0-1.474,0.228-1.993,0.682c-0.519,0.455-0.89,1.08-1.112,1.875v8.024
			h-1.289V66.78h1.128l0.161,1.934v0.129c0.336-0.716,0.788-1.274,1.354-1.676c0.565-0.401,1.239-0.602,2.02-0.602
			c0.157,0,0.308,0.013,0.451,0.037c0.143,0.025,0.261,0.053,0.354,0.081L74.97,67.887z"/>
		<path fill="#FFFFFF" d="M81.383,78.629c-1.504,0-2.725-0.532-3.663-1.596c-0.938-1.063-1.407-2.429-1.407-4.098v-0.591
			c0-1.676,0.475-3.058,1.423-4.146s2.125-1.633,3.529-1.633c1.411,0,2.501,0.453,3.271,1.358c0.77,0.906,1.155,2.126,1.155,3.658
			v0.999h-8.089v0.354c0,1.325,0.335,2.424,1.004,3.298s1.595,1.311,2.777,1.311c0.709,0,1.36-0.116,1.955-0.35
			c0.594-0.232,1.088-0.546,1.482-0.939l0.548,0.881c-0.408,0.43-0.943,0.786-1.606,1.068C83.1,78.487,82.307,78.629,81.383,78.629z
			 M81.265,67.661c-0.988,0-1.801,0.354-2.438,1.063c-0.638,0.709-1.01,1.607-1.117,2.696l0.032,0.064h6.66v-0.269
			c0-1.031-0.271-1.882-0.811-2.552C83.05,67.996,82.275,67.661,81.265,67.661z"/>
		<path fill="#FFFFFF" d="M89.429,66.78l0.118,2.02c0.379-0.709,0.884-1.259,1.515-1.649c0.63-0.39,1.378-0.585,2.245-0.585
			c1.26,0,2.22,0.385,2.879,1.154c0.659,0.771,0.988,1.972,0.988,3.604v7.079h-1.289v-7.068c0-1.332-0.249-2.273-0.747-2.825
			s-1.205-0.827-2.122-0.827c-0.917,0-1.656,0.226-2.218,0.677s-0.969,1.057-1.219,1.815v8.229h-1.289V66.78H89.429z"/>
		<path fill="#FFFFFF" d="M100.032,72.688c0-1.854,0.392-3.339,1.176-4.453c0.784-1.113,1.878-1.67,3.282-1.67
			c0.795,0,1.491,0.168,2.089,0.505s1.094,0.813,1.488,1.429v-6.854h1.289v16.758h-1.053l-0.183-1.687
			c-0.394,0.616-0.896,1.089-1.504,1.418c-0.609,0.329-1.325,0.494-2.148,0.494c-1.39,0-2.476-0.518-3.26-1.553
			c-0.784-1.034-1.176-2.422-1.176-4.162V72.688z M101.321,72.914c0,1.403,0.281,2.521,0.843,3.352s1.409,1.246,2.541,1.246
			c0.831,0,1.521-0.185,2.073-0.554c0.551-0.368,0.981-0.879,1.289-1.53v-5.511c-0.294-0.659-0.709-1.196-1.246-1.611
			s-1.235-0.623-2.095-0.623c-1.132,0-1.982,0.464-2.551,1.391c-0.569,0.928-0.854,2.133-0.854,3.615V72.914z"/>
		<path fill="#FFFFFF" d="M114.222,63.45h-1.278v-1.805h1.278V63.45z M114.222,78.403h-1.278V66.78h1.278V78.403z"/>
		<path fill="#FFFFFF" d="M118.637,77.318h7.552v1.085h-9.142v-0.945l7.004-9.571h-6.789V66.78h8.411v0.956L118.637,77.318z"/>
		<path fill="#FFFFFF" d="M135.9,78.403c-0.079-0.408-0.138-0.759-0.177-1.053s-0.059-0.595-0.059-0.902
			c-0.401,0.63-0.963,1.151-1.687,1.563c-0.724,0.412-1.554,0.618-2.492,0.618c-1.139,0-2.021-0.303-2.648-0.908
			c-0.626-0.604-0.94-1.427-0.94-2.465s0.455-1.88,1.364-2.524c0.909-0.645,2.091-0.967,3.545-0.967h2.857v-1.439
			c0-0.831-0.263-1.482-0.79-1.955s-1.27-0.709-2.229-0.709c-0.881,0-1.592,0.215-2.132,0.645s-0.811,0.971-0.811,1.622h-1.192
			l-0.021-0.064c-0.043-0.874,0.331-1.642,1.123-2.305c0.792-0.662,1.824-0.993,3.099-0.993c1.274,0,2.299,0.326,3.072,0.978
			s1.16,1.586,1.16,2.804v5.715c0,0.408,0.023,0.806,0.07,1.192s0.124,0.77,0.231,1.149H135.9z M131.625,77.49
			c0.988,0,1.844-0.234,2.567-0.704c0.723-0.469,1.214-1.072,1.472-1.81v-2.224h-2.868c-1.046,0-1.909,0.249-2.589,0.746
			c-0.681,0.498-1.021,1.098-1.021,1.8c0,0.659,0.217,1.188,0.65,1.59S130.865,77.49,131.625,77.49z"/>
		<path fill="#FFFFFF" d="M141.883,66.78v12.579c0,1.195-0.287,2.117-0.859,2.766c-0.573,0.648-1.368,0.973-2.385,0.973
			c-0.215,0-0.417-0.019-0.607-0.054c-0.19-0.036-0.388-0.086-0.596-0.15l0.14-1.085c0.115,0.035,0.272,0.071,0.473,0.107
			c0.201,0.035,0.376,0.054,0.526,0.054c0.637,0,1.135-0.221,1.493-0.661c0.358-0.44,0.537-1.09,0.537-1.949V66.78H141.883z
			 M141.819,63.407h-1.278v-1.762h1.278V63.407z"/>
		<path fill="#FFFFFF" d="M149.983,78.629c-1.504,0-2.725-0.532-3.663-1.596c-0.938-1.063-1.407-2.429-1.407-4.098v-0.591
			c0-1.676,0.475-3.058,1.423-4.146s2.125-1.633,3.529-1.633c1.411,0,2.501,0.453,3.271,1.358c0.77,0.906,1.155,2.126,1.155,3.658
			v0.999h-8.089v0.354c0,1.325,0.335,2.424,1.004,3.298s1.595,1.311,2.777,1.311c0.709,0,1.36-0.116,1.955-0.35
			c0.594-0.232,1.088-0.546,1.482-0.939l0.548,0.881c-0.408,0.43-0.943,0.786-1.606,1.068
			C151.7,78.487,150.907,78.629,149.983,78.629z M149.865,67.661c-0.988,0-1.801,0.354-2.438,1.063
			c-0.638,0.709-1.01,1.607-1.117,2.696l0.032,0.064h6.66v-0.269c0-1.031-0.271-1.882-0.811-2.552
			C151.65,67.996,150.875,67.661,149.865,67.661z"/>
	</g>
</g>
<g>
	<path fill="#FFFFFF" stroke="#FFFFFF" stroke-miterlimit="10" d="M57.947,42.989l-3.074,5.177
		c-1.948,3.267-4.485,5.661-7.609,7.183c-1.705,0.832-3.571,1.248-5.6,1.248c-3.774,0-7.183-1.268-10.227-3.804
		c-1.908,2.537-4.109,3.804-6.605,3.804c-1.563,0-2.922-0.477-4.078-1.43c-1.258-1.015-1.887-2.283-1.887-3.805
		c0-1.785,0.609-3.196,1.826-4.23c1.136-0.933,2.607-1.4,4.413-1.4c1.705,0,3.693,1.218,5.966,3.652
		c0.974-1.703,1.542-3.994,1.704-6.873c0.061-1.318,0.071-2.93,0.031-4.836l-0.091-4.623c-0.045-1.318-0.146-2.879-0.305-4.684
		l-0.517-6.843c-0.224-2.899-0.335-4.552-0.335-4.958c0-2.838,1.237-4.977,3.713-6.417c1.136-0.668,2.363-1.003,3.683-1.003
		c2.841,0,4.971,1.233,6.392,3.698c0.669,1.152,1.004,2.384,1.004,3.698h-2.13c0-2.037-0.883-3.561-2.648-4.569
		c-0.792-0.464-1.664-0.696-2.618-0.696c-1.461,0-2.704,0.512-3.729,1.536c-1.025,1.024-1.537,2.276-1.537,3.756
		c0-2.088,0.284,1.724,0.853,11.436l0.304,5.019c0.081,2.129,0.122,4.025,0.122,5.688c0,2.474-0.081,4.431-0.243,5.87
		c-0.285,2.393-0.995,4.522-2.131,6.387c1.461,1.358,2.835,2.281,4.125,2.768c1.288,0.487,2.937,0.73,4.946,0.73
		c4.687,0,8.48-2.465,11.383-7.396l3.04-5.177L57.947,42.989z M29.916,51.301c-2.029-2.292-3.632-3.439-4.809-3.439
		c-2.739,0-4.109,1.167-4.109,3.5c0,0.954,0.416,1.725,1.248,2.313c0.73,0.528,1.593,0.792,2.587,0.792
		C26.578,54.466,28.272,53.412,29.916,51.301z"/>
	<path fill="#FFFFFF" stroke="#FFFFFF" stroke-miterlimit="10" d="M55.481,41.901c0.69-1.151,1.035-2.241,1.035-3.271
		c0-1.191-0.335-1.787-1.004-1.787c-1.664,0-2.922,1.256-3.774,3.768c-0.426,1.317-0.639,2.938-0.639,4.861
		c0,2.451,0.588,4.507,1.764,6.168c1.338,1.884,3.192,2.826,5.563,2.826c3.425,0,6.333-2.073,8.725-6.219l3.696-6.354l1.861,1.096
		l-3.682,6.334c-2.821,4.849-6.352,7.273-10.592,7.273c-3.754,0-6.493-1.763-8.218-5.289c-0.832-1.661-1.248-3.606-1.248-5.835
		c0-4.559,1.086-7.74,3.257-9.544c0.974-0.811,2.069-1.215,3.287-1.215c1.096,0,1.927,0.475,2.496,1.425
		c0.487,0.809,0.7,1.779,0.639,2.911c-0.082,1.294-0.518,2.608-1.309,3.942L55.481,41.901z"/>
	<path fill="#FFFFFF" stroke="#FFFFFF" stroke-miterlimit="10" d="M89.261,41.893l1.861,1.096l-3.865,6.607
		c-1.583,2.719-3.277,4.667-5.083,5.844c-1.177,0.771-2.455,1.156-3.835,1.156c-1.461,0-2.729-0.517-3.804-1.552
		c-1.076-1.035-1.613-2.272-1.613-3.713v-9.801c-0.447,0.812-0.73,1.299-0.852,1.461l-1.857-1.096
		c1.42-2.354,2.293-4.657,2.618-6.909l0.091-10.562h-7.305v-2.13h7.305V9.42h2.13v12.875h7.335v2.13h-7.335v26.753
		c0,0.832,0.324,1.588,0.972,2.268c0.648,0.68,1.377,1.02,2.188,1.02c2.471,0,4.861-1.982,7.171-5.945L89.261,41.893z"/>
	<path fill="#FFFFFF" stroke="#FFFFFF" stroke-miterlimit="10" d="M90.451,42.992l-1.856-1.096c0.588-1.237,0.883-2.242,0.883-3.013
		c0-1.197-0.041-1.998-0.122-2.404c-1.237-0.832-1.856-1.735-1.856-2.709c0-1.035,0.518-1.552,1.552-1.552
		c1.075,0,1.796,0.924,2.161,2.77h9.648c1.116,0,2.055,0.38,2.815,1.141c0.761,0.761,1.142,1.7,1.142,2.815v12.235
		c0,2.191,0.871,3.287,2.613,3.287c1.417,0,2.734-0.813,3.949-2.438c0.709-0.975,1.732-2.621,3.068-4.938l3.026-5.197l1.861,1.096
		l-3.013,5.177c-1.729,2.963-2.888,4.799-3.478,5.509c-1.627,1.948-3.438,2.922-5.43,2.922c-1.424,0-2.568-0.497-3.432-1.491
		c-0.864-0.994-1.296-2.252-1.296-3.774V38.944c0-1.217-0.607-1.826-1.821-1.826h-9.258c0,0.507,0,1.106,0,1.796
		C91.587,40.131,91.202,41.49,90.451,42.992z"/>
	<path fill="#FFFFFF" stroke="#FFFFFF" stroke-miterlimit="10" d="M150.862,41.893l1.861,1.099l-3.013,5.174
		c-1.725,2.963-2.881,4.799-3.47,5.509c-1.624,1.948-3.429,2.922-5.417,2.922c-1.441,0-2.607-0.517-3.5-1.552
		c-0.832-0.974-1.248-2.191-1.248-3.652c-1.015,1.565-2.41,2.823-4.185,3.776c-1.776,0.953-3.607,1.429-5.494,1.429
		c-4.282,0-7.356-1.748-9.222-5.244c-0.832-1.515-1.238-3.182-1.218-5.001c0.041-4.405,2.04-7.749,5.996-10.032
		c1.846-1.071,3.814-1.606,5.905-1.606c3.307,0,5.935,1.182,7.883,3.544c1.116,1.374,1.928,2.414,2.435,3.121l0.03,10.044
		c0,2.029,0.871,3.043,2.613,3.043c1.417,0,2.734-0.813,3.95-2.438c0.708-0.975,1.731-2.621,3.068-4.938L150.862,41.893z
		 M136.022,41.981c-0.285-0.385-0.925-1.176-1.919-2.373c-1.543-1.844-3.624-2.765-6.242-2.765c-4.081,0-6.973,1.726-8.678,5.178
		c-0.731,1.454-1.096,2.897-1.096,4.33c-0.021,2.382,0.761,4.33,2.344,5.844s3.573,2.271,5.969,2.271
		c3.613,0,6.242-1.424,7.886-4.273C135.443,48.173,136.022,45.436,136.022,41.981z"/>
	<path fill="#FFFFFF" stroke="#FFFFFF" stroke-miterlimit="10" d="M177.468,42.99l-0.761,1.25c-1.989,3.247-4.525,5.996-7.609,8.248
		c-3.754,2.739-7.69,4.109-11.809,4.109c-1.522,0-2.912-0.426-4.17-1.278c-1.258-0.852-2.171-1.978-2.739-3.378l1.887-1.004
		c0.872,2.354,2.546,3.531,5.022,3.531c2.07,0,3.652-0.913,4.748-2.74c0.507-0.852,0.761-1.796,0.761-2.832
		c0-2.232-0.609-4.059-1.828-5.479c-0.975-1.055-2.396-2.679-4.265-4.871c-0.467-0.589-0.853-1.146-1.158-1.675l-3.533,6.086
		l-1.848-1.06l4.17-7.183h2.404c0.609,1.134,1.603,2.502,2.983,4.102l2.861,3.251c1.563,1.783,2.344,4.062,2.344,6.837
		c0,1.6-0.426,3.018-1.278,4.254c4.727-1.968,8.471-5.306,11.23-10.014l0.727-1.25L177.468,42.99z"/>
</g>
</svg>
